SplineFontDB: 3.2
FontName: MahoneSansBold
FullName: Mahone Sans Bold
FamilyName: Mahone Sans
Weight: Bold
Copyright: Copyright (c) 2022, Marco G Mahone
UComments: "2022-4-21: Created with FontForge (http://fontforge.org)"
Version: 001.000
ItalicAngle: 0
UnderlinePosition: -100
UnderlineWidth: 50
Ascent: 800
Descent: 200
InvalidEm: 0
LayerCount: 2
Layer: 0 0 "Back" 1
Layer: 1 0 "Fore" 0
XUID: [1021 174 643576185 19666]
FSType: 0
OS2Version: 0
OS2_WeightWidthSlopeOnly: 0
OS2_UseTypoMetrics: 1
CreationTime: 1650580350
ModificationTime: 1652381921
PfmFamily: 33
TTFWeight: 700
TTFWidth: 5
LineGap: 90
VLineGap: 0
Panose: 2 0 8 3 0 0 0 0 0 0
OS2TypoAscent: 0
OS2TypoAOffset: 1
OS2TypoDescent: 0
OS2TypoDOffset: 1
OS2TypoLinegap: 90
OS2WinAscent: 0
OS2WinAOffset: 1
OS2WinDescent: 0
OS2WinDOffset: 1
HheadAscent: 0
HheadAOffset: 1
HheadDescent: 0
HheadDOffset: 1
OS2Vendor: 'PfEd'
OS2UnicodeRanges: 0000000f.00000000.00000000.00000000
Lookup: 1 0 0 "'ss14' Style Set 14 lookup 29" { "'ss14' Style Set 14 lookup 29-1" ("salt") } ['ss14' ('DFLT' <'dflt' > 'cyrl' <'BRG ' 'SRB ' 'dflt' > 'grek' <'dflt' > 'latn' <'AZE ' 'CAT ' 'CRT ' 'KAZ ' 'MOL ' 'NLD ' 'ROM ' 'TAT ' 'TRK ' 'dflt' > ) ]
Lookup: 1 0 0 "'ss13' Style Set 13 lookup 28" { "'ss13' Style Set 13 lookup 28-1" ("salt") } ['ss13' ('DFLT' <'dflt' > 'cyrl' <'BRG ' 'SRB ' 'dflt' > 'grek' <'dflt' > 'latn' <'AZE ' 'CAT ' 'CRT ' 'KAZ ' 'MOL ' 'NLD ' 'ROM ' 'TAT ' 'TRK ' 'dflt' > ) ]
Lookup: 1 0 0 "Single Substitution lookup 25" { "Single Substitution lookup 25 subtable"  } []
Lookup: 1 0 0 "Single Substitution lookup 24" { "Single Substitution lookup 24 subtable"  } []
Lookup: 1 0 0 "'ss09' Style Set 9 lookup 17" { "'ss09' Style Set 9 lookup 17-1" ("salt") } ['ss09' ('DFLT' <'dflt' > 'cyrl' <'dflt' > 'grek' <'dflt' > 'latn' <'dflt' > ) ]
Lookup: 1 0 0 "'ss08' Style Set 8 lookup 16" { "'ss08' Style Set 8 lookup 16-1" ("salt") } ['ss08' ('DFLT' <'dflt' > 'cyrl' <'dflt' > 'grek' <'dflt' > 'latn' <'dflt' > ) ]

StartChar: one
Encoding: 49 49 0
Width: 384
Flags: HW
LayerCount: 2
Fore
SplineSet
207 474 m 5
 109 394 l 5
 35 506 l 5
 207 628 l 5
 207 474 l 5
207 0 m 1
 207 628 l 1
 349 628 l 1
 349 0 l 1
 207 0 l 1
EndSplineSet
Substitution2: "'frac' Diagonal Fractions in Latin lookup 22 subtable" one.numr
Substitution2: "'sups' Superscript lookup 0 subtable" one.sups
Substitution2: "'subs' Subscript lookup 0 subtable" one.subs
Substitution2: "'sinf' Scientific Inferiors lookup 0 subtable" one.sinf
Substitution2: "'tnum' Tabular Numbers in Latin lookup 5-1" one.tf
Substitution2: "'onum' Oldstyle Figures in Latin lookup 4-1" one.osf
Substitution2: "'dnom' Denominators lookup 0 subtable" one.dnom
Substitution2: "'numr' Numerators lookup 0 subtable" one.numr
EndChar

StartChar: two
Encoding: 50 50 1
Width: 529
Flags: HW
LayerCount: 2
Fore
SplineSet
35 121 m 1
 106 131 l 1
 492 131 l 1
 492 0 l 1
 35 0 l 1
 35 121 l 1
270.888671875 363.90234375 m 0
 337.837890625 392.581054688 357.928710938 416.182617188 357.928710938 450 c 0
 357.928710938 483.817382812 319.73046875 502.09765625 240.888671875 502.09765625 c 0
 159.770507812 502.09765625 89.107421875 460 89.107421875 460 c 1
 45.77734375 592 l 1
 45.77734375 592 130.19140625 640.559570312 240.888671875 640.559570312 c 0
 392.48828125 640.559570312 494.77734375 581.599609375 494.77734375 464 c 0
 494.77734375 326.400390625 393 261 290.888671875 224.440429688 c 0
 187.471679688 187.413085938 180 143 169 101 c 1
 162 30 l 1
 35 121 l 1
 80 290 177.783203125 324.018554688 270.888671875 363.90234375 c 0
EndSplineSet
Substitution2: "'frac' Diagonal Fractions in Latin lookup 22 subtable" two.numr
Substitution2: "'sups' Superscript lookup 0 subtable" two.sups
Substitution2: "'subs' Subscript lookup 0 subtable" two.subs
Substitution2: "'sinf' Scientific Inferiors lookup 0 subtable" two.sinf
Substitution2: "'tnum' Tabular Numbers in Latin lookup 5-1" two.tf
Substitution2: "'onum' Oldstyle Figures in Latin lookup 4-1" two.osf
Substitution2: "'dnom' Denominators lookup 0 subtable" two.dnom
Substitution2: "'numr' Numerators lookup 0 subtable" two.numr
EndChar

StartChar: O
Encoding: 79 79 2
Width: 677
Flags: W
HStem: -12.5596 138.462<255.356 422.421> 502.098 138.462<255.356 422.421>
VStem: 35 136.849<217.23 410.77> 505.929 136.849<217.23 410.77>
LayerCount: 2
Fore
SplineSet
171.848632812 314 m 4
 171.848632812 200.182617188 240.046875 125.90234375 338.888671875 125.90234375 c 4
 437.73046875 125.90234375 505.928710938 200.182617188 505.928710938 314 c 4
 505.928710938 427.817382812 437.73046875 502.09765625 338.888671875 502.09765625 c 0
 240.046875 502.09765625 171.848632812 427.817382812 171.848632812 314 c 4
35 314 m 4
 35 511.599609375 167.2890625 640.559570312 338.888671875 640.559570312 c 0
 510.48828125 640.559570312 642.77734375 511.599609375 642.77734375 314 c 4
 642.77734375 116.400390625 510.48828125 -12.5595703125 338.888671875 -12.5595703125 c 4
 167.2890625 -12.5595703125 35 116.400390625 35 314 c 4
EndSplineSet
EndChar

StartChar: A
Encoding: 65 65 3
Width: 612
Flags: HW
HStem: 0 21G<35 182.414 429.586 577> 116 132<173 427> 608 20G<228.631 383.369>
LayerCount: 2
Fore
SplineSet
427 116 m 1
 173 116 l 1
 173 248 l 1
 427 248 l 1
 427 116 l 1
577 0 m 1
 435 0 l 1
 265 628 l 1
 377 628 l 1
 577 0 l 1
35 0 m 5
 235 628 l 5
 347 628 l 5
 177 0 l 5
 35 0 l 5
EndSplineSet
EndChar

StartChar: I
Encoding: 73 73 4
Width: 324
Flags: W
HStem: 0 132<35 91 233 289> 30 102<91 233> 496 132<35 91 233 289> 496 102<91 233>
VStem: 35 254<0 132 496 628> 91 142<30 598>
LayerCount: 2
Fore
SplineSet
289 0 m 1x88
 35 0 l 1
 35 132 l 1
 289 132 l 1
 289 0 l 1x88
289 496 m 1x28
 35 496 l 1
 35 628 l 1
 289 628 l 1
 289 496 l 1x28
91 30 m 5x54
 91 598 l 5
 233 598 l 5
 233 30 l 5
 91 30 l 5x54
EndSplineSet
EndChar

StartChar: T
Encoding: 84 84 5
Width: 538
Flags: HW
HStem: 0 21G<198 340> 496 132<35 198 340 503> 496 102<198 340>
VStem: 198 142<0 598>
LayerCount: 2
Fore
SplineSet
503 496 m 1xd0
 35 496 l 5
 35 628 l 5
 503 628 l 1
 503 496 l 1xd0
198 0 m 1
 198 598 l 1
 340 598 l 1xb0
 340 0 l 1
 198 0 l 1
EndSplineSet
EndChar

StartChar: Q
Encoding: 81 81 6
Width: 677
Flags: HW
HStem: 0 138.462<251.947 535.436> 502.098 138.462<255.356 422.421>
VStem: 35 136.849<219.308 410.77> 505.929 136.849<218.609 410.77>
LayerCount: 2
Fore
SplineSet
339 126.461914062 m 4
 437.841796875 126.461914062 505.928710938 200.182617188 505.928710938 314 c 0
 505.928710938 427.817382812 437.73046875 502.09765625 338.888671875 502.09765625 c 0
 240.046875 502.09765625 171.848632812 427.817382812 171.848632812 314 c 0
 171.848632812 200.182617188 240.158203125 126.461914062 339 126.461914062 c 4
35 314 m 0
 35 511.599609375 167.2890625 640.559570312 338.888671875 640.559570312 c 0
 510.48828125 640.559570312 642.77734375 511.599609375 642.77734375 314 c 0
 642.77734375 212.192382812 571 129.362304688 571 129.362304688 c 5
 685 150 l 5
 701 18 l 5
 701 18 551 -12 339 -12 c 4
 167.400390625 -12 35 116.400390625 35 314 c 0
EndSplineSet
Substitution2: "'ss13' Style Set 13 lookup 28-1" Q.salt
Substitution2: "'salt' Stylistic Alternatives in Latin lookup 3-1" Q.salt
EndChar

StartChar: D
Encoding: 68 68 7
Width: 566
Flags: HW
LayerCount: 2
Fore
SplineSet
35 0 m 1
 35 628 l 1
 177 628 l 1
 177 0 l 1
 35 0 l 1
228 489.538085938 m 2
 177 489.538085938 l 1
 177 628 l 1
 228 628 l 2
 399.599609375 628 531.888671875 504.040039062 531.888671875 306.440429688 c 0
 531.888671875 108.840820312 399.599609375 0 228 0 c 2
 177 0 l 1
 177 138.461914062 l 1
 228 138.461914062 l 2
 326.841796875 138.461914062 395.040039062 192.623046875 395.040039062 306.440429688 c 0
 395.040039062 420.2578125 326.841796875 489.538085938 228 489.538085938 c 2
EndSplineSet
EndChar

StartChar: B
Encoding: 66 66 8
Width: 546
Flags: HW
LayerCount: 2
Fore
SplineSet
248 250 m 2
 177 250 l 1
 177 388.461914062 l 1
 315 334 l 1
 358 333.461914062 l 2
 438.735351562 332.451171875 511.888671875 274.040039062 511.888671875 176.440429688 c 0
 511.888671875 64.8408203125 398.599609375 0 278 0 c 2
 177 0 l 1
 177 138.461914062 l 1
 248 138.461914062 l 2
 295.841796875 138.461914062 365.040039062 138.623046875 365.040039062 196.440429688 c 0
 365.040039062 250.2578125 295.841796875 250 248 250 c 2
35 0 m 1
 35 628 l 1
 177 628 l 1
 177 0 l 1
 35 0 l 1
218 489.538085938 m 2
 177 489.538085938 l 1
 177 628 l 1
 238 628 l 2
 358.599609375 628 461.888671875 574.040039062 461.888671875 456.440429688 c 0
 461.888671875 384.840820312 413 314 330 314 c 2
 273 314 l 1
 177 250 l 1
 177 388.461914062 l 1
 218 388.461914062 l 2
 265.841796875 388.461914062 315.040039062 398.623046875 315.040039062 436.440429688 c 0
 315.040039062 480.2578125 265.841796875 489.538085938 218 489.538085938 c 2
EndSplineSet
EndChar

StartChar: P
Encoding: 80 80 9
Width: 576
Flags: HW
LayerCount: 2
Fore
SplineSet
35 0 m 1
 35 628 l 1
 177 628 l 1
 177 0 l 1
 35 0 l 1
288 489.538085938 m 2
 177 489.538085938 l 1
 177 628 l 1
 288 628 l 2
 408.599609375 628 541.888671875 564.040039062 541.888671875 396.440429688 c 0
 541.888671875 234.840820312 408.599609375 180 288 180 c 2
 177 180 l 1
 177 318.461914062 l 1
 288 318.461914062 l 2
 335.841796875 318.461914062 405.040039062 321.623046875 405.040039062 399.440429688 c 4
 405.040039062 483.2578125 335.841796875 489.538085938 288 489.538085938 c 2
EndSplineSet
EndChar

StartChar: R
Encoding: 82 82 10
Width: 604
Flags: HW
LayerCount: 2
Fore
SplineSet
308 489.538085938 m 2
 177 489.538085938 l 1
 177 628 l 1
 308 628 l 2
 428.599609375 628 541.888671875 569.040039062 541.888671875 421.440429688 c 0
 541.888671875 279.840820312 428.599609375 230 308 230 c 2
 177 230 l 1
 177 358.461914062 l 1
 308 358.461914062 l 2
 355.841796875 358.461914062 405.040039062 361.623046875 405.040039062 419.440429688 c 0
 405.040039062 483.2578125 355.841796875 489.538085938 308 489.538085938 c 2
35 0 m 1
 35 628 l 1
 177 628 l 1
 177 0 l 1
 35 0 l 1
569 0 m 1
 387 0 l 1
 187 296 l 1
 276 349 l 1
 569 0 l 1
EndSplineSet
EndChar

StartChar: C
Encoding: 67 67 11
Width: 560
Flags: HW
LayerCount: 2
Fore
SplineSet
35 314 m 0
 35 511.599609375 167.2890625 640.559570312 338.888671875 640.559570312 c 0
 449.5859375 640.559570312 506.673828125 618.524414062 506.673828125 618.524414062 c 1
 493.958984375 481.094726562 l 1
 493.958984375 481.094726562 450.006835938 502.09765625 358.888671875 502.09765625 c 0
 240.046875 502.09765625 171.848632812 427.817382812 171.848632812 314 c 0
 171.848632812 200.182617188 240.046875 125.90234375 358.888671875 125.90234375 c 4
 449.981445312 125.90234375 497.901367188 146.872070312 497.901367188 146.872070312 c 5
 525.940429688 9.2666015625 l 5
 525.940429688 9.2666015625 449.314453125 -12.5595703125 338.888671875 -12.5595703125 c 4
 167.2890625 -12.5595703125 35 116.400390625 35 314 c 0
EndSplineSet
EndChar

StartChar: E
Encoding: 69 69 12
Width: 471
Flags: HW
LayerCount: 2
Fore
SplineSet
369 256 m 1
 55 256 l 1
 55 388 l 1
 369 388 l 1
 369 256 l 1
436 0 m 1
 35 0 l 1
 35 132 l 1
 436 132 l 1
 436 0 l 1
436 496 m 1
 35 496 l 1
 35 628 l 1
 436 628 l 1
 436 496 l 1
35 30 m 1
 35 598 l 1
 177 598 l 5
 177 30 l 5
 35 30 l 1
EndSplineSet
EndChar

StartChar: F
Encoding: 70 70 13
Width: 471
Flags: HW
LayerCount: 2
Fore
SplineSet
369 215 m 1
 55 215 l 1
 55 347 l 1
 369 347 l 1
 369 215 l 1
436 496 m 5
 35 496 l 5
 35 628 l 5
 436 628 l 5
 436 496 l 5
35 0 m 1
 35 598 l 1
 177 598 l 1
 177 0 l 1
 35 0 l 1
EndSplineSet
EndChar

StartChar: G
Encoding: 71 71 14
Width: 647
Flags: HW
LayerCount: 2
Fore
SplineSet
612.77734375 224 m 5
 358.77734375 224 l 5
 358.77734375 356 l 5
 612.77734375 356 l 5
 612.77734375 224 l 5
445.928710938 234 m 1
 552.77734375 254 l 1
 605 96 490.48828125 -12.5595703125 318.888671875 -12.5595703125 c 0
 147.2890625 -12.5595703125 35 116.400390625 35 314 c 0
 35 511.599609375 167.2890625 640.559570312 358.888671875 640.559570312 c 0
 469.5859375 640.559570312 536.673828125 618.524414062 536.673828125 618.524414062 c 1
 523.958984375 481.094726562 l 1
 523.958984375 481.094726562 470.006835938 502.09765625 378.888671875 502.09765625 c 0
 240.046875 502.09765625 171.668945312 426.53515625 171.848632812 314 c 0
 172 219 220.046875 125.90234375 318.888671875 125.90234375 c 0
 417.73046875 125.90234375 467 153 445.928710938 234 c 1
EndSplineSet
Substitution2: "'ss14' Style Set 14 lookup 29-1" G.salt
Substitution2: "'salt' Stylistic Alternatives in Latin lookup 3-1" G.salt
EndChar

StartChar: H
Encoding: 72 72 15
Width: 574
Flags: HW
HStem: 0 21G<35 177 397 539> 256 132<55 519> 608 20G<35 177 397 539>
VStem: 35 142<0 256 388 628> 55 122<256 388> 397 142<0 256 388 628> 397 122<256 388>
LayerCount: 2
Fore
SplineSet
35 0 m 1xf0
 35 628 l 1
 177 628 l 1
 177 0 l 1
 35 0 l 1xf0
539 0 m 1xe4
 397 0 l 1
 397 628 l 1
 539 628 l 1
 539 0 l 1xe4
519 256 m 5xea
 55 256 l 5
 55 388 l 5
 519 388 l 5
 519 256 l 5xea
EndSplineSet
EndChar

StartChar: K
Encoding: 75 75 16
Width: 574
Flags: HW
LayerCount: 2
Fore
SplineSet
529 628 m 5
 136 135 l 4
 55 208 l 5
 347 628 l 5
 529 628 l 5
35 0 m 1
 35 628 l 1
 177 628 l 1
 177 0 l 1
 35 0 l 1
539 0 m 1
 357 0 l 1
 187 246 l 1
 286 329 l 1
 539 0 l 1
EndSplineSet
EndChar

StartChar: L
Encoding: 76 76 17
Width: 478
Flags: HW
HStem: 0 132<35 443> 608 20G<35 177>
VStem: 35 142<132 628>
LayerCount: 2
Fore
SplineSet
35 0 m 1
 35 628 l 1
 177 628 l 1
 177 0 l 5
 35 0 l 1
443 0 m 5
 35 0 l 1
 35 132 l 1
 443 132 l 5
 443 0 l 5
EndSplineSet
EndChar

StartChar: M
Encoding: 77 77 18
Width: 674
Flags: HW
LayerCount: 2
Fore
SplineSet
387 170 m 5
 337 342 l 5
 497 628 l 1
 497 376 l 1
 387 170 l 5
35 0 m 1
 35 628 l 1
 177 628 l 1
 177 0 l 1
 35 0 l 1
639 0 m 1
 497 0 l 1
 497 628 l 1
 639 628 l 1
 639 0 l 1
287 170 m 5
 177 376 l 1
 177 628 l 1
 337 342 l 5
 387 170 l 5
 287 170 l 5
EndSplineSet
EndChar

StartChar: N
Encoding: 78 78 19
Width: 604
Flags: HW
LayerCount: 2
Fore
SplineSet
35 0 m 1
 35 628 l 1
 177 628 l 1
 177 0 l 1
 35 0 l 1
569 0 m 5
 427 0 l 5
 427 628 l 5
 569 628 l 5
 569 0 l 5
427 0 m 5
 177 376 l 1
 177 628 l 1
 427 242 l 5
 427 0 l 5
EndSplineSet
EndChar

StartChar: S
Encoding: 83 83 21
Width: 561
Flags: HW
LayerCount: 2
Fore
SplineSet
280.888671875 390.90234375 m 0
 448 353 526.77734375 298.599609375 526.77734375 181 c 0
 526.77734375 63.400390625 414.48828125 -12.5595703125 272.888671875 -12.5595703125 c 0
 142.19140625 -12.5595703125 35 58 35 58 c 1
 100 179 l 1
 100 179 161.770507812 125.90234375 272.888671875 125.90234375 c 0
 341.73046875 125.90234375 389.928710938 143.182617188 389.928710938 181 c 0
 389.928710938 214.817382812 368 236 260.888671875 262.440429688 c 0
 153.23046875 289.015625 57 336.400390625 57 454 c 0
 57 571.599609375 159.2890625 640.559570312 310.888671875 640.559570312 c 0
 431.5859375 640.559570312 506 602 506 602 c 1
 462.669921875 470 l 1
 462.669921875 470 402.006835938 502.09765625 310.888671875 502.09765625 c 0
 232.046875 502.09765625 193.848632812 483.817382812 193.848632812 450 c 0
 193.848632812 426.182617188 209.125976562 407.178710938 280.888671875 390.90234375 c 0
EndSplineSet
EndChar

StartChar: U
Encoding: 85 85 22
Width: 558
Flags: HW
LayerCount: 2
Fore
SplineSet
386.928710938 274 m 2
 386.927734375 628 l 1
 523.927734375 628 l 1
 523.776367188 274 l 2
 523.708984375 116.400390625 451.48828125 -12.5595703125 279.888671875 -12.5595703125 c 0
 108.2890625 -12.5595703125 36.4453125 116.401367188 36 274 c 6
 35 628 l 5
 173 628 l 5
 172.848632812 274 l 6
 172.817382812 200.182617188 181.046875 125.90234375 279.888671875 125.90234375 c 0
 378.73046875 125.90234375 387.137695312 200.18359375 386.928710938 274 c 2
EndSplineSet
EndChar

StartChar: V
Encoding: 86 86 23
Width: 612
Flags: HW
LayerCount: 2
Fore
SplineSet
35 628 m 1
 177 628 l 1
 347 0 l 1
 235 0 l 1
 35 628 l 1
577 628 m 1
 377 0 l 1
 265 0 l 1
 435 628 l 1
 577 628 l 1
EndSplineSet
EndChar

StartChar: W
Encoding: 87 87 24
Width: 846
Flags: HW
LayerCount: 2
Fore
SplineSet
811 628 m 1
 641 0 l 1
 529 0 l 1
 669 628 l 1
 811 628 l 1
382 526 m 1
 494 526 l 1
 611 0 l 1
 499 0 l 1
 382 526 l 1
35 628 m 1
 177 628 l 1
 317 0 l 1
 205 0 l 1
 35 628 l 1
464 526 m 5
 347 0 l 5
 235 0 l 5
 352 526 l 5
 464 526 l 5
EndSplineSet
EndChar

StartChar: X
Encoding: 88 88 25
Width: 572
Flags: HW
LayerCount: 2
Fore
SplineSet
35 628 m 1
 177 628 l 1
 283 436 l 5
 537 0 l 1
 395 0 l 1
 287 210 l 1
 35 628 l 1
537 628 m 1
 287 210 l 1
 177 0 l 1
 35 0 l 1
 283 436 l 5
 395 628 l 1
 537 628 l 1
EndSplineSet
EndChar

StartChar: Y
Encoding: 89 89 26
Width: 612
Flags: HW
LayerCount: 2
Fore
SplineSet
235 230 m 1
 377 230 l 1
 377 0 l 1
 235 0 l 1
 235 230 l 1
35 628 m 1
 187 628 l 1
 341 250 l 1
 377 230 l 1
 235 230 l 1
 35 628 l 1
577 628 m 1
 377 230 l 1
 259 250 l 1
 425 628 l 5
 577 628 l 1
EndSplineSet
EndChar

StartChar: Z
Encoding: 90 90 27
Width: 508
Flags: HW
LayerCount: 2
Fore
SplineSet
473 0 m 1
 35 0 l 1
 35 132 l 1
 473 132 l 1
 473 0 l 1
463 496 m 1
 45 496 l 1
 45 628 l 1
 463 628 l 1
 463 496 l 1
35 132 m 1
 311 496 l 1
 463 496 l 1
 197 132 l 5
 35 132 l 1
EndSplineSet
EndChar

StartChar: J
Encoding: 74 74 28
Width: 402
Flags: HW
LayerCount: 2
Fore
SplineSet
168.051757812 -12.55859375 m 0
 68.6259765625 -12.55859375 35 5.267578125 35 5.267578125 c 1
 43.150390625 126.99609375 l 5
 43.150390625 126.99609375 72.0703125 117.026367188 133.163085938 117.026367188 c 4
 191.850585938 117.026367188 230.306640625 132.000976562 230.091796875 216 c 6
 229.090820312 598 l 1
 367.090820312 598 l 1
 366.939453125 195 l 2
 366.897460938 77 318.163085938 -12.55859375 168.051757812 -12.55859375 c 0
367.090820312 496 m 1
 113.090820312 496 l 1
 113.090820312 628 l 1
 367.090820312 628 l 1
 367.090820312 496 l 1
EndSplineSet
EndChar

StartChar: zero
Encoding: 48 48 29
Width: 597
Flags: HW
HStem: -12.5596 138.462<224.968 372.81> 502.098 138.462<224.968 372.81>
VStem: 35 136.849<187.008 440.992> 425.929 136.849<187.008 440.992>
LayerCount: 2
Fore
SplineSet
171.848632812 314 m 0
 171.848632812 200.182617188 200.046875 125.90234375 298.888671875 125.90234375 c 0
 397.73046875 125.90234375 425.928710938 200.182617188 425.928710938 314 c 4
 425.928710938 427.817382812 397.73046875 502.09765625 298.888671875 502.09765625 c 0
 200.046875 502.09765625 171.848632812 427.817382812 171.848632812 314 c 0
35 314 m 0
 35 511.599609375 127.2890625 640.559570312 298.888671875 640.559570312 c 0
 470.48828125 640.559570312 562.77734375 511.599609375 562.77734375 314 c 4
 562.77734375 116.400390625 470.48828125 -12.5595703125 298.888671875 -12.5595703125 c 0
 127.2890625 -12.5595703125 35 116.400390625 35 314 c 0
EndSplineSet
Substitution2: "'frac' Diagonal Fractions in Latin lookup 22 subtable" zero.numr
Substitution2: "'sups' Superscript lookup 0 subtable" zero.sups
Substitution2: "'subs' Subscript lookup 0 subtable" zero.subs
Substitution2: "'sinf' Scientific Inferiors lookup 0 subtable" zero.sinf
Substitution2: "'tnum' Tabular Numbers in Latin lookup 5-1" zero.tf
Substitution2: "'onum' Oldstyle Figures in Latin lookup 4-1" zero.osf
Substitution2: "'dnom' Denominators lookup 0 subtable" zero.dnom
Substitution2: "'numr' Numerators lookup 0 subtable" zero.numr
EndChar

StartChar: three
Encoding: 51 51 30
Width: 538
Flags: HW
LayerCount: 2
Fore
SplineSet
229 357 m 1
 458 351 503.22265625 231.743164062 503.22265625 164.143554688 c 0
 503.22265625 46.5439453125 390.93359375 -12.416015625 239.333984375 -12.416015625 c 0
 128.63671875 -12.416015625 35 45 35 45 c 5
 87.552734375 168.143554688 l 5
 87.552734375 168.143554688 158.215820312 126.045898438 239.333984375 126.045898438 c 0
 318.17578125 126.045898438 366.374023438 154.326171875 366.374023438 188.143554688 c 0
 366.374023438 241.9609375 296 267 229 267 c 1
 229 357 l 1
229 317 m 1
 229 387 l 1
 293 387 356.928710938 401.182617188 356.928710938 445 c 0
 356.928710938 478.817382812 318.73046875 502.09765625 239.888671875 502.09765625 c 0
 158.770507812 502.09765625 118.107421875 470 118.107421875 470 c 5
 64.77734375 592 l 5
 64.77734375 592 129.19140625 640.559570312 239.888671875 640.559570312 c 0
 391.48828125 640.559570312 493.77734375 581.599609375 493.77734375 464 c 0
 493.77734375 346.400390625 360 301 229 317 c 1
EndSplineSet
Substitution2: "'frac' Diagonal Fractions in Latin lookup 22 subtable" three.numr
Substitution2: "'sups' Superscript lookup 0 subtable" three.sups
Substitution2: "'subs' Subscript lookup 0 subtable" three.subs
Substitution2: "'sinf' Scientific Inferiors lookup 0 subtable" three.sinf
Substitution2: "'tnum' Tabular Numbers in Latin lookup 5-1" three.tf
Substitution2: "'onum' Oldstyle Figures in Latin lookup 4-1" three.osf
Substitution2: "'dnom' Denominators lookup 0 subtable" three.dnom
Substitution2: "'numr' Numerators lookup 0 subtable" three.numr
EndChar

StartChar: four
Encoding: 52 52 31
Width: 584
Flags: HW
LayerCount: 2
Fore
SplineSet
549 145 m 5
 35 145 l 5
 35 277 l 5
 549 277 l 5
 549 145 l 5
306 446 m 1
 185 277 l 5
 35 277 l 5
 306 628 l 1
 306 446 l 1
306 0 m 1
 306 628 l 1
 448 628 l 1
 448 0 l 1
 306 0 l 1
EndSplineSet
Substitution2: "'frac' Diagonal Fractions in Latin lookup 22 subtable" four.numr
Substitution2: "'sups' Superscript lookup 0 subtable" four.sups
Substitution2: "'subs' Subscript lookup 0 subtable" four.subs
Substitution2: "'sinf' Scientific Inferiors lookup 0 subtable" four.sinf
Substitution2: "'tnum' Tabular Numbers in Latin lookup 5-1" four.tf
Substitution2: "'onum' Oldstyle Figures in Latin lookup 4-1" four.osf
Substitution2: "'dnom' Denominators lookup 0 subtable" four.dnom
Substitution2: "'numr' Numerators lookup 0 subtable" four.numr
EndChar

StartChar: five
Encoding: 53 53 32
Width: 544
Flags: HW
LayerCount: 2
Fore
SplineSet
85.22265625 628.0546875 m 1
 209.22265625 628.0546875 l 1
 163 321 l 1
 48.22265625 343.0546875 l 1
 85.22265625 628.0546875 l 1
85.22265625 628.0546875 m 1
 479.22265625 628.0546875 l 1
 479.22265625 497.0546875 l 1
 166.22265625 497.0546875 l 1
 85.22265625 628.0546875 l 1
101 261 m 1
 48.22265625 343.0546875 l 0
 148 356 l 1
 219 441 509.111328125 442.590820312 509.111328125 212 c 0
 509.111328125 74.400390625 401.7109375 -12.5048828125 250.111328125 -12.5048828125 c 0
 139.4140625 -12.5048828125 35 36.0546875 35 36.0546875 c 1
 78.330078125 168.0546875 l 1
 78.330078125 168.0546875 168.993164062 125.95703125 250.111328125 125.95703125 c 0
 328.953125 125.95703125 367.151367188 164.237304688 367.151367188 218.0546875 c 0
 367.151367188 271.872070312 321 346 101 261 c 1
EndSplineSet
Substitution2: "'frac' Diagonal Fractions in Latin lookup 22 subtable" five.numr
Substitution2: "'sups' Superscript lookup 0 subtable" five.sups
Substitution2: "'subs' Subscript lookup 0 subtable" five.subs
Substitution2: "'sinf' Scientific Inferiors lookup 0 subtable" five.sinf
Substitution2: "'tnum' Tabular Numbers in Latin lookup 5-1" five.tf
Substitution2: "'onum' Oldstyle Figures in Latin lookup 4-1" five.osf
Substitution2: "'dnom' Denominators lookup 0 subtable" five.dnom
Substitution2: "'numr' Numerators lookup 0 subtable" five.numr
EndChar

StartChar: six
Encoding: 54 54 33
Width: 580
Flags: HW
LayerCount: 2
Fore
SplineSet
299.322265625 126.081054688 m 4
 358.173828125 126.081054688 394 156.015625 394 206 c 4
 394 237 372 276 300 276 c 4
 237.390625 276 206 247.536132812 206 208 c 4
 206 149.8046875 249 126.081054688 299.322265625 126.081054688 c 4
171.864257812 317.841796875 m 1
 190.145507812 357.598632812 240.302734375 397.760742188 318 397.760742188 c 0
 473 397.760742188 545 314.1875 545 194 c 0
 545 86 459.889648438 -12.5595703125 298.888671875 -12.5595703125 c 0
 127.2890625 -12.5595703125 35 116.400390625 35 314 c 0
 35 511.599609375 127.2890625 640.559570312 318.888671875 640.559570312 c 0
 459.5859375 640.559570312 530 572 530 572 c 1
 461 455 l 1
 461 455 410.006835938 502.09765625 328.888671875 502.09765625 c 0
 221.290039062 502.09765625 172.862304688 428.251953125 171.864257812 317.841796875 c 1
EndSplineSet
Substitution2: "'salt' Stylistic Alternatives in Latin lookup 3-1" six.salt
Substitution2: "'frac' Diagonal Fractions in Latin lookup 22 subtable" six.numr
Substitution2: "'ss03' Style Set 3 lookup 11-1" six.salt
Substitution2: "'sups' Superscript lookup 0 subtable" six.sups
Substitution2: "'subs' Subscript lookup 0 subtable" six.subs
Substitution2: "'sinf' Scientific Inferiors lookup 0 subtable" six.sinf
Substitution2: "'tnum' Tabular Numbers in Latin lookup 5-1" six.tf
Substitution2: "'onum' Oldstyle Figures in Latin lookup 4-1" six.osf
Substitution2: "'dnom' Denominators lookup 0 subtable" six.dnom
Substitution2: "'numr' Numerators lookup 0 subtable" six.numr
EndChar

StartChar: seven
Encoding: 55 55 34
Width: 528
Flags: HW
LayerCount: 2
Fore
SplineSet
493 496 m 1
 35 496 l 1
 35 628 l 1
 493 628 l 1
 493 496 l 1
128 0 m 1
 148 345 351 496 351 496 c 1
 493 496 l 1
 493 496 300 362 280 0 c 1
 128 0 l 1
EndSplineSet
Substitution2: "'frac' Diagonal Fractions in Latin lookup 22 subtable" seven.numr
Substitution2: "'sups' Superscript lookup 0 subtable" seven.sups
Substitution2: "'subs' Subscript lookup 0 subtable" seven.subs
Substitution2: "'sinf' Scientific Inferiors lookup 0 subtable" seven.sinf
Substitution2: "'tnum' Tabular Numbers in Latin lookup 5-1" seven.tf
Substitution2: "'onum' Oldstyle Figures in Latin lookup 4-1" seven.osf
Substitution2: "'dnom' Denominators lookup 0 subtable" seven.dnom
Substitution2: "'numr' Numerators lookup 0 subtable" seven.numr
EndChar

StartChar: eight
Encoding: 56 56 35
Width: 557
Flags: HW
LayerCount: 2
Fore
SplineSet
194.552734375 455.65625 m 0
 194.552734375 428.856445312 219.930664062 404.368164062 278.888671875 404.368164062 c 0
 337.846679688 404.368164062 363.224609375 427.220703125 363.224609375 455.65625 c 0
 363.224609375 489.091796875 337.846679688 515.944335938 278.888671875 515.944335938 c 0
 219.930664062 515.944335938 194.552734375 489.091796875 194.552734375 455.65625 c 0
61.388671875 474.65625 m 0
 61.388671875 578.49609375 144.44921875 640.559570312 278.888671875 640.559570312 c 0
 413.328125 640.559570312 496.388671875 578.49609375 496.388671875 474.65625 c 0
 496.388671875 360.81640625 413.328125 309.752929688 278.888671875 309.752929688 c 0
 144.44921875 309.752929688 61.388671875 362.452148438 61.388671875 474.65625 c 0
170.848632812 202 m 0
 170.848632812 160 200.046875 125.90234375 278.888671875 125.90234375 c 0
 357.73046875 125.90234375 385.928710938 158.182617188 385.928710938 202 c 0
 385.928710938 235.817382812 357.73046875 272.09765625 278.888671875 272.09765625 c 0
 200.046875 272.09765625 170.848632812 235.817382812 170.848632812 202 c 0
35 184 m 0
 35 301.599609375 127.2890625 360.559570312 278.888671875 360.559570312 c 0
 430.48828125 360.559570312 522.77734375 301.599609375 522.77734375 184 c 0
 522.77734375 66.400390625 430.48828125 -12.5595703125 278.888671875 -12.5595703125 c 0
 127.2890625 -12.5595703125 35 68.2177734375 35 184 c 0
EndSplineSet
Substitution2: "'frac' Diagonal Fractions in Latin lookup 22 subtable" eight.numr
Substitution2: "'sups' Superscript lookup 0 subtable" eight.sups
Substitution2: "'subs' Subscript lookup 0 subtable" eight.subs
Substitution2: "'sinf' Scientific Inferiors lookup 0 subtable" eight.sinf
Substitution2: "'tnum' Tabular Numbers in Latin lookup 5-1" eight.tf
Substitution2: "'onum' Oldstyle Figures in Latin lookup 4-1" eight.osf
Substitution2: "'dnom' Denominators lookup 0 subtable" eight.dnom
Substitution2: "'numr' Numerators lookup 0 subtable" eight.numr
EndChar

StartChar: nine
Encoding: 57 57 36
Width: 580
Flags: HW
HStem: -12.5596 138.462<94.3958 336.87> 230.239 121.842<203.95 343.268> 502 138.56<209.369 343.524>
VStem: 35 147<375.524 473.843> 408.151 136.849<199.571 414.622>
LayerCount: 2
Fore
SplineSet
276.677734375 502 m 0
 217.826171875 502 182 472.065429688 182 422.081054688 c 0
 182 385 201.293945312 352.081054688 276 352.081054688 c 0
 345 352.081054688 370 380.544921875 370 420.081054688 c 0
 370 478.276367188 327 502 276.677734375 502 c 0
408.140625 317.645507812 m 1
 408.140625 317.645507812 376 230.239257812 262 230.239257812 c 0
 114.88671875 230.239257812 35 299 35 434 c 0
 35 541.859375 120.110351562 640.559570312 281.111328125 640.559570312 c 0
 452.7109375 640.559570312 545 511.599609375 545 314 c 0
 545 116.400390625 452.7109375 -12.5595703125 261.111328125 -12.5595703125 c 0
 150.4140625 -12.5595703125 83.326171875 9.4755859375 83.326171875 9.4755859375 c 1
 96.041015625 146.905273438 l 1
 96.041015625 146.905273438 149.993164062 125.90234375 241.111328125 125.90234375 c 0
 379.953125 125.90234375 408.151367188 207 408.151367188 314 c 0
 408.151367188 315.22265625 408.140625 317.645507812 408.140625 317.645507812 c 1
EndSplineSet
Substitution2: "'salt' Stylistic Alternatives in Latin lookup 3-1" nine.salt
Substitution2: "'frac' Diagonal Fractions in Latin lookup 22 subtable" nine.numr
Substitution2: "'ss03' Style Set 3 lookup 11-1" nine.salt
Substitution2: "'sups' Superscript lookup 0 subtable" nine.sups
Substitution2: "'subs' Subscript lookup 0 subtable" nine.subs
Substitution2: "'sinf' Scientific Inferiors lookup 0 subtable" nine.sinf
Substitution2: "'tnum' Tabular Numbers in Latin lookup 5-1" nine.tf
Substitution2: "'onum' Oldstyle Figures in Latin lookup 4-1" nine.osf
Substitution2: "'dnom' Denominators lookup 0 subtable" nine.dnom
Substitution2: "'numr' Numerators lookup 0 subtable" nine.numr
EndChar

StartChar: period
Encoding: 46 46 37
Width: 247
Flags: HW
LayerCount: 2
Fore
SplineSet
35 91.5625 m 0
 35 149.181640625 73.57421875 186.787109375 123.612304688 186.787109375 c 0
 173.651367188 186.787109375 212.2265625 149.181640625 212.2265625 91.5625 c 0
 212.2265625 33.9423828125 173.651367188 -3.662109375 123.612304688 -3.662109375 c 0
 73.57421875 -3.662109375 35 33.9423828125 35 91.5625 c 0
EndSplineSet
EndChar

StartChar: comma
Encoding: 44 44 38
Width: 247
Flags: HW
LayerCount: 2
Fore
SplineSet
35 91.5625 m 0
 35 149.181640625 73.57421875 186.787109375 123.612304688 186.787109375 c 0
 173.65234375 186.787109375 212.227539062 149.181640625 212.227539062 91.5625 c 0
 212.227539062 10.7900390625 118.834960938 -86.0224609375 118.834960938 -86.0224609375 c 1
 53.9541015625 -47.3857421875 l 1
 106.624023438 0.6298828125 l 1
 59.59765625 5.107421875 35 45.5498046875 35 91.5625 c 0
EndSplineSet
EndChar

StartChar: colon
Encoding: 58 58 39
Width: 247
Flags: HW
LayerCount: 2
Fore
SplineSet
35 332.1328125 m 4
 35 389.752929688 73.57421875 427.357421875 123.612304688 427.357421875 c 4
 173.651367188 427.357421875 212.2265625 389.752929688 212.2265625 332.1328125 c 4
 212.2265625 274.512695312 173.651367188 236.907226562 123.612304688 236.907226562 c 4
 73.57421875 236.907226562 35 274.512695312 35 332.1328125 c 4
35 91.5625 m 0
 35 149.181640625 73.57421875 186.787109375 123.612304688 186.787109375 c 0
 173.651367188 186.787109375 212.2265625 149.181640625 212.2265625 91.5625 c 0
 212.2265625 33.9423828125 173.651367188 -3.662109375 123.612304688 -3.662109375 c 0
 73.57421875 -3.662109375 35 33.9423828125 35 91.5625 c 0
EndSplineSet
EndChar

StartChar: semicolon
Encoding: 59 59 40
Width: 248
Flags: HW
LayerCount: 2
Fore
SplineSet
35 91.5625 m 0
 35 149.181640625 73.57421875 186.787109375 123.612304688 186.787109375 c 0
 173.65234375 186.787109375 212.227539062 149.181640625 212.227539062 91.5625 c 4
 212.227539062 10.7900390625 118.834960938 -86.0224609375 118.834960938 -86.0224609375 c 1
 53.9541015625 -47.3857421875 l 1
 106.624023438 0.6298828125 l 1
 59.59765625 5.107421875 35 45.5498046875 35 91.5625 c 0
36 332.1328125 m 0
 36 389.752929688 74.57421875 427.357421875 124.612304688 427.357421875 c 0
 174.65234375 427.357421875 213.227539062 389.752929688 213.227539062 332.1328125 c 0
 213.227539062 274.512695312 174.65234375 236.907226562 124.612304688 236.907226562 c 0
 74.57421875 236.907226562 36 274.512695312 36 332.1328125 c 0
EndSplineSet
EndChar

StartChar: exclam
Encoding: 33 33 41
Width: 247
Flags: HW
LayerCount: 2
Fore
SplineSet
72 230 m 5
 52 628 l 5
 194 628 l 5
 174 230 l 5
 72 230 l 5
35 91.5625 m 0
 35 149.181640625 73.57421875 186.787109375 123.612304688 186.787109375 c 0
 173.651367188 186.787109375 212.2265625 149.181640625 212.2265625 91.5625 c 0
 212.2265625 33.9423828125 173.651367188 -3.662109375 123.612304688 -3.662109375 c 0
 73.57421875 -3.662109375 35 33.9423828125 35 91.5625 c 0
EndSplineSet
EndChar

StartChar: question
Encoding: 63 63 42
Width: 544
Flags: HW
LayerCount: 2
Fore
SplineSet
210.22265625 368 m 1
 210.22265625 368 367.151367188 340.182617188 367.151367188 434 c 0
 367.151367188 487.817382812 328.953125 502.09765625 250.111328125 502.09765625 c 0
 168.993164062 502.09765625 78.330078125 460 78.330078125 460 c 1
 35 592 l 1
 35 592 139.4140625 640.559570312 250.111328125 640.559570312 c 0
 401.7109375 640.559570312 509.111328125 563.654296875 509.111328125 446.0546875 c 0
 509.111328125 328.455078125 398.22265625 262 260.22265625 283 c 0
 210.22265625 368 l 1
205.22265625 230 m 1
 210.22265625 368 l 1
 302.22265625 321 l 1
 307.22265625 230 l 1
 205.22265625 230 l 1
168.22265625 91.5625 m 0
 168.22265625 149.181640625 206.796875 186.787109375 256.834960938 186.787109375 c 0
 306.874023438 186.787109375 345.44921875 149.181640625 345.44921875 91.5625 c 0
 345.44921875 33.9423828125 306.874023438 -3.662109375 256.834960938 -3.662109375 c 0
 206.796875 -3.662109375 168.22265625 33.9423828125 168.22265625 91.5625 c 0
EndSplineSet
EndChar

StartChar: at
Encoding: 64 64 43
Width: 677
Flags: HW
HStem: -72.5596 119.652<264.09 508.901> 127.5 103.407<475.807 524.627> 127.5 89.0244<308.146 366.431> 291.668 89.0244<308.146 374.462> 471.907 108.652<255.792 449.289>
VStem: 35 115.145<158.486 364.214> 194.416 111.485<218.212 289.981> 532.633 110.145<233.891 393.073>
LayerCount: 2
Fore
SplineSet
341.513671875 214.983398438 m 0xbf
 365 214.983398438 376.596679688 237.357421875 376.596679688 258.8671875 c 0
 376.596679688 279 368 292.0234375 349.37890625 292.0234375 c 0
 326.071289062 292.0234375 313.936523438 271 313.936523438 248.16015625 c 0
 313.936523438 226.650390625 322.205078125 214.983398438 341.513671875 214.983398438 c 0xbf
312.844726562 127.09765625 m 0
 244.080078125 127.09765625 202.909179688 172.65625 202.909179688 253.995117188 c 0
 202.909179688 334 261.234375 381 330 381 c 0
 411.65234375 381 427.373046875 311 427.373046875 246.198242188 c 0
 427.373046875 175.90625 379 127.09765625 312.844726562 127.09765625 c 0
358.888671875 -72.5595703125 m 0
 167.2890625 -72.5595703125 35 56.400390625 35 254 c 0
 35 451.599609375 177.2890625 580.559570312 348.888671875 580.559570312 c 0
 520.48828125 580.559570312 642.77734375 481.599609375 642.77734375 324 c 0
 642.77734375 224.541992188 608.510742188 127.5 505.111328125 127.5 c 0
 399.129882812 127.5 341.333984375 235.982421875 402.435546875 377.939453125 c 1
 488.7421875 377.939453125 l 1
 453.303710938 268.162109375 475.424804688 230.907226562 500.111328125 230.907226562 c 0xdf
 520.611328125 230.907226562 532.6328125 254.734375 532.6328125 303.5 c 0
 532.6328125 416.69921875 458.614257812 471.907226562 349.888671875 471.907226562 c 0
 241.163085938 471.907226562 150.14453125 399.19921875 150.14453125 264 c 0
 150.14453125 128.80078125 230.163085938 47.0927734375 371.888671875 47.0927734375 c 0
 526.614257812 47.0927734375 582.123046875 102.951171875 582.123046875 102.951171875 c 1
 628.47265625 -11.8828125 l 1
 628.47265625 -11.8828125 520.48828125 -72.5595703125 358.888671875 -72.5595703125 c 0
EndSplineSet
Substitution2: "'case' Case-Sensitive Forms in Latin lookup 6-1" at.case
EndChar

StartChar: a
Encoding: 97 97 44
Width: 497
Flags: HW
HStem: -10.0479 136.865<198.478 301.698> 0 21G<321.622 462.222> 295.582 136.865<198.478 301.698> 402.4 20G<321.622 462.222>
VStem: 35 144.206<145.746 276.654> 321.622 140.6<211.2 422.4> 321.622 43.5996<63.1201 359.279>
LayerCount: 2
Fore
SplineSet
250.111328125 295.58203125 m 0xa8
 210.852539062 295.58203125 179.206054688 274.04296875 179.206054688 211.200195312 c 0
 179.206054688 148.357421875 210.852539062 126.817382812 250.111328125 126.817382812 c 0
 289.370117188 126.817382812 321.016601562 148.357421875 321.016601562 211.200195312 c 0
 321.016601562 274.04296875 289.370117188 295.58203125 250.111328125 295.58203125 c 0xa8
220.111328125 -10.0478515625 m 0
 106.831054688 -10.0478515625 35 63.1201171875 35 211.200195312 c 0
 35 359.279296875 106.831054688 432.447265625 220.111328125 432.447265625 c 0
 333.391601562 432.447265625 365.221679688 359.279296875 365.221679688 211.200195312 c 0xaa
 365.221679688 63.1201171875 333.391601562 -10.0478515625 220.111328125 -10.0478515625 c 0
462.221679688 0 m 1x5c
 321.622070312 0 l 1x5a
 321.622070312 422.400390625 l 1
 462.221679688 422.400390625 l 1
 462.221679688 0 l 1x5c
EndSplineSet
Substitution2: "'ss01' Style Set 1 lookup 9-1" a.salt
Substitution2: "'salt' Stylistic Alternatives in Latin lookup 3-1" a.salt
EndChar

StartChar: o
Encoding: 111 111 45
Width: 500
Flags: W
HStem: -10.0479 136.865<197.893 302.33> 295.582 136.865<197.893 302.33>
VStem: 35 144.206<145.746 276.654> 321.017 144.206<145.746 276.654>
LayerCount: 2
Fore
SplineSet
250.111328125 -10.0478515625 m 0
 136.831054688 -10.0478515625 35 63.1201171875 35 211.200195312 c 0
 35 359.279296875 136.831054688 432.447265625 250.111328125 432.447265625 c 0
 363.391601562 432.447265625 465.22265625 359.279296875 465.22265625 211.200195312 c 0
 465.22265625 63.1201171875 363.391601562 -10.0478515625 250.111328125 -10.0478515625 c 0
250.111328125 295.58203125 m 0
 210.852539062 295.58203125 179.206054688 274.04296875 179.206054688 211.200195312 c 0
 179.206054688 148.357421875 210.852539062 126.817382812 250.111328125 126.817382812 c 0
 289.370117188 126.817382812 321.016601562 148.357421875 321.016601562 211.200195312 c 0
 321.016601562 274.04296875 289.370117188 295.58203125 250.111328125 295.58203125 c 0
EndSplineSet
EndChar

StartChar: i
Encoding: 105 105 46
Width: 227
Flags: HW
LayerCount: 2
Fore
SplineSet
35 571.5625 m 0
 35 609.181640625 53.57421875 646.787109375 113.612304688 646.787109375 c 0
 173.651367188 646.787109375 192.2265625 609.181640625 192.2265625 571.5625 c 0
 192.2265625 533.942382812 173.651367188 496.337890625 113.612304688 496.337890625 c 0
 53.57421875 496.337890625 35 533.942382812 35 571.5625 c 0
44.11328125 0 m 5
 44.11328125 422.400390625 l 5
 184.712890625 422.400390625 l 5
 184.712890625 0 l 5
 44.11328125 0 l 5
EndSplineSet
EndChar

StartChar: l
Encoding: 108 108 47
Width: 310
Flags: HW
HStem: -10.041 137.366<184.167 266.964> 625.4 20G<35.1064 175.711>
VStem: 35 140.711<137.173 645.4>
LayerCount: 2
Fore
SplineSet
175.7109375 645.400390625 m 1
 175.7109375 180.400390625 l 2
 175.7109375 131.557617188 213.852539062 127.325195312 233.111328125 127.325195312 c 0
 252.220703125 127.325195312 266.111328125 136 266.111328125 136 c 1
 275.111328125 2.3115234375 l 1
 275.111328125 2.3115234375 254.2734375 -10.041015625 215.111328125 -10.041015625 c 0
 121.831054688 -10.041015625 35 33.126953125 35 191.206054688 c 2
 35.111328125 645.400390625 l 1
 175.7109375 645.400390625 l 1
EndSplineSet
Substitution2: "'ss02' Style Set 2 lookup 10-1" l.salt
Substitution2: "'salt' Stylistic Alternatives in Latin lookup 3-1" l.salt
EndChar

StartChar: j
Encoding: 106 106 48
Width: 227
Flags: HW
LayerCount: 2
Fore
SplineSet
35 571.5625 m 4
 35 609.181640625 53.57421875 646.787109375 113.612304688 646.787109375 c 4
 173.651367188 646.787109375 192.2265625 609.181640625 192.2265625 571.5625 c 4
 192.2265625 533.942382812 173.651367188 496.337890625 113.612304688 496.337890625 c 4
 53.57421875 496.337890625 35 533.942382812 35 571.5625 c 4
44.11328125 422.400390625 m 5
 184.712890625 422.400390625 l 5
 184.712890625 5.376953125 l 6
 184.712890625 -152.702148438 82.8818359375 -215.870117188 -30.3984375 -215.870117188 c 4
 -77.560546875 -215.870117188 -94.2431640625 -209 -94.2431640625 -209 c 5
 -84.482421875 -70.501953125 l 5
 -84.482421875 -70.501953125 -67.5078125 -79.0048828125 -30.3984375 -79.0048828125 c 4
 8.8603515625 -79.0048828125 44.11328125 -67.4658203125 44.11328125 5.376953125 c 6
 44.11328125 422.400390625 l 5
EndSplineSet
EndChar

StartChar: b
Encoding: 98 98 49
Width: 502
Flags: HW
LayerCount: 2
Fore
SplineSet
282.110351562 -10.0478515625 m 0
 168.830078125 -10.0478515625 137 63.1201171875 137 211.200195312 c 0
 137 359.279296875 168.830078125 432.447265625 282.110351562 432.447265625 c 0
 395.390625 432.447265625 467.221679688 359.279296875 467.221679688 211.200195312 c 0
 467.221679688 63.1201171875 395.390625 -10.0478515625 282.110351562 -10.0478515625 c 0
252.110351562 295.58203125 m 0
 212.8515625 295.58203125 181.205078125 274.04296875 181.205078125 211.200195312 c 0
 181.205078125 148.357421875 212.8515625 126.817382812 252.110351562 126.817382812 c 0
 291.369140625 126.817382812 323.015625 148.357421875 323.015625 211.200195312 c 0
 323.015625 274.04296875 291.369140625 295.58203125 252.110351562 295.58203125 c 0
35 0 m 1
 35 645.400390625 l 5
 175.599609375 645.400390625 l 5
 175.599609375 85 l 1
 165.599609375 0 l 1
 35 0 l 1
EndSplineSet
Substitution2: "'ss06' Style Set 6 lookup 14-1" b.salt
Substitution2: "'salt' Stylistic Alternatives in Latin lookup 3-1" b.salt
EndChar

StartChar: t
Encoding: 116 116 50
Width: 433
Flags: W
HStem: -10.0479 136.865<256.525 390.096> 290.4 132<35 353>
VStem: 100 140.6<143.36 538.223>
LayerCount: 2
Fore
SplineSet
353 422.400390625 m 1
 353 290.400390625 l 1
 35 290.400390625 l 1
 35 422.400390625 l 1
 353 422.400390625 l 1
240.599609375 558.22265625 m 5
 240.599609375 201.19921875 l 6
 240.599609375 138.356445312 275.852539062 126.817382812 315.111328125 126.817382812 c 4
 352.220703125 126.817382812 389.1953125 140.3203125 389.1953125 140.3203125 c 5
 398.956054688 2.822265625 l 5
 398.956054688 2.822265625 372.2734375 -10.0478515625 315.111328125 -10.0478515625 c 4
 201.831054688 -10.0478515625 100 33.1201171875 100 191.19921875 c 6
 100 538.22265625 l 5
 240.599609375 558.22265625 l 5
EndSplineSet
Substitution2: "'ss09' Style Set 9 lookup 17-1" t.salt
Substitution2: "'salt' Stylistic Alternatives in Latin lookup 3-1" t.salt
EndChar

StartChar: c
Encoding: 99 99 51
Width: 438
Flags: HW
LayerCount: 2
Fore
SplineSet
35 211.200195312 m 4
 35 359.279296875 136.831054688 432.447265625 270.111328125 432.447265625 c 4
 347.2734375 432.447265625 393.956054688 409.577148438 393.956054688 409.577148438 c 5
 384.1953125 272.079101562 l 5
 384.1953125 272.079101562 327.220703125 295.58203125 270.111328125 295.58203125 c 4
 210.852539062 295.58203125 179.206054688 274.04296875 179.206054688 211.200195312 c 4
 179.206054688 148.357421875 210.852539062 126.817382812 270.111328125 126.817382812 c 4
 325.465820312 126.817382812 382 148 382 148 c 1
 403.404296875 12.552734375 l 1
 403.404296875 12.552734375 347.0546875 -10.0478515625 250.111328125 -10.0478515625 c 4
 156.831054688 -10.0478515625 35 63.1201171875 35 211.200195312 c 4
EndSplineSet
EndChar

StartChar: d
Encoding: 100 100 52
Width: 522
Flags: HW
LayerCount: 2
Fore
SplineSet
250.111328125 295.58203125 m 0
 210.852539062 295.58203125 179.206054688 274.04296875 179.206054688 211.200195312 c 0
 179.206054688 148.357421875 210.852539062 126.817382812 250.111328125 126.817382812 c 0
 289.370117188 126.817382812 321.016601562 148.357421875 321.016601562 211.200195312 c 0
 321.016601562 274.04296875 289.370117188 295.58203125 250.111328125 295.58203125 c 0
220.111328125 -10.0478515625 m 0
 106.831054688 -10.0478515625 35 63.1201171875 35 211.200195312 c 0
 35 359.279296875 106.831054688 432.447265625 220.111328125 432.447265625 c 0
 333.391601562 432.447265625 365.221679688 359.279296875 365.221679688 211.200195312 c 0
 365.221679688 63.1201171875 333.391601562 -10.0478515625 220.111328125 -10.0478515625 c 0
487.221679688 0 m 5
 336.622070312 0 l 5
 336.622070312 0 326.622070312 31 326.622070312 89 c 6
 326.622070312 645.400390625 l 5
 467.221679688 645.400390625 l 5
 467.221679688 145 l 6
 467.221679688 82 487.221679688 0 487.221679688 0 c 5
EndSplineSet
Substitution2: "'ss06' Style Set 6 lookup 14-1" d.salt
Substitution2: "'salt' Stylistic Alternatives in Latin lookup 3-1" d.salt
EndChar

StartChar: e
Encoding: 101 101 53
Width: 496
Flags: HW
LayerCount: 2
Fore
SplineSet
461.221679688 199 m 5
 327.775390625 170.426757812 196 162 57.2216796875 174 c 5
 57.2216796875 256 l 5
 204 249 295.860351562 259.397460938 373.221679688 281 c 5
 461.221679688 199 l 5
179.206054688 211 m 0
 179.284179688 148.311523438 190.915039062 126.817382812 280.111328125 126.817382812 c 0
 355.465820312 126.817382812 402 148 402 148 c 1
 433.404296875 22.552734375 l 1
 433.404296875 22.552734375 377.0546875 -10.0478515625 260.111328125 -10.0478515625 c 0
 136.873046875 -10.0478515625 35.109375 63.0537109375 35 211 c 0
 34.890625 359.079101562 144.831054688 432.247070312 248.111328125 432.247070312 c 0
 353.390625 432.247070312 461.221679688 357.079101562 461.221679688 199 c 1
 317 199 l 1
 327 288 284.370117188 295.381835938 248.111328125 295.381835938 c 0
 213.852539062 295.381835938 179.206054688 273.842773438 179.206054688 211 c 0
EndSplineSet
Substitution2: "'ss07' Style Set 7 lookup 15-1" e.salt
Substitution2: "'salt' Stylistic Alternatives in Latin lookup 3-1" e.salt
EndChar

StartChar: f
Encoding: 102 102 54
Width: 439
Flags: HW
HStem: 0 21G<106 246.6> 290.4 132<35 353> 531.405 136.865<262.525 396.096>
VStem: 106 140.6<0 511.486>
LayerCount: 2
Fore
SplineSet
353 290.400390625 m 1
 35 290.400390625 l 1
 35 422.400390625 l 1
 353 422.400390625 l 1
 353 290.400390625 l 1
246.599609375 0 m 5
 106 0 l 5
 106 457.0234375 l 6
 106 615.102539062 207.831054688 668.270507812 321.111328125 668.270507812 c 4
 378.2734375 668.270507812 404.956054688 655.400390625 404.956054688 655.400390625 c 5
 395.1953125 517.90234375 l 5
 395.1953125 517.90234375 358.220703125 531.405273438 321.111328125 531.405273438 c 4
 281.852539062 531.405273438 246.599609375 519.866210938 246.599609375 457.0234375 c 6
 246.599609375 0 l 5
EndSplineSet
EndChar

StartChar: p
Encoding: 112 112 55
Width: 502
Flags: HW
LayerCount: 2
Fore
SplineSet
282.110351562 -10.0478515625 m 0
 168.830078125 -10.0478515625 137 63.1201171875 137 211.200195312 c 0
 137 359.279296875 168.830078125 432.447265625 282.110351562 432.447265625 c 0
 395.390625 432.447265625 467.221679688 359.279296875 467.221679688 211.200195312 c 0
 467.221679688 63.1201171875 395.390625 -10.0478515625 282.110351562 -10.0478515625 c 0
252.110351562 295.58203125 m 0
 212.8515625 295.58203125 181.205078125 274.04296875 181.205078125 211.200195312 c 0
 181.205078125 148.357421875 212.8515625 126.817382812 252.110351562 126.817382812 c 0
 291.369140625 126.817382812 323.015625 148.357421875 323.015625 211.200195312 c 0
 323.015625 274.04296875 291.369140625 295.58203125 252.110351562 295.58203125 c 0
35 -193 m 5
 35 422.400390625 l 5
 175.599609375 422.400390625 l 5
 175.599609375 -193 l 5
 35 -193 l 5
EndSplineSet
Substitution2: "'ss06' Style Set 6 lookup 14-1" p.salt
Substitution2: "'salt' Stylistic Alternatives in Latin lookup 3-1" p.salt
EndChar

StartChar: q
Encoding: 113 113 56
Width: 508
Flags: HW
LayerCount: 2
Fore
SplineSet
473.221679688 -193 m 5
 332.622070312 -193 l 5
 332.622070312 -193 326.622070312 -140 326.622070312 -72 c 6
 326.622070312 422.400390625 l 5
 467.221679688 422.400390625 l 5
 467.221679688 -73 l 6
 467.221679688 -146 473.221679688 -193 473.221679688 -193 c 5
250.111328125 295.58203125 m 0
 210.852539062 295.58203125 179.206054688 274.04296875 179.206054688 211.200195312 c 0
 179.206054688 148.357421875 210.852539062 126.817382812 250.111328125 126.817382812 c 0
 289.370117188 126.817382812 321.016601562 148.357421875 321.016601562 211.200195312 c 0
 321.016601562 274.04296875 289.370117188 295.58203125 250.111328125 295.58203125 c 0
220.111328125 -10.0478515625 m 0
 106.831054688 -10.0478515625 35 63.1201171875 35 211.200195312 c 0
 35 359.279296875 106.831054688 432.447265625 220.111328125 432.447265625 c 0
 333.391601562 432.447265625 365.221679688 359.279296875 365.221679688 211.200195312 c 0
 365.221679688 63.1201171875 333.391601562 -10.0478515625 220.111328125 -10.0478515625 c 0
EndSplineSet
Substitution2: "'ss06' Style Set 6 lookup 14-1" q.salt
Substitution2: "'salt' Stylistic Alternatives in Latin lookup 3-1" q.salt
EndChar

StartChar: g
Encoding: 103 103 57
Width: 502
Flags: HW
LayerCount: 2
Fore
SplineSet
250.111328125 295.58203125 m 0
 210.852539062 295.58203125 179.206054688 274.04296875 179.206054688 211.200195312 c 0
 179.206054688 148.357421875 210.852539062 126.817382812 250.111328125 126.817382812 c 0
 289.370117188 126.817382812 321.016601562 148.357421875 321.016601562 211.200195312 c 0
 321.016601562 274.04296875 289.370117188 295.58203125 250.111328125 295.58203125 c 0
220.111328125 -10.0478515625 m 0
 106.831054688 -10.0478515625 35 63.1201171875 35 211.200195312 c 0
 35 359.279296875 106.831054688 432.447265625 220.111328125 432.447265625 c 0
 333.391601562 432.447265625 365.221679688 359.279296875 365.221679688 211.200195312 c 0
 365.221679688 63.1201171875 333.391601562 -10.0478515625 220.111328125 -10.0478515625 c 0
326.622070312 422.400390625 m 1
 467.221679688 422.400390625 l 1
 467.221679688 5.376953125 l 2
 467.221679688 -152.702148438 365.390625 -215.870117188 222.110351562 -215.870117188 c 0
 134.948242188 -215.870117188 98.265625 -193 98.265625 -193 c 1
 118.026367188 -61.501953125 l 1
 118.026367188 -61.501953125 155.000976562 -79.0048828125 222.110351562 -79.0048828125 c 0
 291.369140625 -79.0048828125 326.622070312 -57.4658203125 326.622070312 5.376953125 c 2
 326.622070312 422.400390625 l 1
EndSplineSet
Substitution2: "'ss12' Style Set 12 lookup 27-1" g.salt
Substitution2: "'salt' Stylistic Alternatives in Latin lookup 3-1" g.salt
EndChar

StartChar: n
Encoding: 110 110 58
Width: 500
Flags: HW
LayerCount: 2
Fore
SplineSet
35 0 m 1
 35 422.400390625 l 1
 175.599609375 422.400390625 l 1
 175.599609375 0 l 1
 35 0 l 1
135 218.200195312 m 6
 135 366.279296875 178.831054688 432.447265625 292.111328125 432.447265625 c 4
 387.390625 432.447265625 465.221679688 366.279296875 465.221679688 218.200195312 c 6
 465.221679688 0 l 5
 324.622070312 0 l 5
 324.622070312 218.200195312 l 6
 324.622070312 281.04296875 291.370117188 295.58203125 250.111328125 295.58203125 c 4
 210.852539062 295.58203125 175.599609375 281.04296875 175.599609375 218.200195312 c 6
 175.599609375 0 l 5
 135 0 l 5
 135 218.200195312 l 6
EndSplineSet
EndChar

StartChar: h
Encoding: 104 104 59
Width: 500
Flags: HW
LayerCount: 2
Fore
SplineSet
35 0 m 1
 35 645.400390625 l 1
 175.599609375 645.400390625 l 1
 175.599609375 0 l 1
 35 0 l 1
135 218.200195312 m 2
 135 366.279296875 178.831054688 432.447265625 292.111328125 432.447265625 c 4
 387.390625 432.447265625 465.221679688 366.279296875 465.221679688 218.200195312 c 2
 465.221679688 0 l 1
 324.622070312 0 l 1
 324.622070312 218.200195312 l 2
 324.622070312 281.04296875 291.370117188 295.58203125 250.111328125 295.58203125 c 0
 210.852539062 295.58203125 175.599609375 281.04296875 175.599609375 218.200195312 c 2
 175.599609375 0 l 1
 135 0 l 1
 135 218.200195312 l 2
EndSplineSet
EndChar

StartChar: k
Encoding: 107 107 60
Width: 544
Flags: HW
LayerCount: 2
Fore
SplineSet
35 0 m 1
 35 645.400390625 l 5
 175.599609375 645.400390625 l 5
 175.599609375 0 l 1
 35 0 l 1
499 422.400390625 m 1
 125 53 l 0
 65 124 l 1
 317 422.400390625 l 1
 499 422.400390625 l 1
509 0 m 1
 327 0 l 1
 182 226 l 1
 271 279 l 1
 509 0 l 1
EndSplineSet
EndChar

StartChar: m
Encoding: 109 109 61
Width: 749
Flags: HW
HStem: 0 21G<35 175.6 304.622 445.222 574.244 714.844> 295.582 136.865<199.179 289.798 461.759 559.42> 402.4 20G<35 175.6>
VStem: 35 140.6<0 422.4> 135 40.5996<0 366.279> 304.622 140.6<0 281.043> 364.622 80.5996<0 366.279> 574.244 140.6<0 281.511>
LayerCount: 2
Fore
SplineSet
364.622070312 218.200195312 m 2xc3
 364.622070312 366.279296875 448.453125 432.447265625 551.733398438 432.447265625 c 0
 637.012695312 432.447265625 714.84375 366.279296875 714.84375 218.200195312 c 2
 714.84375 0 l 1
 574.244140625 0 l 1
 574.244140625 218.200195312 l 2
 574.244140625 281.04296875 540.9921875 295.58203125 509.733398438 295.58203125 c 0
 480.474609375 295.58203125 445.221679688 281.04296875 445.221679688 218.200195312 c 2
 445.221679688 0 l 1xc5
 364.622070312 0 l 1
 364.622070312 218.200195312 l 2xc3
35 0 m 1xb1
 35 422.400390625 l 1
 175.599609375 422.400390625 l 1
 175.599609375 0 l 1
 35 0 l 1xb1
135 218.200195312 m 2xc9
 135 366.279296875 178.831054688 432.447265625 282.111328125 432.447265625 c 0
 367.390625 432.447265625 445.221679688 366.279296875 445.221679688 218.200195312 c 2
 445.221679688 0 l 1
 304.622070312 0 l 1
 304.622070312 218.200195312 l 2
 304.622070312 281.04296875 271.370117188 295.58203125 240.111328125 295.58203125 c 0
 210.852539062 295.58203125 175.599609375 281.04296875 175.599609375 218.200195312 c 2
 175.599609375 0 l 1xd5
 135 0 l 1
 135 218.200195312 l 2xc9
EndSplineSet
EndChar

StartChar: s
Encoding: 115 115 62
Width: 448
Flags: HW
LayerCount: 2
Fore
SplineSet
232.844726562 268.391601562 m 0
 345.30859375 242.75 413.956054688 211.223632812 413.956054688 133.143554688 c 0
 413.956054688 25.064453125 322.125 -8.103515625 188.844726562 -8.103515625 c 0
 111.682617188 -8.103515625 35 14.7666015625 35 14.7666015625 c 1
 54.7607421875 142.264648438 l 1
 54.7607421875 142.264648438 131.735351562 118.76171875 188.844726562 118.76171875 c 0
 248.103515625 118.76171875 267.75 126.30078125 267.75 143.143554688 c 0
 267.75 157.986328125 243.374023438 162.83984375 222.844726562 167.526367188 c 0
 133.5 187.921875 44.8447265625 209.120117188 44.8447265625 303.200195312 c 0
 44.8447265625 401.279296875 136.67578125 432.447265625 249.956054688 432.447265625 c 0
 347.118164062 432.447265625 401.844726562 404 401.844726562 404 c 1
 379.844726562 288 l 1
 379.844726562 288 337.065429688 305.58203125 269.956054688 305.58203125 c 0
 203.697265625 305.58203125 189.844726562 299.842773438 189.844726562 289 c 0
 189.844726562 279.157226562 199.287109375 276.04296875 232.844726562 268.391601562 c 0
EndSplineSet
EndChar

StartChar: r
Encoding: 114 114 63
Width: 385
Flags: HW
LayerCount: 2
Fore
SplineSet
35 0 m 1
 35 422.400390625 l 1
 175.599609375 422.400390625 l 1
 175.599609375 0 l 1
 35 0 l 1
350.111328125 422.440429688 m 5
 331 282 l 5
 331 282 304.849609375 295.58203125 270.111328125 295.58203125 c 4
 230.852539062 295.58203125 175.599609375 281.04296875 175.599609375 178.200195312 c 6
 175.599609375 0 l 5
 135 0 l 5
 135 218.200195312 l 6
 135 360.513671875 190 432.440429688 280.111328125 432.440429688 c 4
 323.805675237 432.440429688 350.111328125 422.440429688 350.111328125 422.440429688 c 5
EndSplineSet
EndChar

StartChar: u
Encoding: 117 117 64
Width: 520
Flags: HW
LayerCount: 2
Fore
SplineSet
485.221679688 0 m 5
 334.622070312 0 l 5
 334.622070312 0 324.622070312 31 324.622070312 89 c 6
 324.622070312 422.400390625 l 5
 465.221679688 422.400390625 l 5
 465.221679688 145 l 6
 465.221679688 82 485.221679688 0 485.221679688 0 c 5
365.221679688 204.200195312 m 6
 365.221679688 56.12109375 321.390625 -10.046875 208.110351562 -10.046875 c 0
 112.831054688 -10.046875 35 56.12109375 35 204.200195312 c 2
 35 422.400390625 l 1
 175.599609375 422.400390625 l 1
 175.599609375 204.200195312 l 2
 175.599609375 141.357421875 208.8515625 126.818359375 250.110351562 126.818359375 c 0
 289.369140625 126.818359375 324.622070312 141.357421875 324.622070312 204.200195312 c 6
 324.622070312 422.400390625 l 5
 365.221679688 422.400390625 l 5
 365.221679688 204.200195312 l 6
EndSplineSet
Substitution2: "'ss10' Style Set 10 lookup 18-1" u.salt
Substitution2: "'salt' Stylistic Alternatives in Latin lookup 3-1" u.salt
EndChar

StartChar: v
Encoding: 118 118 65
Width: 530
Flags: HW
LayerCount: 2
Fore
SplineSet
335.599609375 0 m 1
 215 0 l 1
 345 422.400390625 l 1
 495.599609375 422.400390625 l 1
 335.599609375 0 l 1
195 0 m 1
 35 422.400390625 l 1
 185.599609375 422.400390625 l 1
 315.599609375 0 l 1
 195 0 l 1
EndSplineSet
EndChar

StartChar: w
Encoding: 119 119 66
Width: 760
Flags: HW
LayerCount: 2
Fore
SplineSet
595.599609375 0 m 1
 475 0 l 1
 575 422.400390625 l 5
 725.599609375 422.400390625 l 5
 595.599609375 0 l 1
455 0 m 1
 325 422.400390625 l 5
 455.599609375 422.400390625 l 5
 575.599609375 0 l 1
 455 0 l 1
305.599609375 0 m 1
 185 0 l 1
 305 422.400390625 l 5
 435.599609375 422.400390625 l 5
 305.599609375 0 l 1
165 0 m 1
 35 422.400390625 l 5
 185.599609375 422.400390625 l 5
 285.599609375 0 l 1
 165 0 l 1
EndSplineSet
EndChar

StartChar: x
Encoding: 120 120 67
Width: 541
VWidth: 999
Flags: W
HStem: 0 21G<35 197.977 342.023 506> 403 20G<45 207.397 340.95 506>
LayerCount: 2
Fore
SplineSet
185 0 m 1
 35 0 l 1
 270 302 l 5
 355 423 l 1
 506 423 l 1
 270 131 l 5
 185 0 l 1
355 0 m 1
 270 131 l 5
 45 423 l 1
 195 423 l 1
 270 302 l 5
 506 0 l 1
 355 0 l 1
EndSplineSet
EndChar

StartChar: y
Encoding: 121 121 68
Width: 530
Flags: HW
HStem: 0 21G<187.425 295.6> 402.4 20G<35 191.067 338.787 495.6>
LayerCount: 2
Fore
SplineSet
195 0 m 1
 35 422.400390625 l 1
 185.599609375 422.400390625 l 1
 295.599609375 20 l 1
 195 0 l 1
345 422.400390625 m 5
 495.599609375 422.400390625 l 1
 436.643554688 269 l 2
 280.893554688 -136.252929688 180.48828125 -215.870117188 180.48828125 -215.870117188 c 1
 76.6435546875 -131 l 1
 76.6435546875 -131 208.239257812 -17.806640625 288.643554688 241 c 6
 345 422.400390625 l 5
EndSplineSet
Substitution2: "'ss04' Style Set 4 lookup 12-1" y.salt
Substitution2: "'salt' Stylistic Alternatives in Latin lookup 3-1" y.salt
EndChar

StartChar: z
Encoding: 122 122 69
Width: 428
Flags: HW
LayerCount: 2
Fore
SplineSet
393 0 m 1
 35 0 l 5
 35 132 l 5
 393 132 l 1
 393 0 l 1
393 290.400390625 m 1
 35 290.400390625 l 5
 35 422.400390625 l 5
 393 422.400390625 l 1
 393 290.400390625 l 1
35 132 m 5
 221 290.400390625 l 1
 393 290.400390625 l 1
 197 132 l 1
 35 132 l 5
EndSplineSet
EndChar

StartChar: parenleft
Encoding: 40 40 70
Width: 333
Flags: HW
HStem: -112.56 138.462<231.236 298.888> 562.098 138.462<231.236 298.888>
VStem: 35 136.849<101.916 486.084>
LayerCount: 2
Fore
SplineSet
298.888671875 25.90234375 m 1
 298.888671875 -112.559570312 l 1
 127.2890625 -112.559570312 35 16.400390625 35 294 c 0
 35 571.599609375 127.2890625 700.559570312 298.888671875 700.559570312 c 1
 298.888671875 562.09765625 l 1
 200.046875 562.09765625 171.848632812 487.817382812 171.848632812 294 c 0
 171.848632812 100.182617188 200.046875 25.90234375 298.888671875 25.90234375 c 1
EndSplineSet
Substitution2: "'case' Case-Sensitive Forms in Latin lookup 6-1" parenleft.case
EndChar

StartChar: parenright
Encoding: 41 41 71
Width: 333
Flags: HW
HStem: -112.56 138.462<35 102.652> 562.098 138.462<35 102.652>
VStem: 162.04 136.849<101.916 486.084>
LayerCount: 2
Fore
SplineSet
35 25.90234375 m 1
 133.841796875 25.90234375 162.040039062 100.182617188 162.040039062 294 c 0
 162.040039062 487.817382812 133.841796875 562.09765625 35 562.09765625 c 1
 35 700.559570312 l 1
 206.599609375 700.559570312 298.888671875 571.599609375 298.888671875 294 c 0
 298.888671875 16.400390625 206.599609375 -112.559570312 35 -112.559570312 c 1
 35 25.90234375 l 1
EndSplineSet
Substitution2: "'case' Case-Sensitive Forms in Latin lookup 6-1" parenright.case
EndChar

StartChar: parenleft.case
Encoding: 65536 -1 72
Width: 333
Flags: HW
HStem: -102.56 138.462<231.236 298.888> 572.098 138.462<231.236 298.888>
VStem: 35 136.849<111.916 496.084>
LayerCount: 2
Fore
SplineSet
298.888671875 35.90234375 m 1
 298.888671875 -102.559570312 l 1
 127.2890625 -102.559570312 35 26.400390625 35 304 c 0
 35 581.599609375 127.2890625 710.559570312 298.888671875 710.559570312 c 1
 298.888671875 572.09765625 l 1
 200.046875 572.09765625 171.848632812 497.817382812 171.848632812 304 c 0
 171.848632812 110.182617188 200.046875 35.90234375 298.888671875 35.90234375 c 1
EndSplineSet
EndChar

StartChar: parenright.case
Encoding: 65537 -1 73
Width: 333
Flags: HW
HStem: -102.56 138.462<35 102.652> 572.098 138.462<35 102.652>
VStem: 162.04 136.849<111.916 496.084>
LayerCount: 2
Fore
SplineSet
35 35.90234375 m 1
 133.841796875 35.90234375 162.040039062 110.182617188 162.040039062 304 c 0
 162.040039062 497.817382812 133.841796875 572.09765625 35 572.09765625 c 1
 35 710.559570312 l 1
 206.599609375 710.559570312 298.888671875 581.599609375 298.888671875 304 c 0
 298.888671875 26.400390625 206.599609375 -102.559570312 35 -102.559570312 c 1
 35 35.90234375 l 1
EndSplineSet
EndChar

StartChar: hyphen
Encoding: 45 45 74
Width: 308
Flags: HW
HStem: 147.4 132<35 273>
VStem: 35 238<147.4 279.4>
LayerCount: 2
Fore
SplineSet
273 147.400390625 m 1
 35 147.400390625 l 1
 35 279.400390625 l 1
 273 279.400390625 l 1
 273 147.400390625 l 1
EndSplineSet
Substitution2: "'case' Case-Sensitive Forms in Latin lookup 6-1" hyphen.case
EndChar

StartChar: slash
Encoding: 47 47 75
Width: 452
Flags: HW
LayerCount: 2
Fore
SplineSet
35 -75 m 5
 275 713 l 5
 417 703 l 5
 177 -85 l 5
 35 -75 l 5
EndSplineSet
Substitution2: "'frac' Diagonal Fractions in Latin lookup 21 subtable" fraction
EndChar

StartChar: backslash
Encoding: 92 92 76
Width: 452
Flags: HW
LayerCount: 2
Fore
SplineSet
417 -75 m 5
 275 -85 l 5
 35 703 l 5
 177 713 l 5
 417 -75 l 5
EndSplineSet
EndChar

StartChar: bracketleft
Encoding: 91 91 77
Width: 334
Flags: HW
HStem: -112.56 138.462<177 299> 562.098 138.462<177 299>
VStem: 35 264<-112.56 25.9023 562.098 700.56> 35 142<25.9023 562.098>
LayerCount: 2
Fore
SplineSet
177 25.90234375 m 1xd0
 299 25.90234375 l 1
 299 -112.559570312 l 1
 35 -112.559570312 l 1
 35 700.559570312 l 1
 299 700.559570312 l 1
 299 562.09765625 l 1xe0
 177 562.09765625 l 1
 177 25.90234375 l 1xd0
EndSplineSet
Substitution2: "'case' Case-Sensitive Forms in Latin lookup 6-1" bracketleft.case
EndChar

StartChar: bracketright
Encoding: 93 93 78
Width: 334
Flags: HW
HStem: -112.56 138.462<35 157> 562.098 138.462<35 157>
VStem: 35 264<-112.56 25.9023 562.098 700.56> 157 142<25.9023 562.098>
LayerCount: 2
Fore
SplineSet
157 25.90234375 m 1xd0
 157 562.09765625 l 1xd0
 35 562.09765625 l 1
 35 700.559570312 l 1
 299 700.559570312 l 1
 299 -112.559570312 l 1
 35 -112.559570312 l 1
 35 25.90234375 l 1xe0
 157 25.90234375 l 1xd0
EndSplineSet
Substitution2: "'case' Case-Sensitive Forms in Latin lookup 6-1" bracketright.case
EndChar

StartChar: bracketleft.case
Encoding: 65538 -1 79
Width: 334
Flags: HW
HStem: -102.56 138.462<177 299> 572.098 138.462<177 299>
VStem: 35 264<-102.56 35.9023 572.098 710.56> 35 142<35.9023 572.098>
LayerCount: 2
Fore
SplineSet
177 35.90234375 m 1xd0
 299 35.90234375 l 1
 299 -102.559570312 l 1
 35 -102.559570312 l 1
 35 710.559570312 l 1
 299 710.559570312 l 1
 299 572.09765625 l 1xe0
 177 572.09765625 l 1
 177 35.90234375 l 1xd0
EndSplineSet
EndChar

StartChar: bracketright.case
Encoding: 65539 -1 80
Width: 334
Flags: HW
HStem: -102.56 138.462<35 157> 572.098 138.462<35 157>
VStem: 35 264<-102.56 35.9023 572.098 710.56> 157 142<35.9023 572.098>
LayerCount: 2
Fore
SplineSet
157 35.90234375 m 1xd0
 157 572.09765625 l 1xd0
 35 572.09765625 l 1
 35 710.559570312 l 1
 299 710.559570312 l 1
 299 -102.559570312 l 1
 35 -102.559570312 l 1
 35 35.90234375 l 1xe0
 157 35.90234375 l 1xd0
EndSplineSet
EndChar

StartChar: braceleft
Encoding: 123 123 81
Width: 393
Flags: HW
HStem: -112.56 138.462<290.792 358.444> 230.4 132<35 123> 562.098 138.462<290.792 358.444>
VStem: 94.5557 28.4443<230.4 362.4>
LayerCount: 2
Fore
SplineSet
123 230.400390625 m 1
 35 230.400390625 l 1
 35 362.400390625 l 1
 123 362.400390625 l 1
 123 230.400390625 l 1
358.444335938 25.90234375 m 1
 358.444335938 -112.559570312 l 1
 186.844726562 -112.559570312 94.5556640625 16.400390625 94.5556640625 294 c 0
 94.5556640625 571.599609375 186.844726562 700.559570312 358.444335938 700.559570312 c 1
 358.444335938 562.09765625 l 1
 272.205078125 562.09765625 237.993164062 505.63671875 232.8671875 382.400390625 c 0
 229.604492188 303.962890625 145 290.400390625 145 290.400390625 c 5
 145 290.400390625 230.094726562 281.067382812 232.647460938 210.400390625 c 0
 237.225585938 83.6328125 271.247070312 25.90234375 358.444335938 25.90234375 c 1
EndSplineSet
Substitution2: "'case' Case-Sensitive Forms in Latin lookup 6-1" braceleft.case
EndChar

StartChar: braceright
Encoding: 125 125 82
Width: 393
Flags: HW
HStem: -112.56 138.462<35 102.652> 230.4 132<270.444 358.444> 562.098 138.462<35 102.652>
VStem: 270.444 28.4443<230.4 362.4>
LayerCount: 2
Fore
SplineSet
270.444335938 230.400390625 m 1
 270.444335938 362.400390625 l 1
 358.444335938 362.400390625 l 1
 358.444335938 230.400390625 l 1
 270.444335938 230.400390625 l 1
35 25.90234375 m 1
 122.197265625 25.90234375 156.21875 83.6328125 160.796875 210.400390625 c 0
 163.349609375 281.067382812 248.444335938 290.400390625 248.444335938 290.400390625 c 5
 248.444335938 290.400390625 163.83984375 303.962890625 160.577148438 382.400390625 c 0
 155.451171875 505.63671875 121.239257812 562.09765625 35 562.09765625 c 1
 35 700.559570312 l 1
 206.599609375 700.559570312 298.888671875 571.599609375 298.888671875 294 c 0
 298.888671875 16.400390625 206.599609375 -112.559570312 35 -112.559570312 c 1
 35 25.90234375 l 1
EndSplineSet
Substitution2: "'case' Case-Sensitive Forms in Latin lookup 6-1" braceright.case
EndChar

StartChar: braceleft.case
Encoding: 65540 -1 83
Width: 393
Flags: HW
HStem: -102.56 138.462<290.792 358.444> 240.4 132<35 123> 572.098 138.462<290.792 358.444>
VStem: 94.5557 28.4443<240.4 372.4>
LayerCount: 2
Fore
SplineSet
123 240.400390625 m 1
 35 240.400390625 l 1
 35 372.400390625 l 1
 123 372.400390625 l 1
 123 240.400390625 l 1
358.444335938 35.90234375 m 1
 358.444335938 -102.559570312 l 1
 186.844726562 -102.559570312 94.5556640625 26.400390625 94.5556640625 304 c 0
 94.5556640625 581.599609375 186.844726562 710.559570312 358.444335938 710.559570312 c 1
 358.444335938 572.09765625 l 1
 272.205078125 572.09765625 237.993164062 515.63671875 232.8671875 392.400390625 c 0
 229.604492188 313.962890625 145 300.400390625 145 300.400390625 c 5
 145 300.400390625 230.094726562 291.067382812 232.647460938 220.400390625 c 0
 237.225585938 93.6328125 271.247070312 35.90234375 358.444335938 35.90234375 c 1
EndSplineSet
EndChar

StartChar: braceright.case
Encoding: 65541 -1 84
Width: 393
Flags: HW
HStem: -102.56 138.462<35 102.652> 240.4 132<270.444 358.444> 572.098 138.462<35 102.652>
VStem: 270.444 28.4443<240.4 372.4>
LayerCount: 2
Fore
SplineSet
270.444335938 240.400390625 m 1
 270.444335938 372.400390625 l 1
 358.444335938 372.400390625 l 1
 358.444335938 240.400390625 l 1
 270.444335938 240.400390625 l 1
35 35.90234375 m 1
 122.197265625 35.90234375 156.21875 93.6328125 160.796875 220.400390625 c 0
 163.349609375 291.067382812 248.444335938 300.400390625 248.444335938 300.400390625 c 5
 248.444335938 300.400390625 163.83984375 313.962890625 160.577148438 392.400390625 c 0
 155.451171875 515.63671875 121.239257812 572.09765625 35 572.09765625 c 1
 35 710.559570312 l 1
 206.599609375 710.559570312 298.888671875 581.599609375 298.888671875 304 c 0
 298.888671875 26.400390625 206.599609375 -102.559570312 35 -102.559570312 c 1
 35 35.90234375 l 1
EndSplineSet
EndChar

StartChar: bar
Encoding: 124 124 85
Width: 192
Flags: HW
LayerCount: 2
Fore
SplineSet
157 -80 m 5
 35 -80 l 1
 35 708 l 1
 157 708 l 5
 157 -80 l 5
EndSplineSet
EndChar

StartChar: asciicircum
Encoding: 94 94 86
Width: 392
VWidth: 999
Flags: HW
LayerCount: 2
Fore
SplineSet
357 485 m 1
 235 475 l 1
 125 633 l 5
 267 633 l 5
 357 485 l 1
35 485 m 1
 125 633 l 5
 267 633 l 5
 157 475 l 1
 35 485 l 1
EndSplineSet
EndChar

StartChar: acute
Encoding: 180 180 87
Width: 302
VWidth: 999
Flags: HW
LayerCount: 2
Fore
SplineSet
35 485 m 5
 125 633 l 5
 267 623 l 5
 157 475 l 5
 35 485 l 5
EndSplineSet
EndChar

StartChar: grave
Encoding: 96 96 88
Width: 302
VWidth: 999
Flags: HW
LayerCount: 2
Fore
SplineSet
267 485 m 5
 145 475 l 5
 35 623 l 5
 177 633 l 5
 267 485 l 5
EndSplineSet
EndChar

StartChar: mu
Encoding: 181 181 89
Width: 500
Flags: HW
LayerCount: 2
Fore
SplineSet
35 -193 m 1
 35 422.400390625 l 1
 175.599609375 422.400390625 l 1
 175.599609375 -193 l 1
 35 -193 l 1
465.221679688 422.400390625 m 1
 465.221679688 0 l 1
 324.622070312 0 l 1
 324.622070312 422.400390625 l 1
 465.221679688 422.400390625 l 1
365.221679688 184.200195312 m 2
 365.221679688 36.12109375 317.390625 -10.046875 244.110351562 -10.046875 c 0
 168.831054688 -10.046875 145 36.12109375 145 184.200195312 c 2
 145 422.400390625 l 1
 175.599609375 422.400390625 l 1
 175.599609375 204.200195312 l 2
 175.599609375 141.357421875 208.8515625 126.818359375 250.110351562 126.818359375 c 0
 289.369140625 126.818359375 324.622070312 141.357421875 324.622070312 204.200195312 c 2
 324.622070312 422.400390625 l 1
 365.221679688 422.400390625 l 1
 365.221679688 184.200195312 l 2
EndSplineSet
EndChar

StartChar: paragraph
Encoding: 182 182 90
Width: 607
Flags: HW
LayerCount: 2
Fore
SplineSet
390.888671875 0 m 5
 248.888671875 0 l 5
 248.888671875 180 l 1
 168.2890625 180 35 234.840820312 35 396.440429688 c 0
 35 564.040039062 170.190429688 628 288.888671875 628 c 2
 572.888671875 628 l 1
 572.888671875 0 l 5
 430.888671875 0 l 5
 430.888671875 496 l 1
 390.888671875 496 l 1
 390.888671875 0 l 5
EndSplineSet
EndChar

StartChar: periodcentered
Encoding: 183 183 91
Width: 247
Flags: HW
LayerCount: 2
Fore
SplineSet
35 295.17578125 m 0
 35 352.794921875 73.57421875 390.400390625 123.612304688 390.400390625 c 0
 173.651367188 390.400390625 212.2265625 352.794921875 212.2265625 295.17578125 c 0
 212.2265625 237.555664062 173.651367188 199.951171875 123.612304688 199.951171875 c 0
 73.57421875 199.951171875 35 237.555664062 35 295.17578125 c 0
EndSplineSet
EndChar

StartChar: macron
Encoding: 175 175 92
Width: 360
VWidth: 999
Flags: HW
LayerCount: 2
Fore
SplineSet
325 496 m 1
 35 496 l 1
 35 628 l 1
 325 628 l 1
 325 496 l 1
EndSplineSet
EndChar

StartChar: cedilla
Encoding: 184 184 93
Width: 352
VWidth: 999
Flags: HW
LayerCount: 2
Fore
SplineSet
199 32 m 1
 177 -68 l 1
 137 -59 l 1
 130 -101 l 5
 76 -68 l 1
 89 32 l 1
 199 32 l 1
317 -125 m 0
 317 -209 239 -243 157 -243 c 0
 88 -243 35 -225 35 -225 c 1
 63 -127 l 1
 63 -127 81 -138 121 -138 c 0
 166 -138 178 -122 178 -108 c 0
 178 -94 169 -87 153 -87 c 0
 135 -87 130 -101 130 -101 c 5
 133 -59 l 1
 133 -59 149 -24 207 -24 c 0
 277 -24 317 -60 317 -125 c 0
EndSplineSet
EndChar

StartChar: exclamdown
Encoding: 161 161 94
Width: 247
Flags: HW
HStem: 241.999 190.449<65.1761 182.051>
VStem: 35 177.227<272.862 401.586> 53.2266 142<-199.214 -59.9139> 73.2266 102<59.4861 198.786>
LayerCount: 2
Fore
SplineSet
175.2265625 198.786132812 m 1x90
 195.2265625 -199.213867188 l 1
 53.2265625 -199.213867188 l 1xa0
 73.2265625 198.786132812 l 1
 175.2265625 198.786132812 l 1x90
212.2265625 337.223632812 m 0xc0
 212.2265625 279.604492188 173.65234375 241.999023438 123.614257812 241.999023438 c 0
 73.5751953125 241.999023438 35 279.604492188 35 337.223632812 c 0
 35 394.84375 73.5751953125 432.448242188 123.614257812 432.448242188 c 0
 173.65234375 432.448242188 212.2265625 394.84375 212.2265625 337.223632812 c 0xc0
EndSplineSet
Substitution2: "'case' Case-Sensitive Forms in Latin lookup 6-1" exclamdown.case
EndChar

StartChar: questiondown
Encoding: 191 191 95
Width: 544
Flags: HW
HStem: -211.773 138.462<195.048 410.51> 241.999 190.449<228.839 345.714>
VStem: 35 141.96<-54.2304 40.6413> 198.662 177.227<272.862 401.586> 236.889 102<145.786 198.786>
LayerCount: 2
Fore
SplineSet
333.888671875 60.7861328125 m 1xe0
 333.888671875 60.7861328125 176.959960938 88.603515625 176.959960938 -5.2138671875 c 0
 176.959960938 -59.03125 215.158203125 -73.3115234375 294 -73.3115234375 c 0
 375.118164062 -73.3115234375 465.78125 -31.2138671875 465.78125 -31.2138671875 c 1
 509.111328125 -163.213867188 l 1
 509.111328125 -163.213867188 404.697265625 -211.7734375 294 -211.7734375 c 0
 142.400390625 -211.7734375 35 -134.868164062 35 -17.2685546875 c 0
 35 100.331054688 145.888671875 166.786132812 283.888671875 145.786132812 c 0
 333.888671875 60.7861328125 l 1xe0
338.888671875 198.786132812 m 1xe8
 333.888671875 60.7861328125 l 1
 241.888671875 107.786132812 l 1
 236.888671875 198.786132812 l 1
 338.888671875 198.786132812 l 1xe8
375.888671875 337.223632812 m 0xf0
 375.888671875 279.604492188 337.314453125 241.999023438 287.276367188 241.999023438 c 0
 237.237304688 241.999023438 198.662109375 279.604492188 198.662109375 337.223632812 c 0
 198.662109375 394.84375 237.237304688 432.448242188 287.276367188 432.448242188 c 0
 337.314453125 432.448242188 375.888671875 394.84375 375.888671875 337.223632812 c 0xf0
EndSplineSet
Substitution2: "'case' Case-Sensitive Forms in Latin lookup 6-1" questiondown.case
EndChar

StartChar: exclamdown.case
Encoding: 65542 -1 96
Width: 247
Flags: HW
HStem: 437.551 190.449<65.1761 182.051>
VStem: 35 177.227<468.414 597.137> 53.2266 142<-3.66211 135.638> 73.2266 102<255.038 394.338>
LayerCount: 2
Fore
SplineSet
175.2265625 394.337890625 m 5x90
 195.2265625 -3.662109375 l 1
 53.2265625 -3.662109375 l 1xa0
 73.2265625 394.337890625 l 5
 175.2265625 394.337890625 l 5x90
212.2265625 532.775390625 m 0xc0
 212.2265625 475.15625 173.65234375 437.55078125 123.614257812 437.55078125 c 0
 73.5751953125 437.55078125 35 475.15625 35 532.775390625 c 0
 35 590.395507812 73.5751953125 628 123.614257812 628 c 0
 173.65234375 628 212.2265625 590.395507812 212.2265625 532.775390625 c 0xc0
EndSplineSet
EndChar

StartChar: questiondown.case
Encoding: 65543 -1 97
Width: 544
Flags: HW
HStem: -3.66211 138.462<195.048 410.509> 450.11 190.449<228.838 345.713>
VStem: 35 141.96<153.881 248.753> 198.662 177.227<480.973 609.697> 236.889 102<353.897 406.897>
LayerCount: 2
Fore
SplineSet
333.888671875 268.897460938 m 1xe0
 333.888671875 268.897460938 176.959960938 296.71484375 176.959960938 202.897460938 c 0
 176.959960938 149.080078125 215.158203125 134.799804688 294 134.799804688 c 0
 375.118164062 134.799804688 465.78125 176.897460938 465.78125 176.897460938 c 1
 509.111328125 44.8974609375 l 1
 509.111328125 44.8974609375 404.697265625 -3.662109375 294 -3.662109375 c 0
 142.400390625 -3.662109375 35 73.2431640625 35 190.842773438 c 0
 35 308.442382812 145.888671875 374.897460938 283.888671875 353.897460938 c 0
 333.888671875 268.897460938 l 1xe0
338.888671875 406.897460938 m 1xe8
 333.888671875 268.897460938 l 1
 241.888671875 315.897460938 l 1
 236.888671875 406.897460938 l 1
 338.888671875 406.897460938 l 1xe8
375.888671875 545.334960938 m 0xf0
 375.888671875 487.715820312 337.314453125 450.110351562 287.276367188 450.110351562 c 0
 237.237304688 450.110351562 198.662109375 487.715820312 198.662109375 545.334960938 c 0
 198.662109375 602.955078125 237.237304688 640.559570312 287.276367188 640.559570312 c 0
 337.314453125 640.559570312 375.888671875 602.955078125 375.888671875 545.334960938 c 0xf0
EndSplineSet
EndChar

StartChar: plus
Encoding: 43 43 98
Width: 468
Flags: HW
LayerCount: 2
Fore
SplineSet
300 495.400390625 m 5
 300 97.400390625 l 5
 168 97.400390625 l 5
 168 495.400390625 l 5
 300 495.400390625 l 5
433 230.400390625 m 1
 35 230.400390625 l 1
 35 362.400390625 l 1
 433 362.400390625 l 1
 433 230.400390625 l 1
EndSplineSet
EndChar

StartChar: multiply
Encoding: 215 215 99
Width: 444
Flags: HW
LayerCount: 2
Fore
SplineSet
128.337890625 483.783203125 m 5
 409.765625 202.35546875 l 5
 316.427734375 109.017578125 l 5
 35 390.4453125 l 5
 128.337890625 483.783203125 l 5
409.765625 390.4453125 m 1
 128.337890625 109.017578125 l 1
 35 202.35546875 l 1
 316.427734375 483.783203125 l 1
 409.765625 390.4453125 l 1
EndSplineSet
EndChar

StartChar: divide
Encoding: 247 247 100
Width: 468
Flags: HW
LayerCount: 2
Fore
SplineSet
150.388671875 131.775390625 m 0
 150.388671875 169.39453125 168.962890625 207 229.000976562 207 c 0
 289.040039062 207 307.615234375 169.39453125 307.615234375 131.775390625 c 0
 307.615234375 94.1552734375 289.040039062 56.55078125 229.000976562 56.55078125 c 0
 168.962890625 56.55078125 150.388671875 94.1552734375 150.388671875 131.775390625 c 0
150.38671875 462.344726562 m 0
 150.38671875 499.963867188 168.9609375 537.569335938 228.999023438 537.569335938 c 0
 289.038085938 537.569335938 307.61328125 499.963867188 307.61328125 462.344726562 c 0
 307.61328125 424.724609375 289.038085938 387.120117188 228.999023438 387.120117188 c 0
 168.9609375 387.120117188 150.38671875 424.724609375 150.38671875 462.344726562 c 0
433 230.400390625 m 5
 35 230.400390625 l 5
 35 362.400390625 l 5
 433 362.400390625 l 5
 433 230.400390625 l 5
EndSplineSet
EndChar

StartChar: Oslash
Encoding: 216 216 101
Width: 677
Flags: HW
HStem: -12.5596 138.462<305.265 422.421> 502.098 138.462<255.356 378.504>
VStem: 35 136.849<217.23 410.77> 505.929 136.849<217.23 410.77>
LayerCount: 2
Fore
SplineSet
83 -20 m 1
 483 708 l 1
 597 643 l 1
 197 -85 l 1
 83 -20 l 1
171.848632812 314 m 0
 171.848632812 200.182617188 240.046875 125.90234375 338.888671875 125.90234375 c 0
 437.73046875 125.90234375 505.928710938 200.182617188 505.928710938 314 c 0
 505.928710938 427.817382812 437.73046875 502.09765625 338.888671875 502.09765625 c 0
 240.046875 502.09765625 171.848632812 427.817382812 171.848632812 314 c 0
35 314 m 0
 35 511.599609375 167.2890625 640.559570312 338.888671875 640.559570312 c 0
 510.48828125 640.559570312 642.77734375 511.599609375 642.77734375 314 c 0
 642.77734375 116.400390625 510.48828125 -12.5595703125 338.888671875 -12.5595703125 c 0
 167.2890625 -12.5595703125 35 116.400390625 35 314 c 0
EndSplineSet
EndChar

StartChar: oslash
Encoding: 248 248 102
Width: 500
Flags: HW
HStem: -10.0479 442.495<136.831 363.392>
VStem: 35 430.223<63.1201 359.279>
LayerCount: 2
Fore
SplineSet
250.111328125 -10.0478515625 m 0
 136.831054688 -10.0478515625 35 63.1201171875 35 211.200195312 c 0
 35 359.279296875 136.831054688 432.447265625 250.111328125 432.447265625 c 0
 363.391601562 432.447265625 465.22265625 359.279296875 465.22265625 211.200195312 c 0
 465.22265625 63.1201171875 363.391601562 -10.0478515625 250.111328125 -10.0478515625 c 0
250.111328125 295.58203125 m 0
 210.852539062 295.58203125 179.206054688 274.04296875 179.206054688 211.200195312 c 0
 179.206054688 148.357421875 210.852539062 126.817382812 250.111328125 126.817382812 c 0
 289.370117188 126.817382812 321.016601562 148.357421875 321.016601562 211.200195312 c 0
 321.016601562 274.04296875 289.370117188 295.58203125 250.111328125 295.58203125 c 0
62 4 m 1
 322 482 l 1
 436 417 l 1
 176 -61 l 1
 62 4 l 1
EndSplineSet
EndChar

StartChar: AE
Encoding: 198 198 103
Width: 823
Flags: HW
LayerCount: 2
Fore
SplineSet
721 256 m 1
 427 256 l 1
 427 388 l 1
 721 388 l 1
 721 256 l 1
788 0 m 1
 407 0 l 1
 407 132 l 1
 788 132 l 1
 788 0 l 1
788 496 m 1
 407 496 l 1
 407 628 l 1
 788 628 l 1
 788 496 l 1
407 30 m 1
 407 598 l 1
 549 598 l 1
 549 30 l 1
 407 30 l 1
457 116 m 1
 203 116 l 1
 203 248 l 1
 457 248 l 1
 457 116 l 1
35 0 m 5
 345 628 l 5
 487 628 l 5
 177 0 l 5
 35 0 l 5
EndSplineSet
EndChar

StartChar: ae
Encoding: 230 230 104
Width: 690
Flags: HW
LayerCount: 2
Fore
SplineSet
181.938476562 171.19921875 m 2
 170.83984375 171 162.83984375 163 162.83984375 151 c 0
 162.83984375 138.319335938 173.15234375 126.817382812 192.37109375 126.817382812 c 0
 226.091796875 126.817382812 252.068359375 138.940429688 263.322265625 171.19921875 c 1
 181.938476562 171.19921875 l 2
404.045898438 211 m 0
 404.124023438 148.311523438 415.754882812 126.817382812 474.951171875 126.817382812 c 0
 550.305664062 126.817382812 596.83984375 148 596.83984375 148 c 1
 628.244140625 22.552734375 l 1
 628.244140625 22.552734375 601.89453125 -10.0478515625 484.951171875 -10.0478515625 c 0
 361.712890625 -10.0478515625 291.965820312 73.0537109375 291.83984375 221 c 0
 291.73046875 349.079101562 351.670898438 432.247070312 454.951171875 432.247070312 c 0
 560.23046875 432.247070312 655.543945312 359.278320312 655.543945312 171.19921875 c 5
 511.322265625 171.19921875 l 5
 511.322265625 280.19921875 491.209960938 295.381835938 454.951171875 295.381835938 c 0
 420.692382812 295.381835938 404.045898438 273.842773438 404.045898438 211 c 0
601.322265625 171.19921875 m 5
 263.322265625 171.19921875 l 1
 263.322265625 253.19921875 l 1
 523.322265625 253.19921875 l 5
 601.322265625 171.19921875 l 5
262.66796875 253.19921875 m 1
 250.171875 283.306640625 240.278320312 295.381835938 192.37109375 295.381835938 c 0
 117.016601562 295.381835938 80.482421875 279.19921875 80.482421875 279.19921875 c 1
 49.078125 404.646484375 l 1
 49.078125 404.646484375 75.427734375 432.247070312 192.37109375 432.247070312 c 0
 306.096679688 432.247070312 355.482421875 359 355.482421875 221.19921875 c 2
 347.482421875 111.19921875 l 1
 347.482421875 111.19921875 309.278320312 -10.0478515625 192.37109375 -10.0478515625 c 0
 77.6259765625 -10.0478515625 35 59.396484375 35 141 c 0
 35 210 87.53515625 253.19921875 167.260742188 253.19921875 c 2
 262.66796875 253.19921875 l 1
EndSplineSet
EndChar

StartChar: a.salt
Encoding: 65544 -1 105
Width: 472
Flags: HW
HStem: -10.0479 130.865<124.999 263.368> 0 21G<296.948 437.553> 295.382 136.865<76.1247 268.273>
VStem: 289.43 42<168.199 263.199>
LayerCount: 2
Fore
SplineSet
331.4296875 168.19921875 m 1
 197 168.19921875 185.83984375 154 185.83984375 142 c 0
 185.83984375 128.319335938 197.15234375 120.817382812 222.37109375 120.817382812 c 0
 267.985351562 120.817382812 289.4296875 149 289.4296875 213.19921875 c 0
 289.4296875 283 257.594726562 295.381835938 192.37109375 295.381835938 c 0
 117.016601562 295.381835938 80.482421875 279.19921875 80.482421875 279.19921875 c 1
 49.078125 404.646484375 l 1
 49.078125 404.646484375 95.427734375 432.247070312 212.37109375 432.247070312 c 0
 335.609375 432.247070312 437.42317995 389.145504996 437.482421875 211.19921875 c 2
 437.552734375 0 l 1
 296.953125 0 l 1
 296.94140625 45.3935546875 l 1
 296.94140625 45.3935546875 269.278320312 -10.0478515625 182.37109375 -10.0478515625 c 0
 67.6259765625 -10.0478515625 35 49.396484375 35 121 c 0
 35 200 75 263.19921875 331.4296875 263.19921875 c 1
 331.4296875 168.19921875 l 1
EndSplineSet
EndChar

StartChar: l.salt
Encoding: 65545 -1 106
Width: 210
Flags: HW
HStem: 0 21G<35 175.6> 625.4 20G<35 175.6>
VStem: 35 140.6<0 645.4>
LayerCount: 2
Fore
SplineSet
35 0 m 1
 35 645.400390625 l 5
 175.599609375 645.400390625 l 5
 175.599609375 0 l 1
 35 0 l 1
EndSplineSet
EndChar

StartChar: dollar
Encoding: 36 36 107
Width: 500
Flags: HW
LayerCount: 2
Fore
SplineSet
320.111328125 520 m 1
 198.111328125 520 l 1
 188.111328125 708 l 1
 330.111328125 708 l 1
 320.111328125 520 l 1
330.111328125 -80 m 1
 188.111328125 -80 l 1
 198.111328125 88 l 1
 320.111328125 88 l 1
 330.111328125 -80 l 1
245 390.90234375 m 4
 390.188476562 345.342773438 470.888671875 298.599609375 470.888671875 181 c 4
 470.888671875 63.400390625 378.599609375 -12.5595703125 237 -12.5595703125 c 4
 106.302734375 -12.5595703125 29.111328125 58 29.111328125 58 c 5
 94.111328125 179 l 5
 94.111328125 179 125.881835938 125.90234375 237 125.90234375 c 4
 305.841796875 125.90234375 334.040039062 143.182617188 334.040039062 181 c 4
 334.040039062 214.817382812 311.23046875 232.658203125 225 262.440429688 c 4
 138.950195312 292.16015625 51.111328125 336.400390625 51.111328125 454 c 4
 51.111328125 571.599609375 143.400390625 640.559570312 275 640.559570312 c 4
 395.697265625 640.559570312 450.111328125 602 450.111328125 602 c 5
 406.78125 470 l 5
 406.78125 470 366.118164062 502.09765625 275 502.09765625 c 4
 216.158203125 502.09765625 187.959960938 483.817382812 187.959960938 450 c 4
 187.959960938 426.182617188 193.768554688 406.978515625 245 390.90234375 c 4
EndSplineSet
EndChar

StartChar: percent
Encoding: 37 37 108
Width: 746
Flags: HW
LayerCount: 2
Fore
SplineSet
76.255859375 111.19921875 m 1
 577.27734375 611.161132812 l 1
 664.44140625 531.12109375 l 1
 163.420898438 31.1591796875 l 1
 76.255859375 111.19921875 l 1
523.22265625 137.952148438 m 0
 523.22265625 104.952148438 541.22265625 91.9521484375 563.22265625 91.9521484375 c 0
 585.22265625 91.9521484375 604.22265625 104.952148438 604.22265625 137.952148438 c 0
 604.22265625 170.952148438 585.22265625 182.952148438 563.22265625 182.952148438 c 0
 541.22265625 182.952148438 523.22265625 170.952148438 523.22265625 137.952148438 c 0
415.22265625 137.952148438 m 0
 415.22265625 218.952148438 469.22265625 284.952148438 563.22265625 284.952148438 c 0
 657.22265625 284.952148438 711.22265625 218.952148438 711.22265625 137.952148438 c 0
 711.22265625 56.9521484375 657.22265625 -10.0478515625 563.22265625 -10.0478515625 c 0
 469.22265625 -10.0478515625 415.22265625 56.9521484375 415.22265625 137.952148438 c 0
143 505.361328125 m 0
 143 472.361328125 161 459.361328125 183 459.361328125 c 0
 205 459.361328125 224 472.361328125 224 505.361328125 c 0
 224 538.361328125 205 550.361328125 183 550.361328125 c 0
 161 550.361328125 143 538.361328125 143 505.361328125 c 0
35 505.361328125 m 0
 35 586.361328125 89 652.361328125 183 652.361328125 c 0
 277 652.361328125 331 586.361328125 331 505.361328125 c 0
 331 424.361328125 277 357.361328125 183 357.361328125 c 0
 89 357.361328125 35 424.361328125 35 505.361328125 c 0
EndSplineSet
EndChar

StartChar: Thorn
Encoding: 222 222 109
Width: 576
Flags: HW
LayerCount: 2
Fore
SplineSet
35 0 m 1
 35 628 l 1
 177 628 l 1
 177 0 l 1
 35 0 l 1
288 399.538085938 m 6
 177 399.538085938 l 5
 177 538 l 5
 288 538 l 6
 408.599609375 538 541.888671875 474.040039062 541.888671875 306.440429688 c 4
 541.888671875 144.840820312 408.599609375 90 288 90 c 6
 177 90 l 5
 177 228.461914062 l 5
 288 228.461914062 l 6
 335.841796875 228.461914062 405.040039062 228.623046875 405.040039062 306.440429688 c 4
 405.040039062 390.2578125 335.841796875 399.538085938 288 399.538085938 c 6
EndSplineSet
EndChar

StartChar: thorn
Encoding: 254 254 110
Width: 502
Flags: HW
LayerCount: 2
Fore
SplineSet
181.206054688 211.200195312 m 0
 181.206054688 148.357421875 212.852539062 126.817382812 252.111328125 126.817382812 c 0
 293.370117188 126.817382812 322.016601562 148.357421875 322.016601562 211.200195312 c 0
 322.016601562 274.04296875 293.370117188 295.58203125 252.111328125 295.58203125 c 0
 212.852539062 295.58203125 181.206054688 274.04296875 181.206054688 211.200195312 c 0
137 211.200195312 m 0
 137 359.279296875 178.831054688 432.447265625 292.111328125 432.447265625 c 0
 387.390625 432.447265625 467.221679688 359.279296875 467.221679688 211.200195312 c 0
 467.221679688 63.1201171875 387.390625 -10.0478515625 292.111328125 -10.0478515625 c 0
 178.831054688 -10.0478515625 137 63.1201171875 137 211.200195312 c 0
35 -193 m 5
 35 645.400390625 l 5
 175.599609375 645.400390625 l 5
 175.599609375 -193 l 5
 35 -193 l 5
EndSplineSet
EndChar

StartChar: Oslash.varAlt01
Encoding: 65546 -1 111
Width: 677
Flags: HW
HStem: -12.5596 138.462<283.44 422.421> 502.098 138.462<255.356 418.761>
VStem: 35 136.849<217.23 410.77> 505.929 136.849<217.23 410.77>
LayerCount: 2
Fore
SplineSet
35 314 m 0
 35 511.599609375 167.2890625 640.559570312 338.888671875 640.559570312 c 0
 510.48828125 640.559570312 642.77734375 511.599609375 642.77734375 314 c 0
 642.77734375 116.400390625 510.48828125 -12.5595703125 338.888671875 -12.5595703125 c 0
 167.2890625 -12.5595703125 35 116.400390625 35 314 c 0
171.848632812 314 m 0
 171.848632812 200.182617188 240.046875 125.90234375 338.888671875 125.90234375 c 0
 437.73046875 125.90234375 505.928710938 200.182617188 505.928710938 314 c 0
 505.928710938 427.817382812 437.73046875 502.09765625 338.888671875 502.09765625 c 0
 240.046875 502.09765625 171.848632812 427.817382812 171.848632812 314 c 0
83 -20 m 1
 156.625976562 114 l 1
 279.966796875 66 l 1
 197 -85 l 1
 83 -20 l 1
521.725585938 506 m 1
 421.461914062 596 l 1
 483 708 l 1
 597 643 l 1
 521.725585938 506 l 1
EndSplineSet
EndChar

StartChar: oslash.varAlt01
Encoding: 65547 -1 112
Width: 500
Flags: HW
HStem: -10.0479 136.865<238.531 302.33> 295.582 136.865<197.893 272.863>
VStem: 35 144.206<145.746 276.654> 321.017 144.206<145.746 276.654>
LayerCount: 2
Fore
SplineSet
250.111328125 -10.0478515625 m 0
 136.831054688 -10.0478515625 35 63.1201171875 35 211.200195312 c 0
 35 359.279296875 136.831054688 432.447265625 250.111328125 432.447265625 c 0
 363.391601562 432.447265625 465.22265625 359.279296875 465.22265625 211.200195312 c 0
 465.22265625 63.1201171875 363.391601562 -10.0478515625 250.111328125 -10.0478515625 c 0
250.111328125 295.58203125 m 4
 210.852539062 295.58203125 179.206054688 274.04296875 179.206054688 211.200195312 c 4
 179.206054688 148.357421875 210.852539062 126.817382812 250.111328125 126.817382812 c 4
 289.370117188 126.817382812 321.016601562 148.357421875 321.016601562 211.200195312 c 4
 321.016601562 274.04296875 289.370117188 295.58203125 250.111328125 295.58203125 c 4
399.012695312 349 m 1
 274.677734375 395 l 1
 322 482 l 1
 436 417 l 1
 399.012695312 349 l 1
111.498046875 95 m 1
 236.920898438 51 l 1
 176 -61 l 1
 62 4 l 1
 111.498046875 95 l 1
EndSplineSet
EndChar

StartChar: equal
Encoding: 61 61 113
Width: 468
Flags: HW
LayerCount: 2
Fore
SplineSet
433 138.400390625 m 5
 35 138.400390625 l 5
 35 270.400390625 l 5
 433 270.400390625 l 5
 433 138.400390625 l 5
433 322.400390625 m 1
 35 322.400390625 l 1
 35 454.400390625 l 1
 433 454.400390625 l 1
 433 322.400390625 l 1
EndSplineSet
EndChar

StartChar: less
Encoding: 60 60 114
Width: 468
Flags: HW
LayerCount: 2
Fore
SplineSet
433 478.400390625 m 1
 433 336.400390625 l 1
 35 262.400390625 l 1
 35 354.400390625 l 1
 433 478.400390625 l 1
433 98.400390625 m 1
 35 222.400390625 l 1
 35 314.400390625 l 1
 433 240.400390625 l 1
 433 98.400390625 l 1
EndSplineSet
EndChar

StartChar: greater
Encoding: 62 62 115
Width: 468
Flags: HW
LayerCount: 2
Fore
SplineSet
35 98.400390625 m 1
 35 240.400390625 l 1
 433 314.400390625 l 1
 433 222.400390625 l 1
 35 98.400390625 l 1
35 478.400390625 m 1
 433 354.400390625 l 1
 433 262.400390625 l 1
 35 336.400390625 l 1
 35 478.400390625 l 1
EndSplineSet
EndChar

StartChar: yen
Encoding: 165 165 116
Width: 500
Flags: HW
HStem: 0 21G<179 321> 48.4004 132<77.5 423.5> 202.4 132<77.5 423.5> 608 20G<9 170.612 328.457 491>
VStem: 77.5 346<48.4004 180.4 202.4 334.4> 179 142<0 350>
LayerCount: 2
Fore
SplineSet
423.5 58.400390625 m 1xf8
 77.5 58.400390625 l 1
 77.5 170.400390625 l 1
 423.5 170.400390625 l 1
 423.5 58.400390625 l 1xf8
423.5 212.400390625 m 1
 77.5 212.400390625 l 1
 77.5 324.400390625 l 1
 423.5 324.400390625 l 1
 423.5 212.400390625 l 1
179 340 m 1xf4
 321 340 l 1
 321 0 l 1
 179 0 l 1
 179 340 l 1xf4
9 628 m 1
 161 628 l 1
 285 360 l 1
 321 340 l 1
 179 340 l 1
 9 628 l 1
491 628 m 1
 321 340 l 1
 203 360 l 1
 339 628 l 1
 491 628 l 1
EndSplineSet
EndChar

StartChar: yen.varAlt01
Encoding: 65548 -1 117
Width: 500
Flags: HW
HStem: 0 21G<179 321> 48.4004 132<77.5 423.5> 202.4 132<77.5 423.5> 608 20G<9 170.612 328.457 491>
VStem: 77.5 346<48.4004 180.4 202.4 334.4> 179 142<0 350>
LayerCount: 2
Fore
SplineSet
491 628 m 1
 321 340 l 1
 203 360 l 1
 339 628 l 1
 491 628 l 1
9 628 m 1
 161 628 l 1
 285 360 l 1
 321 340 l 1
 179 340 l 1
 9 628 l 1
423.5 212.400390625 m 1
 77.5 212.400390625 l 1
 77.5 324.400390625 l 1
 423.5 324.400390625 l 1
 423.5 212.400390625 l 1
423.5 58.400390625 m 1xf8
 77.5 58.400390625 l 1
 77.5 170.400390625 l 1
 423.5 170.400390625 l 1
 423.5 58.400390625 l 1xf8
179 340 m 1
 321 340 l 1
 321 255 l 1
 179 260 l 1
 179 340 l 1
321 120 m 1
 321 0 l 1
 179 0 l 1
 179 129 l 1
 321 120 l 1
EndSplineSet
EndChar

StartChar: six.salt
Encoding: 65549 -1 118
Width: 580
Flags: HW
HStem: -12.5596 138.641<230.953 368.631> 276 121.761<240.931 372.483>
VStem: 35 171<156.993 354.324> 394 151<154.157 252.477>
LayerCount: 2
Fore
SplineSet
299.322265625 126.081054688 m 0
 358.173828125 126.081054688 394 156.015625 394 206 c 0
 394 237 372 276 300 276 c 0
 237.390625 276 206 247.536132812 206 208 c 0
 206 149.8046875 249 126.081054688 299.322265625 126.081054688 c 0
482 529 m 1
 482 529 384.877929688 508.833984375 298 471 c 0
 174 417 171.934570312 317.994140625 171.934570312 317.994140625 c 1
 171.934570312 317.994140625 220.415039062 397.760742188 338 397.760742188 c 0
 476 397.760742188 545 321 545 194 c 0
 545 86.140625 459.889648438 -12.5595703125 298.888671875 -12.5595703125 c 0
 127.2890625 -12.5595703125 35 116.400390625 35 294 c 0
 35 426.390625 104 531 233 588 c 0
 346.946289062 638.348632812 450 657 450 657 c 1
 482 529 l 1
EndSplineSet
Substitution2: "'sups' Superscript lookup 0 subtable" six.salt.sups
Substitution2: "'sinf' Scientific Inferiors lookup 0 subtable" six.salt.sinf
Substitution2: "'subs' Subscript lookup 0 subtable" six.salt.subs
Substitution2: "'tnum' Tabular Numbers in Latin lookup 5-1" six.stf
Substitution2: "'onum' Oldstyle Figures in Latin lookup 4-1" six.ssf
Substitution2: "'dnom' Denominators lookup 0 subtable" six.salt.dnom
Substitution2: "'numr' Numerators lookup 0 subtable" six.salt.numr
EndChar

StartChar: nine.salt
Encoding: 65550 -1 119
Width: 580
Flags: HW
HStem: 232.239 119.761<209.087 342.087> 502.098 140.462<209.833 350.744>
VStem: 35 150.961<372.719 475.843> 373.961 171.039<280.881 472.841>
LayerCount: 2
Fore
SplineSet
282.072265625 502.09765625 m 0
 223.220703125 502.09765625 187.39453125 472.163085938 187.39453125 422.178710938 c 0
 187.39453125 385.09765625 206.688476562 352.178710938 281.39453125 352.178710938 c 0
 350.39453125 352.178710938 375.39453125 380.642578125 375.39453125 420.178710938 c 0
 375.39453125 478.374023438 332.39453125 502.09765625 282.072265625 502.09765625 c 0
97.9609375 111 m 1
 97.9609375 111 185.65234375 125.97265625 272 165 c 0
 406.9609375 226 408.06640625 312.0078125 408.06640625 312.0078125 c 1
 408.06640625 312.0078125 378.9609375 232.239257812 252 232.239257812 c 0
 114.88671875 232.239257812 35 307 35 436 c 0
 35 543.859375 120.110351562 642.559570312 281.111328125 642.559570312 c 0
 452.7109375 642.559570312 545 513.599609375 545 336 c 0
 545 203.609375 459.201171875 97.1201171875 327 48 c 0
 213.9609375 6 118.9609375 -8 118.9609375 -8 c 1
 97.9609375 111 l 1
EndSplineSet
Substitution2: "'sups' Superscript lookup 0 subtable" nine.salt.sups
Substitution2: "'sinf' Scientific Inferiors lookup 0 subtable" nine.salt.sinf
Substitution2: "'subs' Subscript lookup 0 subtable" nine.salt.subs
Substitution2: "'tnum' Tabular Numbers in Latin lookup 5-1" nine.stf
Substitution2: "'onum' Oldstyle Figures in Latin lookup 4-1" nine.ssf
Substitution2: "'dnom' Denominators lookup 0 subtable" nine.salt.dnom
Substitution2: "'numr' Numerators lookup 0 subtable" nine.salt.numr
EndChar

StartChar: numbersign
Encoding: 35 35 120
Width: 658
Flags: HW
LayerCount: 2
Fore
SplineSet
573 130.400390625 m 1
 35 130.400390625 l 1
 35 262.400390625 l 1
 573 262.400390625 l 1
 573 130.400390625 l 1
623 350.400390625 m 1
 95 350.400390625 l 1
 95 482.400390625 l 1
 623 482.400390625 l 1
 623 350.400390625 l 1
281 0 m 1
 451 628 l 1
 593 628 l 1
 423 0 l 1
 281 0 l 1
71 0 m 1
 241 628 l 1
 383 628 l 1
 213 0 l 1
 71 0 l 1
EndSplineSet
EndChar

StartChar: cent
Encoding: 162 162 121
Width: 438
Flags: HW
LayerCount: 2
Fore
SplineSet
318 0 m 1
 176 0 l 1
 186 168 l 1
 308 168 l 1
 318 0 l 1
330 400 m 1
 208 400 l 1
 198 588 l 1
 340 588 l 1
 330 400 l 1
35 295.200195312 m 0
 35 443.279296875 136.831054688 516.447265625 270.111328125 516.447265625 c 0
 347.2734375 516.447265625 393.956054688 493.577148438 393.956054688 493.577148438 c 1
 384.1953125 356.079101562 l 1
 384.1953125 356.079101562 327.220703125 379.58203125 270.111328125 379.58203125 c 0
 210.852539062 379.58203125 179.206054688 358.04296875 179.206054688 295.200195312 c 0
 179.206054688 232.357421875 210.852539062 210.817382812 270.111328125 210.817382812 c 0
 325.465820312 210.817382812 382 232 382 232 c 1
 403.404296875 96.552734375 l 1
 403.404296875 96.552734375 347.0546875 73.9521484375 250.111328125 73.9521484375 c 0
 156.831054688 73.9521484375 35 147.120117188 35 295.200195312 c 0
EndSplineSet
EndChar

StartChar: sterling
Encoding: 163 163 122
Width: 500
Flags: HW
LayerCount: 2
Fore
SplineSet
378.5 220.400390625 m 1
 40.5 220.400390625 l 1
 40.5 352.400390625 l 1
 378.5 352.400390625 l 1
 378.5 220.400390625 l 1
42.5 121 m 1
 113.5 131 l 1
 459.5 131 l 1
 459.5 0 l 1
 42.5 0 l 1
 42.5 121 l 1
285.5 286 m 0
 285.5 117 75.7783203125 76 75.7783203125 76 c 1
 42.5 121 l 1
 133.5 156 167.12109375 214 167.12109375 268 c 0
 167.12109375 363 51.5 375.068359375 51.5 474 c 0
 51.5 581.599609375 143.7890625 640.559570312 275.388671875 640.559570312 c 0
 376.0859375 640.559570312 450.5 592 450.5 592 c 1
 407.169921875 460 l 1
 407.169921875 460 346.506835938 502.09765625 275.388671875 502.09765625 c 0
 226.546875 502.09765625 188.348632812 493.817382812 188.348632812 460 c 0
 188.348632812 416.182617188 285.5 383.186523438 285.5 286 c 0
EndSplineSet
EndChar

StartChar: copyright
Encoding: 169 169 123
Width: 679
Flags: HW
HStem: -12.5596 138.462<245.356 412.421> 502.098 138.462<245.356 412.421>
VStem: 25 136.849<217.23 410.77> 495.929 136.849<217.23 410.77>
LayerCount: 2
Fore
SplineSet
133.4296875 314 m 0
 133.4296875 174.004882812 218.313476562 92.6396484375 339.888671875 92.6396484375 c 0
 461.463867188 92.6396484375 546.34765625 174.004882812 546.34765625 314 c 0
 546.34765625 453.995117188 461.463867188 535.360351562 339.888671875 535.360351562 c 0
 218.313476562 535.360351562 133.4296875 453.995117188 133.4296875 314 c 0
35 314 m 0
 35 511.599609375 168.2890625 640.559570312 339.888671875 640.559570312 c 0
 511.48828125 640.559570312 644.77734375 511.599609375 644.77734375 314 c 0
 644.77734375 116.400390625 511.48828125 -12.5595703125 339.888671875 -12.5595703125 c 0
 168.2890625 -12.5595703125 35 116.400390625 35 314 c 0
185.751953125 315.647460938 m 4
 185.751953125 205.475585938 276.39453125 151.0390625 345.794921875 151.0390625 c 4
 417.919921875 151.0390625 459.84375 167.853515625 459.84375 167.853515625 c 5
 443.919921875 268.625976562 l 5
 443.919921875 268.625976562 401.857421875 252.8671875 360.674804688 252.8671875 c 4
 316.5859375 252.8671875 293.041015625 268.892578125 293.041015625 315.647460938 c 4
 293.041015625 362.40234375 316.5859375 378.427734375 360.674804688 378.427734375 c 4
 403.1640625 378.427734375 445.552734375 360.94140625 445.552734375 360.94140625 c 5
 452.814453125 463.239257812 l 5
 452.814453125 463.239257812 418.083007812 480.255859375 360.674804688 480.255859375 c 4
 261.513671875 480.255859375 185.751953125 425.818359375 185.751953125 315.647460938 c 4
EndSplineSet
EndChar

StartChar: registered
Encoding: 174 174 124
Width: 679
Flags: HW
HStem: -12.5596 105.199<242.556 438.902> 389.364 86.2793<320.651 372.545> 535.36 105.199<242.556 438.902>
VStem: 35 98.4297<207.95 420.05> 217.552 103.1<160.356 278.758 302.733 389.364> 546.348 98.4297<207.95 420.05>
LayerCount: 2
Fore
SplineSet
35 314 m 0
 35 511.599609375 169.2890625 640.559570312 340.888671875 640.559570312 c 0
 512.48828125 640.559570312 644.77734375 511.599609375 644.77734375 314 c 0
 644.77734375 116.400390625 512.48828125 -12.5595703125 340.888671875 -12.5595703125 c 0
 169.2890625 -12.5595703125 35 116.400390625 35 314 c 0
133.4296875 314 m 0
 133.4296875 174.004882812 219.313476562 92.6396484375 340.888671875 92.6396484375 c 0
 462.463867188 92.6396484375 546.34765625 174.004882812 546.34765625 314 c 0
 546.34765625 453.995117188 462.463867188 535.360351562 340.888671875 535.360351562 c 0
 219.313476562 535.360351562 133.4296875 453.995117188 133.4296875 314 c 0
334.088867188 389.364257812 m 6
 320.651367188 389.364257812 l 5
 320.651367188 475.643554688 l 5
 358.088867188 475.643554688 l 6
 420.171875 475.643554688 478.4921875 449.291992188 478.4921875 373.30859375 c 4
 478.4921875 300.415039062 420.171875 278.7578125 358.088867188 278.7578125 c 6
 320.651367188 278.7578125 l 5
 320.651367188 359.888671875 l 5
 334.088867188 359.888671875 l 6
 358.717773438 359.888671875 374.044921875 361.515625 374.044921875 374.279296875 c 4
 374.044921875 389.131835938 358.717773438 389.364257812 334.088867188 389.364257812 c 6
217.551757812 160.356445312 m 5
 217.551757812 475.643554688 l 5
 320.651367188 475.643554688 l 5
 320.651367188 160.356445312 l 5
 217.551757812 160.356445312 l 5
492.448242188 160.356445312 m 5
 368.756835938 160.356445312 l 5
 295.798828125 302.733398438 l 5
 341.616210938 340.017578125 l 5
 492.448242188 160.356445312 l 5
EndSplineSet
Substitution2: "'salt' Stylistic Alternatives in Latin lookup 3-1" registered.salt
Substitution2: "'ss08' Style Set 8 lookup 16-1" registered.salt
EndChar

StartChar: degree
Encoding: 176 176 125
Width: 366
VWidth: 999
Flags: HW
LayerCount: 2
Fore
SplineSet
143 546 m 4
 143 513 161 500 183 500 c 4
 205 500 224 513 224 546 c 4
 224 579 205 591 183 591 c 0
 161 591 143 579 143 546 c 4
35 546 m 4
 35 627 89 693 183 693 c 0
 277 693 331 627 331 546 c 4
 331 465 277 398 183 398 c 4
 89 398 35 465 35 546 c 4
EndSplineSet
EndChar

StartChar: dieresis
Encoding: 168 168 126
Width: 467
Flags: HW
LayerCount: 2
Fore
SplineSet
255 545.334960938 m 4
 255 602.954101562 293.57421875 640.559570312 343.612304688 640.559570312 c 4
 393.651367188 640.559570312 432.2265625 602.954101562 432.2265625 545.334960938 c 4
 432.2265625 487.71484375 393.651367188 450.110351562 343.612304688 450.110351562 c 4
 293.57421875 450.110351562 255 487.71484375 255 545.334960938 c 4
35 545.334960938 m 0
 35 602.954101562 73.57421875 640.559570312 123.612304688 640.559570312 c 0
 173.651367188 640.559570312 212.2265625 602.954101562 212.2265625 545.334960938 c 0
 212.2265625 487.71484375 173.651367188 450.110351562 123.612304688 450.110351562 c 0
 73.57421875 450.110351562 35 487.71484375 35 545.334960938 c 0
EndSplineSet
EndChar

StartChar: eth
Encoding: 240 240 127
Width: 503
Flags: HW
LayerCount: 2
Fore
SplineSet
451 487 m 1
 146 457 l 1
 133 559 l 1
 437 589 l 1
 451 487 l 1
250.111328125 295.58203125 m 0
 210.852539062 295.58203125 179.206054688 274.04296875 179.206054688 211.200195312 c 0
 179.206054688 148.357421875 210.852539062 126.817382812 250.111328125 126.817382812 c 0
 289.370117188 126.817382812 321.016601562 148.357421875 321.016601562 211.200195312 c 0
 321.016601562 274.04296875 289.370117188 295.58203125 250.111328125 295.58203125 c 0
35 211.200195312 m 0
 35 359.279296875 136.831054688 432.447265625 240.111328125 432.447265625 c 0
 290.751953125 432.447265625 308.30859375 419.279296875 308.30859375 419.279296875 c 1
 275.671875 503.560546875 219.407226562 577.502929688 164.622070312 630.400390625 c 1
 335.221679688 660.400390625 l 1
 335.221679688 660.400390625 468.221679688 459 468.221679688 211.201171875 c 0
 468.221679688 63.1201171875 365.390625 -10.0478515625 250.111328125 -10.0478515625 c 0
 136.831054688 -10.0478515625 35 63.1201171875 35 211.200195312 c 0
EndSplineSet
EndChar

StartChar: germandbls
Encoding: 223 223 128
Width: 551
Flags: HW
LayerCount: 2
Fore
SplineSet
516.345703125 158.959960938 m 0
 516.345703125 50.49609375 438.880859375 -8.0380859375 334.256835938 -8.0380859375 c 0
 268.702148438 -8.0380859375 221.623046875 13.0419921875 221.623046875 13.0419921875 c 1
 238.74609375 136.400390625 l 1
 238.74609375 136.400390625 275.973632812 121.454101562 308.256835938 121.454101562 c 0
 355.6640625 121.454101562 380.981445312 138.685546875 380.981445312 178.959960938 c 0
 380.981445312 219.234375 355.6640625 246.465820312 308.256835938 246.465820312 c 0
 262.569335938 246.465820312 252.22265625 242 252.22265625 242 c 1
 252.22265625 336.206054688 l 1
 252.22265625 336.206054688 255 342 308.256835938 335.958007812 c 0
 410.0546875 324.409179688 516.345703125 277.423828125 516.345703125 158.959960938 c 0
320.016601562 439.3125 m 0
 320.016601562 482.155273438 291.370117188 503.694335938 250.111328125 503.694335938 c 0
 210.852539062 503.694335938 175.599609375 482.155273438 175.599609375 419.3125 c 2
 175.599609375 0 l 1
 35 0 l 1
 35 419.3125 l 2
 35 567.391601562 136.831054688 640.559570312 250.111328125 640.559570312 c 0
 365.390625 640.559570312 465.221679688 567.391601562 465.221679688 449.3125 c 0
 465.221679688 336.115234375 374.22265625 300 252.22265625 282 c 1
 252.22265625 376.206054688 l 1
 294.87109375 376.272460938 320.016601562 400.188476562 320.016601562 439.3125 c 0
EndSplineSet
EndChar

StartChar: y.salt
Encoding: 65551 -1 129
Width: 539
Flags: HW
HStem: -215.87 146.865<51.3648 156.394> 0 21G<196.781 324.956> 402.4 20G<44.3564 201.111 347.659 504.956>
LayerCount: 2
Fore
SplineSet
214.356445312 -10 m 1
 44.3564453125 422.400390625 l 1
 194.956054688 422.400390625 l 1
 304.956054688 20 l 1
 214.356445312 -10 l 1
354.356445312 422.400390625 m 1
 504.956054688 422.400390625 l 1
 306.956054688 -54.623046875 l 2
 260.579791522 -166.35317048 206 -215.870117188 129.844726562 -215.870117188 c 0
 82.6826171875 -215.870117188 55 -209 55 -209 c 1
 63.3564453125 -83 l 1
 63.3564453125 -83 82.7353515625 -89.0048828125 109.844726562 -89.0048828125 c 0
 139.103515625 -89.0048828125 186.046051649 -81.653620164 226 38 c 2
 354.356445312 422.400390625 l 1
EndSplineSet
EndChar

StartChar: section
Encoding: 167 167 130
Width: 452
Flags: HW
LayerCount: 2
Fore
SplineSet
314.978515625 274 m 0
 393.081054688 258.061523438 413.95703125 187.31640625 413.95703125 141.19921875 c 0
 413.95703125 23.1201171875 322.125 -10.0478515625 188.845703125 -10.0478515625 c 0
 111.68359375 -10.0478515625 35 12.822265625 35 12.822265625 c 1
 54.76171875 140.3203125 l 1
 54.76171875 140.3203125 131.736328125 116.817382812 188.845703125 116.817382812 c 0
 248.103515625 116.817382812 267.75 124.356445312 267.75 141.19921875 c 0
 267.75 156.041992188 241.82421875 157.323242188 222.845703125 159.58203125 c 0
 134.845703125 170.055664062 44.845703125 191.17578125 44.845703125 289.255859375 c 0
 44.845703125 390.911132812 143.978515625 430 143.978515625 430 c 1
 198.978515625 392 l 1
 198.978515625 392 180.978515625 370 180.978515625 336 c 0
 180.978515625 301.294921875 227.978515625 291.754882812 314.978515625 274 c 0
250.978515625 250 m 1
 250.978515625 250 282.665039062 261.3515625 282.665039062 296 c 0
 282.665039062 322 260.924804688 327.25390625 230.796875 333 c 0
 83.978515625 361 48.845703125 439.6796875 48.845703125 498.885742188 c 0
 48.845703125 616.96484375 140.67578125 640.1328125 253.95703125 640.1328125 c 0
 351.119140625 640.1328125 405.845703125 611.685546875 405.845703125 611.685546875 c 1
 383.845703125 495.685546875 l 1
 383.845703125 495.685546875 341.06640625 513.267578125 273.95703125 513.267578125 c 0
 214.697265625 513.267578125 202.845703125 505.528320312 202.845703125 494.685546875 c 0
 202.845703125 484.842773438 207.8515625 478.69921875 236.845703125 476.077148438 c 0
 373.845703125 463.685546875 417.95703125 418.909179688 417.95703125 340.829101562 c 0
 417.95703125 240.4296875 263.978515625 208 263.978515625 208 c 1
 250.978515625 250 l 1
EndSplineSet
EndChar

StartChar: guillemotleft
Encoding: 171 171 131
Width: 584
Flags: HW
LayerCount: 2
Fore
SplineSet
549.221679688 478.400390625 m 1
 549.221679688 336.400390625 l 1
 315 262.400390625 l 1
 315 354.400390625 l 1
 549.221679688 478.400390625 l 1
549.221679688 98.400390625 m 1
 315 222.400390625 l 1
 315 314.400390625 l 1
 549.221679688 240.400390625 l 1
 549.221679688 98.400390625 l 1
269.221679688 478.400390625 m 1
 269.221679688 336.400390625 l 1
 35 262.400390625 l 1
 35 354.400390625 l 1
 269.221679688 478.400390625 l 1
269.221679688 98.400390625 m 1
 35 222.400390625 l 1
 35 314.400390625 l 1
 269.221679688 240.400390625 l 1
 269.221679688 98.400390625 l 1
EndSplineSet
EndChar

StartChar: guillemotright
Encoding: 187 187 132
Width: 584
Flags: HW
LayerCount: 2
Fore
SplineSet
35 478.400390625 m 1
 269.221679688 354.400390625 l 1
 269.221679688 262.400390625 l 1
 35 336.400390625 l 1
 35 478.400390625 l 1
35 98.400390625 m 1
 35 240.400390625 l 1
 269.221679688 314.400390625 l 1
 269.221679688 222.400390625 l 1
 35 98.400390625 l 1
315 478.400390625 m 1
 549.221679688 354.400390625 l 1
 549.221679688 262.400390625 l 1
 315 336.400390625 l 1
 315 478.400390625 l 1
315 98.400390625 m 1
 315 240.400390625 l 1
 549.221679688 314.400390625 l 1
 549.221679688 222.400390625 l 1
 315 98.400390625 l 1
EndSplineSet
EndChar

StartChar: currency
Encoding: 164 164 133
Width: 500
Flags: HW
LayerCount: 2
Fore
SplineSet
81.2099609375 429 m 1
 44.22265625 497 l 1
 158.22265625 562 l 1
 205.544921875 475 l 1
 81.2099609375 429 l 1
408.724609375 175 m 1
 458.22265625 84 l 1
 344.22265625 19 l 1
 283.301757812 131 l 1
 408.724609375 175 l 1
250.111328125 69.9521484375 m 0
 136.831054688 69.9521484375 35 143.120117188 35 291.200195312 c 0
 35 439.279296875 136.831054688 512.447265625 250.111328125 512.447265625 c 0
 363.391601562 512.447265625 465.22265625 439.279296875 465.22265625 291.200195312 c 0
 465.22265625 143.120117188 363.391601562 69.9521484375 250.111328125 69.9521484375 c 0
250.111328125 375.58203125 m 0
 210.852539062 375.58203125 179.206054688 354.04296875 179.206054688 291.200195312 c 0
 179.206054688 228.357421875 210.852539062 206.817382812 250.111328125 206.817382812 c 0
 289.370117188 206.817382812 321.016601562 228.357421875 321.016601562 291.200195312 c 0
 321.016601562 354.04296875 289.370117188 375.58203125 250.111328125 375.58203125 c 0
419.012695312 429 m 1
 294.677734375 475 l 1
 342 562 l 1
 456 497 l 1
 419.012695312 429 l 1
91.498046875 175 m 1
 216.920898438 131 l 1
 156 19 l 1
 42 84 l 1
 91.498046875 175 l 1
EndSplineSet
EndChar

StartChar: ampersand
Encoding: 38 38 134
Width: 633
Flags: HW
HStem: -10.0479 132.255<183.042 309.799> 502.098 138.462<246.402 428.848>
VStem: 35 144.206<128.741 186.261> 92 136.849<368.796 482.196>
LayerCount: 2
Fore
SplineSet
250.981445312 307.875 m 1xe0
 278 238 l 0
 195 214 179.206054688 197.940429688 179.206054688 169.200195312 c 0
 179.206054688 140.884765625 206.459960938 122.20703125 241 122.20703125 c 0
 281 122.20703125 355 141 450 391 c 1
 577.20703125 335 l 1
 468 113 380.356445312 -10.0478515625 227.111328125 -10.0478515625 c 0
 102.831054688 -10.0478515625 35 58.1201171875 35 136.200195312 c 0
 35 285.224609375 208 303 250.981445312 307.875 c 1xe0
598.000976562 0 m 1
 598.000976562 0 580 -10.0478515625 520.111328125 -10.0478515625 c 0
 408.830078125 -10.0478515625 357 39 285.888671875 122.440429688 c 4
 231.120117188 186.705078125 92 336.400390625 92 454 c 0
 92 571.599609375 184.2890625 640.559570312 315.888671875 640.559570312 c 0
 436.5859375 640.559570312 491 602 491 602 c 1
 447.669921875 470 l 1
 447.669921875 470 407.006835938 502.09765625 315.888671875 502.09765625 c 0
 257.046875 502.09765625 228.848632812 473.817382812 228.848632812 440 c 0xd0
 228.848632812 398.182617188 254.33203125 334.637695312 305.888671875 270.90234375 c 0
 393.715820312 162.328125 428.157226562 101.087890625 586.850585938 120 c 1
 598.000976562 0 l 1
EndSplineSet
Substitution2: "'ss05' Style Set 5 lookup 13-1" ampersand.alt
Substitution2: "'salt' Stylistic Alternatives in Latin lookup 3-1" ampersand.alt
EndChar

StartChar: underscore
Encoding: 95 95 135
Width: 731
Flags: HW
LayerCount: 2
Fore
SplineSet
696 -132 m 5
 35 -132 l 1
 35 0 l 1
 696 0 l 5
 696 -132 l 5
EndSplineSet
EndChar

StartChar: asciitilde
Encoding: 126 126 136
Width: 456
VWidth: 999
Flags: HW
LayerCount: 2
Fore
SplineSet
421 282 m 1
 421 282 373 214 299 214 c 0
 236 214 215 253 169 253 c 0
 131 253 100 219 100 219 c 1
 35 332 l 1
 35 332 88 382 157 382 c 0
 219 382 245 344 287 344 c 0
 330 344 352 374 352 374 c 1
 421 282 l 1
EndSplineSet
EndChar

StartChar: brokenbar
Encoding: 166 166 137
Width: 192
Flags: HW
LayerCount: 2
Fore
SplineSet
157 340 m 1
 35 340 l 1
 35 708 l 1
 157 708 l 1
 157 340 l 1
157 -80 m 1
 35 -80 l 1
 35 260 l 5
 157 260 l 5
 157 -80 l 1
EndSplineSet
EndChar

StartChar: uni00AD
Encoding: 173 173 138
Width: 308
Flags: W
HStem: 147.4 132<35 273>
VStem: 35 238<147.4 279.4>
LayerCount: 2
Fore
SplineSet
273 147.400390625 m 1
 35 147.400390625 l 1
 35 279.400390625 l 1
 273 279.400390625 l 1
 273 147.400390625 l 1
EndSplineSet
EndChar

StartChar: logicalnot
Encoding: 172 172 139
Width: 369
Flags: HW
HStem: 147.4 132<35 273>
VStem: 35 238<147.4 279.4>
LayerCount: 2
Fore
SplineSet
334 279.400390625 m 5
 334 41.400390625 l 5
 202 41.400390625 l 5
 202 249.400390625 l 5
 334 279.400390625 l 5
304 147.400390625 m 5
 35 147.400390625 l 1
 35 279.400390625 l 1
 334 279.400390625 l 5
 304 147.400390625 l 5
EndSplineSet
EndChar

StartChar: plusminus
Encoding: 177 177 140
Width: 468
Flags: HW
LayerCount: 2
Fore
SplineSet
300 335.400390625 m 1
 300 147.400390625 l 5
 168 147.400390625 l 5
 168 335.400390625 l 1
 300 335.400390625 l 1
433 97.400390625 m 5
 35 97.400390625 l 5
 35 229.400390625 l 5
 433 229.400390625 l 5
 433 97.400390625 l 5
300 575.400390625 m 1
 300 427.400390625 l 1
 168 427.400390625 l 1
 168 575.400390625 l 1
 300 575.400390625 l 1
433 310.400390625 m 1
 35 310.400390625 l 1
 35 442.400390625 l 1
 433 442.400390625 l 1
 433 310.400390625 l 1
EndSplineSet
EndChar

StartChar: circumflex
Encoding: 710 710 141
Width: 392
VWidth: 999
Flags: HW
LayerCount: 2
Fore
SplineSet
357 485 m 1
 235 475 l 1
 125 633 l 5
 267 633 l 5
 357 485 l 1
35 485 m 1
 125 633 l 5
 267 633 l 5
 157 475 l 1
 35 485 l 1
EndSplineSet
EndChar

StartChar: caron
Encoding: 711 711 142
Width: 392
VWidth: 999
Flags: HW
LayerCount: 2
Fore
SplineSet
35 623 m 1
 157 633 l 1
 267 475 l 5
 125 475 l 5
 35 623 l 1
357 623 m 1
 267 475 l 5
 125 475 l 5
 235 633 l 1
 357 623 l 1
EndSplineSet
EndChar

StartChar: breve
Encoding: 728 728 143
Width: 437
VWidth: 999
Flags: HW
LayerCount: 2
Fore
SplineSet
219 600 m 4
 302 600 333 630 333 630 c 5
 402 558 l 5
 402 558 343 470 219 470 c 4
 95 470 35 558 35 558 c 5
 104 630 l 5
 104 630 136 600 219 600 c 4
EndSplineSet
EndChar

StartChar: dotaccent
Encoding: 729 729 144
Width: 247
VWidth: 999
Flags: HW
LayerCount: 2
Fore
SplineSet
35 546 m 0
 35 604 73 641 123 641 c 0
 173 641 212 604 212 546 c 0
 212 488 173 451 123 451 c 0
 73 451 35 488 35 546 c 0
EndSplineSet
EndChar

StartChar: ring
Encoding: 730 730 145
Width: 346
VWidth: 999
Flags: HW
LayerCount: 2
Fore
SplineSet
143 546 m 4
 143 513 156 500 173 500 c 4
 190 500 204 513 204 546 c 4
 204 579 190 591 173 591 c 4
 156 591 143 579 143 546 c 4
35 546 m 0
 35 627 89 693 173 693 c 0
 257 693 311 627 311 546 c 0
 311 465 257 398 173 398 c 0
 89 398 35 465 35 546 c 0
EndSplineSet
EndChar

StartChar: ogonek
Encoding: 731 731 146
Width: 352
VWidth: 999
Flags: HW
LayerCount: 2
Fore
SplineSet
35 -109 m 4
 35 -44 80.013671875 -11.5849609375 145 15 c 4
 189 33 223 36 223 36 c 5
 288 20 l 5
 288 20 242.180664062 2.94140625 210 -19 c 4
 188 -34 174 -56 174 -80 c 4
 174 -105 186 -138 231 -138 c 4
 271 -138 289 -127 289 -127 c 5
 317 -229 l 5
 317 -229 264 -246 195 -246 c 4
 113 -246 35 -193 35 -109 c 4
EndSplineSet
EndChar

StartChar: tilde
Encoding: 732 732 147
Width: 456
VWidth: 999
Flags: HW
LayerCount: 2
Fore
SplineSet
421 538 m 1
 421 538 373 470 299 470 c 0
 236 470 215 509 169 509 c 0
 131 509 100 475 100 475 c 1
 35 587 l 1
 35 587 88 638 157 638 c 0
 219 638 245 600 287 600 c 0
 330 600 352 630 352 630 c 1
 421 538 l 1
EndSplineSet
EndChar

StartChar: hungarumlaut
Encoding: 733 733 148
Width: 512
VWidth: 999
Flags: HW
LayerCount: 2
Fore
SplineSet
245 485 m 1
 335 633 l 1
 477 623 l 1
 367 475 l 1
 245 485 l 1
35 485 m 1
 125 633 l 1
 267 623 l 1
 157 475 l 1
 35 485 l 1
EndSplineSet
EndChar

StartChar: gravecomb
Encoding: 768 768 149
Width: 0
VWidth: 999
Flags: HW
LayerCount: 2
Fore
SplineSet
116 485 m 5
 -6 475 l 5
 -116 623 l 5
 26 633 l 5
 116 485 l 5
EndSplineSet
EndChar

StartChar: acutecomb
Encoding: 769 769 150
Width: 0
VWidth: 999
Flags: HW
LayerCount: 2
Fore
SplineSet
-116 485 m 5
 -26 633 l 5
 116 623 l 5
 6 475 l 5
 -116 485 l 5
EndSplineSet
EndChar

StartChar: uni0302
Encoding: 770 770 151
Width: 0
VWidth: 999
Flags: HW
LayerCount: 2
Fore
SplineSet
161 485 m 1
 39 475 l 1
 -71 633 l 5
 71 633 l 5
 161 485 l 1
-161 485 m 1
 -71 633 l 5
 71 633 l 5
 -39 475 l 1
 -161 485 l 1
EndSplineSet
EndChar

StartChar: tildecomb
Encoding: 771 771 152
Width: 0
VWidth: 999
Flags: HW
LayerCount: 2
Fore
SplineSet
193 538 m 5
 193 538 145 470 71 470 c 4
 8 470 -12 509 -58 509 c 4
 -96 509 -128 475 -128 475 c 5
 -193 587 l 5
 -193 587 -140 638 -71 638 c 4
 -9 638 17 600 59 600 c 4
 102 600 124 630 124 630 c 5
 193 538 l 5
EndSplineSet
EndChar

StartChar: uni0304
Encoding: 772 772 153
Width: 0
VWidth: 999
Flags: HW
LayerCount: 2
Fore
SplineSet
145 496 m 1
 -145 496 l 1
 -145 628 l 1
 145 628 l 1
 145 496 l 1
EndSplineSet
EndChar

StartChar: uni0306
Encoding: 774 774 154
Width: 0
VWidth: 999
Flags: HW
LayerCount: 2
Fore
SplineSet
0 600 m 4
 83 600 115 630 115 630 c 5
 184 558 l 5
 184 558 124 470 0 470 c 4
 -124 470 -184 558 -184 558 c 5
 -115 630 l 5
 -115 630 -83 600 0 600 c 4
EndSplineSet
EndChar

StartChar: uni0307
Encoding: 775 775 155
Width: 0
VWidth: 999
Flags: HW
LayerCount: 2
Fore
SplineSet
-89 546 m 0
 -89 604 -50 641 0 641 c 0
 50 641 89 604 89 546 c 0
 89 488 50 451 0 451 c 0
 -50 451 -89 488 -89 546 c 0
EndSplineSet
EndChar

StartChar: uni0308
Encoding: 776 776 156
Width: 0
VWidth: 999
Flags: HW
LayerCount: 2
Fore
SplineSet
21 546 m 4
 21 604 60 641 110 641 c 4
 160 641 198 604 198 546 c 4
 198 488 160 451 110 451 c 4
 60 451 21 488 21 546 c 4
-198 546 m 0
 -198 604 -160 641 -110 641 c 0
 -60 641 -21 604 -21 546 c 0
 -21 488 -60 451 -110 451 c 0
 -160 451 -198 488 -198 546 c 0
EndSplineSet
EndChar

StartChar: hookabovecomb
Encoding: 777 777 157
Width: 0
VWidth: 999
Flags: HW
LayerCount: 2
Fore
SplineSet
141 546 m 4
 141 481 98 443 31 422 c 4
 -22 405 -56 404 -56 404 c 5
 -63 513 l 1
 -63 513 -37 516 -23 520 c 0
 -8 524 12 531 12 545 c 0
 12 559 0 575 -45 575 c 0
 -85 575 -103 564 -103 564 c 1
 -141 666 l 5
 -141 666 -88 683 -19 683 c 4
 63 683 141 630 141 546 c 4
EndSplineSet
EndChar

StartChar: uni030A
Encoding: 778 778 158
Width: 0
VWidth: 999
Flags: HW
LayerCount: 2
Fore
SplineSet
-30 546 m 4
 -30 513 -17 500 0 500 c 4
 17 500 30 513 30 546 c 4
 30 579 17 591 0 591 c 4
 -17 591 -30 579 -30 546 c 4
-138 546 m 0
 -138 627 -84 693 0 693 c 0
 84 693 138 627 138 546 c 0
 138 465 84 398 0 398 c 0
 -84 398 -138 465 -138 546 c 0
EndSplineSet
EndChar

StartChar: uni030B
Encoding: 779 779 159
Width: 0
VWidth: 999
Flags: HW
LayerCount: 2
Fore
SplineSet
-11 485 m 1
 79 633 l 1
 221 623 l 1
 111 475 l 1
 -11 485 l 1
-221 485 m 1
 -131 633 l 1
 11 623 l 1
 -99 475 l 1
 -221 485 l 1
EndSplineSet
EndChar

StartChar: uni030C
Encoding: 780 780 160
Width: 0
VWidth: 999
Flags: HW
LayerCount: 2
Fore
SplineSet
-161 623 m 1
 -39 633 l 1
 71 475 l 5
 -71 475 l 5
 -161 623 l 1
161 623 m 1
 71 475 l 5
 -71 475 l 5
 39 633 l 1
 161 623 l 1
EndSplineSet
EndChar

StartChar: uni030F
Encoding: 783 783 161
Width: 0
VWidth: 999
Flags: HW
LayerCount: 2
Fore
SplineSet
11 485 m 1
 -111 475 l 1
 -221 623 l 1
 -79 633 l 1
 11 485 l 1
221 485 m 1
 99 475 l 1
 -11 623 l 1
 131 633 l 1
 221 485 l 1
EndSplineSet
EndChar

StartChar: uni0311
Encoding: 785 785 162
Width: 0
VWidth: 999
Flags: HW
LayerCount: 2
Fore
SplineSet
0 500 m 0
 -83 500 -115 470 -115 470 c 1
 -184 542 l 1
 -184 542 -124 630 0 630 c 0
 124 630 184 542 184 542 c 1
 115 470 l 1
 115 470 83 500 0 500 c 0
EndSplineSet
EndChar

StartChar: uni0326
Encoding: 806 806 163
Width: 0
VWidth: 999
Flags: HW
LayerCount: 2
Fore
SplineSet
-89 -56 m 0
 -89 4 -50 30 0 30 c 0
 50 30 89 4 89 -56 c 0
 89 -170 -9 -246 -9 -246 c 1
 -70 -201 l 1
 3 -138 l 1
 -44 -134 -89 -107 -89 -56 c 0
EndSplineSet
EndChar

StartChar: uni0327
Encoding: 807 807 164
Width: 0
VWidth: 999
Flags: HW
LayerCount: 2
Fore
SplineSet
23 32 m 1
 1 -68 l 1
 -39 -59 l 1
 -46 -101 l 1
 -100 -68 l 1
 -87 32 l 1
 23 32 l 1
141 -125 m 0
 141 -209 63 -243 -19 -243 c 0
 -88 -243 -141 -225 -141 -225 c 1
 -113 -127 l 1
 -113 -127 -95 -138 -55 -138 c 0
 -10 -138 2 -122 2 -108 c 0
 2 -94 -7 -87 -23 -87 c 0
 -41 -87 -46 -101 -46 -101 c 1
 -43 -59 l 1
 -43 -59 -27 -24 31 -24 c 0
 101 -24 141 -60 141 -125 c 0
EndSplineSet
EndChar

StartChar: uni0328
Encoding: 808 808 165
Width: 0
VWidth: 999
Flags: HW
LayerCount: 2
Fore
SplineSet
-141 -109 m 4
 -141 -44 -95.9863157822 -11.5853110018 -31 15 c 4
 13 33 47 36 47 36 c 5
 112 20 l 5
 112 20 66.1804678428 2.9412280746 34 -19 c 4
 12 -34 -2 -56 -2 -80 c 4
 -2 -105 10 -138 55 -138 c 4
 95 -138 113 -127 113 -127 c 5
 141 -229 l 5
 141 -229 88 -246 19 -246 c 4
 -63 -246 -141 -193 -141 -109 c 4
EndSplineSet
EndChar

StartChar: quotesingle
Encoding: 39 39 166
Width: 212
Flags: HW
LayerCount: 2
Fore
SplineSet
55 380 m 5
 35 628 l 1
 177 628 l 1
 157 380 l 5
 55 380 l 5
EndSplineSet
EndChar

StartChar: quotedbl
Encoding: 34 34 167
Width: 414
Flags: HW
LayerCount: 2
Fore
SplineSet
257 380 m 5
 237 628 l 5
 379 628 l 5
 359 380 l 5
 257 380 l 5
55 380 m 1
 35 628 l 1
 177 628 l 1
 157 380 l 1
 55 380 l 1
EndSplineSet
EndChar

StartChar: asterisk
Encoding: 42 42 168
Width: 418
Flags: HW
LayerCount: 2
Fore
SplineSet
124.250976562 502.829101562 m 5
 73.009765625 582.733398438 l 5
 171.390625 639.533203125 l 5
 209.400390625 551.990234375 l 5
 247.41015625 639.533203125 l 5
 345.791015625 582.733398438 l 5
 294.549804688 502.829101562 l 5
 383.80078125 510.467773438 l 5
 383.80078125 396.868164062 l 5
 294.549804688 404.506835938 l 5
 345.791015625 324.602539062 l 5
 247.41015625 267.802734375 l 5
 209.400390625 355.345703125 l 5
 171.390625 267.802734375 l 5
 73.009765625 324.602539062 l 5
 124.250976562 404.506835938 l 5
 35 396.868164062 l 5
 35 510.467773438 l 5
 124.250976562 502.829101562 l 5
EndSplineSet
EndChar

StartChar: zero.numr
Encoding: 65552 -1 169
Width: 445
Flags: HW
LayerCount: 2
Fore
SplineSet
177.71484375 420 m 0
 177.71484375 361.83984375 187.78515625 326.9296875 222.764648438 326.9296875 c 0
 257.745117188 326.9296875 267.28515625 361.83984375 267.28515625 420 c 0
 267.28515625 478.16015625 257.745117188 513.0703125 222.764648438 513.0703125 c 0
 187.78515625 513.0703125 177.71484375 478.16015625 177.71484375 420 c 0
35 420 m 0
 35 556 101 644 223 644 c 0
 345 644 410 556 410 420 c 0
 410 284 345 196 223 196 c 0
 101 196 35 284 35 420 c 0
EndSplineSet
Substitution2: "Single Substitution lookup 25 subtable" zero.dnom
Substitution2: "Single Substitution lookup 24 subtable" zero.dnom
EndChar

StartChar: one.numr
Encoding: 65553 -1 170
Width: 349
Flags: HW
LayerCount: 2
Fore
SplineSet
157 470 m 5
 101.155273438 422.884765625 l 1
 35 544 l 1
 157 630 l 1
 157 470 l 5
157 211 m 1
 157 630 l 1
 314 630 l 1
 314 211 l 1
 157 211 l 1
EndSplineSet
Substitution2: "Single Substitution lookup 25 subtable" one.dnom
Substitution2: "Single Substitution lookup 24 subtable" one.dnom
EndChar

StartChar: two.numr
Encoding: 65554 -1 171
Width: 388
Flags: HW
LayerCount: 2
Fore
SplineSet
35 352 m 1
 84 359 l 1
 351 359 l 1
 351 211 l 1
 35 211 l 1
 35 352 l 1
165 444 m 0
 181 450 205 453 205 466 c 0
 205 475 189 484 147 484 c 0
 93 484 61 468 61 468 c 1
 42 602 l 1
 42 602 100 638 177 638 c 0
 282 638 353 600 353 523 c 0
 353 453 321.369140625 422.814453125 250 397 c 0
 203 380 182 364 174 337 c 1
 170 233 l 1
 35 352 l 1
 50 406 102.75 420.65625 165 444 c 0
EndSplineSet
Substitution2: "Single Substitution lookup 25 subtable" two.dnom
Substitution2: "Single Substitution lookup 24 subtable" two.dnom
EndChar

StartChar: three.numr
Encoding: 65555 -1 172
Width: 396
Flags: HW
LayerCount: 2
Fore
SplineSet
165 445 m 1
 329 441 361 365 361 318 c 0
 361 237 283 196 177 196 c 0
 100 196 35 240 35 240 c 1
 70 364 l 1
 70 364 108 351 138 351 c 0
 171 351 208 352 208 366 c 0
 208 383 185 377 165 377 c 1
 165 445 l 1
165 415 m 1
 165 468 l 1
 182 466 201 465 201 476 c 0
 201 485 186 489 153 489 c 0
 124 489 81 481 81 481 c 5
 55 607 l 1
 55 607 100 644 177 644 c 0
 283 644 354 603 354 522 c 0
 354 441 258 403 165 415 c 1
EndSplineSet
Substitution2: "Single Substitution lookup 25 subtable" three.dnom
Substitution2: "Single Substitution lookup 24 subtable" three.dnom
EndChar

StartChar: four.numr
Encoding: 65556 -1 173
Width: 425
Flags: HW
LayerCount: 2
Fore
SplineSet
390 277 m 1
 35 277 l 1
 35 427 l 1
 390 427 l 1
 390 277 l 1
196 482 m 1
 155 427 l 1
 35 427 l 1
 196 630 l 1
 196 482 l 1
196 211 m 1
 196 630 l 1
 353 630 l 1
 353 211 l 1
 196 211 l 1
EndSplineSet
Substitution2: "Single Substitution lookup 25 subtable" four.dnom
Substitution2: "Single Substitution lookup 24 subtable" four.dnom
EndChar

StartChar: five.numr
Encoding: 65557 -1 174
Width: 397
Flags: HW
LayerCount: 2
Fore
SplineSet
68 630 m 1
 211 630 l 1
 180 425 l 1
 98 405 l 1
 43 439 l 1
 68 630 l 1
68 630 m 1
 339 630 l 1
 339 482 l 1
 122 482 l 1
 68 630 l 1
79 389 m 1
 43 439 l 0
 110 416 l 5
 160 465 362 494 362 346 c 0
 362 240 288 203 183 203 c 0
 107 203 35 239 35 239 c 1
 63 383 l 1
 63 383 99 357 153 357 c 0
 185 357 206 360 206 378 c 0
 206 393 188 414 79 389 c 1
EndSplineSet
Substitution2: "Single Substitution lookup 25 subtable" five.dnom
Substitution2: "Single Substitution lookup 24 subtable" five.dnom
EndChar

StartChar: six.numr
Encoding: 65558 -1 175
Width: 443
Flags: HW
HStem: 203 118.68<194.17 258.982> 368.32 112.21<192.753 296.282> 511.27 132.73<198.7 332.231>
LayerCount: 2
Fore
SplineSet
184.530273438 448.73046875 m 1
 191.419921875 464.629882812 206.259765625 480.530273438 258.58984375 480.530273438 c 0
 333.1796875 480.530273438 399 432 399 349 c 0
 399 274 338 203 223 203 c 0
 101 203 35 284 35 420 c 0
 35 556 100 644 237 644 c 0
 362 644 408 592 408 592 c 1
 349.469726562 477.490234375 l 1
 349.469726562 477.490234375 311.450195312 511.26953125 261.76953125 511.26953125 c 0
 202.549804688 511.26953125 185.059570312 486.360351562 184.530273438 448.73046875 c 1
227.059570312 321.6796875 m 0
 247.73046875 321.6796875 259.389648438 331.219726562 259.389648438 346.58984375 c 0
 259.389648438 356.129882812 252.5 368.3203125 226 368.3203125 c 0
 203.740234375 368.3203125 192.610351562 359.309570312 192.610351562 347.120117188 c 0
 192.610351562 329.099609375 209.040039062 321.6796875 227.059570312 321.6796875 c 0
EndSplineSet
Substitution2: "Single Substitution lookup 25 subtable" six.dnom
Substitution2: "Single Substitution lookup 24 subtable" six.dnom
Substitution2: "'salt' Stylistic Alternatives in Latin lookup 3-1" six.salt.numr
EndChar

StartChar: seven.numr
Encoding: 65559 -1 176
Width: 388
Flags: HW
LayerCount: 2
Fore
SplineSet
353 481 m 1
 35 481 l 1
 35 630 l 1
 353 630 l 1
 353 481 l 1
72 211 m 5
 86 442 208 493 208 493 c 1
 353 481 l 1
 353 481 249 445 236 211 c 5
 72 211 l 5
EndSplineSet
Substitution2: "Single Substitution lookup 25 subtable" seven.dnom
Substitution2: "Single Substitution lookup 24 subtable" seven.dnom
EndChar

StartChar: eight.numr
Encoding: 65560 -1 177
Width: 430
Flags: HW
LayerCount: 2
Fore
SplineSet
182.96484375 497.169921875 m 0
 182.96484375 489.219726562 192.504882812 481.799804688 214.764648438 481.799804688 c 0
 237.025390625 481.799804688 246.565429688 488.690429688 246.565429688 497.169921875 c 0
 246.565429688 507.240234375 237.025390625 515.719726562 214.764648438 515.719726562 c 0
 192.504882812 515.719726562 182.96484375 507.240234375 182.96484375 497.169921875 c 0
55 528 m 0
 55 600 116 644 215 644 c 0
 314 644 375 600 375 528 c 0
 375 449 314 414 215 414 c 0
 116 414 55 450 55 528 c 0
173.424804688 357.599609375 m 0
 173.424804688 344.879882812 184.5546875 334.280273438 214.764648438 334.280273438 c 0
 244.974609375 334.280273438 255.575195312 344.349609375 255.575195312 357.599609375 c 0
 255.575195312 368.200195312 244.974609375 379.330078125 214.764648438 379.330078125 c 0
 184.5546875 379.330078125 173.424804688 368.200195312 173.424804688 357.599609375 c 0
35 332 m 0
 35 413 103 454 215 454 c 0
 327 454 395 413 395 332 c 0
 395 251 327 203 215 203 c 0
 103 203 35 252 35 332 c 0
EndSplineSet
Substitution2: "Single Substitution lookup 25 subtable" eight.dnom
Substitution2: "Single Substitution lookup 24 subtable" eight.dnom
EndChar

StartChar: nine.numr
Encoding: 65561 -1 178
Width: 434
Flags: HW
HStem: 203 132.73<89.3312 235.3> 366.47 112.21<137.718 241.247> 525.32 118.68<175.018 239.83>
LayerCount: 2
Fore
SplineSet
249.469726562 398.26953125 m 1
 242.580078125 382.370117188 227.740234375 366.469726562 175.41015625 366.469726562 c 0
 100.8203125 366.469726562 35 415 35 498 c 0
 35 573 96 644 211 644 c 0
 333 644 399 563 399 427 c 0
 399 291 334 203 197 203 c 0
 112 203 73 222 73 222 c 1
 91.5302734375 346.509765625 l 1
 91.5302734375 346.509765625 122.549804688 335.73046875 172.23046875 335.73046875 c 0
 231.450195312 335.73046875 248.940429688 360.639648438 249.469726562 398.26953125 c 1
206.940429688 525.3203125 m 0
 186.26953125 525.3203125 174.610351562 515.780273438 174.610351562 500.41015625 c 0
 174.610351562 490.870117188 181.5 478.6796875 208 478.6796875 c 0
 230.259765625 478.6796875 241.389648438 487.690429688 241.389648438 499.879882812 c 0
 241.389648438 517.900390625 224.959960938 525.3203125 206.940429688 525.3203125 c 0
EndSplineSet
Substitution2: "Single Substitution lookup 25 subtable" nine.dnom
Substitution2: "Single Substitution lookup 24 subtable" nine.dnom
Substitution2: "'salt' Stylistic Alternatives in Latin lookup 3-1" nine.salt.numr
EndChar

StartChar: zero.dnom
Encoding: 65562 -1 179
Width: 445
Flags: HW
HStem: -15 130.93<189.319 256.313> 302.07 130.93<189.319 256.313>
VStem: 35 142.715<125.507 292.493> 267.285 142.715<125.08 292.92>
LayerCount: 2
Fore
SplineSet
177.71484375 209 m 0
 177.71484375 150.83984375 187.78515625 115.9296875 222.764648438 115.9296875 c 0
 257.745117188 115.9296875 267.28515625 150.83984375 267.28515625 209 c 0
 267.28515625 267.16015625 257.745117188 302.0703125 222.764648438 302.0703125 c 0
 187.78515625 302.0703125 177.71484375 267.16015625 177.71484375 209 c 0
35 209 m 0
 35 345 101 433 223 433 c 0
 345 433 410 345 410 209 c 0
 410 73 345 -15 223 -15 c 0
 101 -15 35 73 35 209 c 0
EndSplineSet
EndChar

StartChar: one.dnom
Encoding: 65563 -1 180
Width: 349
Flags: HW
LayerCount: 2
Fore
SplineSet
157 259 m 5
 101.155273438 211.884765625 l 1
 35 333 l 1
 157 419 l 1
 157 259 l 5
157 0 m 1
 157 419 l 1
 314 419 l 1
 314 0 l 1
 157 0 l 1
EndSplineSet
EndChar

StartChar: two.dnom
Encoding: 65564 -1 181
Width: 388
Flags: HW
LayerCount: 2
Fore
SplineSet
35 141 m 1
 84 148 l 1
 351 148 l 1
 351 0 l 1
 35 0 l 1
 35 141 l 1
165 233 m 0
 181 239 205 242 205 255 c 0
 205 264 189 273 147 273 c 0
 93 273 61 257 61 257 c 1
 42 391 l 1
 42 391 100 427 177 427 c 0
 282 427 353 389 353 312 c 0
 353 242 321.369140625 211.814453125 250 186 c 0
 203 169 182 153 174 126 c 1
 170 22 l 1
 35 141 l 1
 50 195 102.75 209.65625 165 233 c 0
EndSplineSet
EndChar

StartChar: three.dnom
Encoding: 65565 -1 182
Width: 396
Flags: HW
LayerCount: 2
Fore
SplineSet
165 234 m 1
 329 230 361 154 361 107 c 0
 361 26 283 -15 177 -15 c 0
 100 -15 35 29 35 29 c 1
 70 153 l 1
 70 153 108 140 138 140 c 0
 171 140 208 141 208 155 c 0
 208 172 185 166 165 166 c 1
 165 234 l 1
165 204 m 1
 165 257 l 1
 182 255 201 254 201 265 c 0
 201 274 186 278 153 278 c 0
 124 278 81 270 81 270 c 5
 55 396 l 1
 55 396 100 433 177 433 c 0
 283 433 354 392 354 311 c 0
 354 230 258 192 165 204 c 1
EndSplineSet
EndChar

StartChar: four.dnom
Encoding: 65566 -1 183
Width: 425
Flags: HW
LayerCount: 2
Fore
SplineSet
390 66 m 1
 35 66 l 1
 35 216 l 1
 390 216 l 1
 390 66 l 1
196 271 m 1
 155 216 l 1
 35 216 l 1
 196 419 l 1
 196 271 l 1
196 0 m 1
 196 419 l 1
 353 419 l 1
 353 0 l 1
 196 0 l 1
EndSplineSet
EndChar

StartChar: five.dnom
Encoding: 65567 -1 184
Width: 397
Flags: HW
LayerCount: 2
Fore
SplineSet
68 419 m 1
 211 419 l 1
 180 214 l 1
 98 194 l 1
 43 228 l 1
 68 419 l 1
68 419 m 1
 339 419 l 1
 339 271 l 1
 122 271 l 1
 68 419 l 1
79 178 m 1
 43 228 l 0
 110 205 l 5
 160 254 362 283 362 135 c 0
 362 29 288 -8 183 -8 c 0
 107 -8 35 28 35 28 c 1
 63 172 l 1
 63 172 99 146 153 146 c 0
 185 146 206 149 206 167 c 0
 206 182 188 203 79 178 c 1
EndSplineSet
EndChar

StartChar: six.dnom
Encoding: 65568 -1 185
Width: 443
Flags: HW
LayerCount: 2
Fore
SplineSet
184.530273438 237.73046875 m 1
 191.419921875 253.629882812 206.259765625 269.530273438 258.58984375 269.530273438 c 0
 333.1796875 269.530273438 399 221 399 138 c 0
 399 63 338 -8 223 -8 c 0
 101 -8 35 73 35 209 c 0
 35 345 100 433 237 433 c 0
 362 433 408 381 408 381 c 1
 349.469726562 266.490234375 l 1
 349.469726562 266.490234375 311.450195312 300.26953125 261.76953125 300.26953125 c 0
 202.549804688 300.26953125 185.059570312 275.360351562 184.530273438 237.73046875 c 1
227.059570312 110.6796875 m 0
 247.73046875 110.6796875 259.389648438 120.219726562 259.389648438 135.58984375 c 0
 259.389648438 145.129882812 252.5 157.3203125 226 157.3203125 c 0
 203.740234375 157.3203125 192.610351562 148.309570312 192.610351562 136.120117188 c 0
 192.610351562 118.099609375 209.040039062 110.6796875 227.059570312 110.6796875 c 0
EndSplineSet
Substitution2: "'salt' Stylistic Alternatives in Latin lookup 3-1" six.salt.dnom
EndChar

StartChar: seven.dnom
Encoding: 65569 -1 186
Width: 388
Flags: HW
LayerCount: 2
Fore
SplineSet
353 270 m 1
 35 270 l 1
 35 419 l 1
 353 419 l 1
 353 270 l 1
72 0 m 5
 86 231 208 282 208 282 c 1
 353 270 l 1
 353 270 249 234 236 0 c 5
 72 0 l 5
EndSplineSet
EndChar

StartChar: eight.dnom
Encoding: 65570 -1 187
Width: 430
Flags: HW
LayerCount: 2
Fore
SplineSet
182.96484375 286.169921875 m 0
 182.96484375 278.219726562 192.504882812 270.799804688 214.764648438 270.799804688 c 0
 237.025390625 270.799804688 246.565429688 277.690429688 246.565429688 286.169921875 c 0
 246.565429688 296.240234375 237.025390625 304.719726562 214.764648438 304.719726562 c 0
 192.504882812 304.719726562 182.96484375 296.240234375 182.96484375 286.169921875 c 0
55 317 m 0
 55 389 116 433 215 433 c 0
 314 433 375 389 375 317 c 0
 375 238 314 203 215 203 c 0
 116 203 55 239 55 317 c 0
173.424804688 146.599609375 m 0
 173.424804688 133.879882812 184.5546875 123.280273438 214.764648438 123.280273438 c 0
 244.974609375 123.280273438 255.575195312 133.349609375 255.575195312 146.599609375 c 0
 255.575195312 157.200195312 244.974609375 168.330078125 214.764648438 168.330078125 c 0
 184.5546875 168.330078125 173.424804688 157.200195312 173.424804688 146.599609375 c 0
35 121 m 0
 35 202 103 243 215 243 c 0
 327 243 395 202 395 121 c 0
 395 40 327 -8 215 -8 c 0
 103 -8 35 41 35 121 c 0
EndSplineSet
EndChar

StartChar: nine.dnom
Encoding: 65571 -1 188
Width: 434
Flags: HW
HStem: -8 132.73<89.3312 235.3> 155.47 112.21<137.718 241.247> 314.32 118.68<175.018 239.83>
LayerCount: 2
Fore
SplineSet
249.469726562 187.26953125 m 1
 242.580078125 171.370117188 227.740234375 155.469726562 175.41015625 155.469726562 c 0
 100.8203125 155.469726562 35 204 35 287 c 0
 35 362 96 433 211 433 c 0
 333 433 399 352 399 216 c 0
 399 80 334 -8 197 -8 c 0
 112 -8 73 11 73 11 c 1
 91.5302734375 135.509765625 l 1
 91.5302734375 135.509765625 122.549804688 124.73046875 172.23046875 124.73046875 c 0
 231.450195312 124.73046875 248.940429688 149.639648438 249.469726562 187.26953125 c 1
206.940429688 314.3203125 m 0
 186.26953125 314.3203125 174.610351562 304.780273438 174.610351562 289.41015625 c 0
 174.610351562 279.870117188 181.5 267.6796875 208 267.6796875 c 0
 230.259765625 267.6796875 241.389648438 276.690429688 241.389648438 288.879882812 c 0
 241.389648438 306.900390625 224.959960938 314.3203125 206.940429688 314.3203125 c 0
EndSplineSet
Substitution2: "'salt' Stylistic Alternatives in Latin lookup 3-1" nine.salt.dnom
EndChar

StartChar: zero.osf
Encoding: 65572 -1 189
Width: 500
Flags: HW
LayerCount: 2
Fore
SplineSet
250.111328125 -10.0478515625 m 0
 136.831054688 -10.0478515625 35 63.1201171875 35 231.200195312 c 0
 35 399.279296875 136.831054688 472.447265625 250.111328125 472.447265625 c 0
 363.391601562 472.447265625 465.22265625 399.279296875 465.22265625 231.200195312 c 0
 465.22265625 63.1201171875 363.391601562 -10.0478515625 250.111328125 -10.0478515625 c 0
250.111328125 335.58203125 m 0
 210.852539062 335.58203125 179.206054688 314.04296875 179.206054688 231.200195312 c 0
 179.206054688 148.357421875 210.852539062 126.817382812 250.111328125 126.817382812 c 0
 289.370117188 126.817382812 321.016601562 148.357421875 321.016601562 231.200195312 c 0
 321.016601562 314.04296875 289.370117188 335.58203125 250.111328125 335.58203125 c 0
EndSplineSet
Substitution2: "'tnum' Tabular Numbers in Latin lookup 5-1" zero.tosf
EndChar

StartChar: one.osf
Encoding: 65573 -1 190
Width: 384
Flags: HW
LayerCount: 2
Fore
SplineSet
207 310.397460938 m 1
 109 230.397460938 l 1
 35 342.397460938 l 1
 207 464.397460938 l 1
 207 310.397460938 l 1
207 0 m 1
 207 464.397460938 l 1
 349 464.397460938 l 1
 349 0 l 1
 207 0 l 1
EndSplineSet
Substitution2: "'tnum' Tabular Numbers in Latin lookup 5-1" one.tosf
EndChar

StartChar: two.osf
Encoding: 65574 -1 191
Width: 457
Flags: HW
LayerCount: 2
Fore
SplineSet
35 121 m 1
 106 131 l 1
 422 131 l 1
 422 0 l 1
 35 0 l 1
 35 121 l 1
233.163085938 283.297851562 m 0
 265.96875 297.350585938 275.8125 302.915039062 275.8125 316.485351562 c 0
 275.8125 330.055664062 257.095703125 341.013671875 218.463867188 341.013671875 c 0
 148.715820312 341.013671875 84.0908203125 290.385742188 84.0908203125 290.385742188 c 1
 35.533203125 408.456054688 l 1
 35.533203125 408.456054688 134.623046875 472.447265625 242.111328125 472.447265625 c 0
 348.231445312 472.447265625 419.833984375 421.17578125 419.833984375 338.85546875 c 0
 419.833984375 242.536132812 348.58984375 206.755859375 277.111328125 181.1640625 c 0
 204.719726562 155.245117188 180 143 169 101 c 1
 162 30 l 1
 35 121 l 1
 80 250 187.541992188 263.754882812 233.163085938 283.297851562 c 0
EndSplineSet
Substitution2: "'tnum' Tabular Numbers in Latin lookup 5-1" two.tosf
EndChar

StartChar: three.osf
Encoding: 65575 -1 192
Width: 474
Flags: HW
LayerCount: 2
Fore
SplineSet
195.09375 203.297851562 m 1
 332.930664062 203.297851562 439.30078125 178.477539062 439.30078125 42.158203125 c 0
 439.30078125 -70.162109375 347.698242188 -131.43359375 241.578125 -131.43359375 c 0
 134.08984375 -131.43359375 35 -67.4423828125 35 -67.4423828125 c 1
 83.5576171875 50.6279296875 l 1
 83.5576171875 50.6279296875 148.182617188 0 217.930664062 0 c 0
 270.5625 0 295.279296875 20.9580078125 295.279296875 64.5283203125 c 0
 295.279296875 118.098632812 235.930664062 138.1640625 195.041992188 131.1640625 c 0
 195.09375 203.297851562 l 1
195.041992188 161.1640625 m 1
 195.09375 263.297851562 l 0
 252.930664062 256.297851562 277.743164062 272.915039062 277.743164062 300.485351562 c 0
 277.743164062 324.055664062 259.026367188 341.013671875 220.39453125 341.013671875 c 0
 150.646484375 341.013671875 86.021484375 290.385742188 86.021484375 290.385742188 c 1
 37.4638671875 408.456054688 l 1
 37.4638671875 408.456054688 136.553710938 472.447265625 244.041992188 472.447265625 c 0
 350.162109375 472.447265625 421.764648438 401.17578125 421.764648438 318.85546875 c 0
 421.764648438 192.536132812 297.930664062 161.1640625 195.041992188 161.1640625 c 1
EndSplineSet
Substitution2: "'tnum' Tabular Numbers in Latin lookup 5-1" three.tosf
EndChar

StartChar: four.osf
Encoding: 65576 -1 193
Width: 514
Flags: HW
LayerCount: 2
Fore
SplineSet
479 0 m 1
 35 0 l 1
 35 132 l 1
 479 132 l 1
 479 0 l 1
266 282.397460938 m 5
 165 132 l 1
 35 132 l 1
 266 464.397460938 l 5
 266 282.397460938 l 5
266 -122.879882812 m 5
 266 464.397460938 l 5
 408 464.397460938 l 5
 408 -122.879882812 l 5
 266 -122.879882812 l 5
EndSplineSet
Substitution2: "'tnum' Tabular Numbers in Latin lookup 5-1" four.tosf
EndChar

StartChar: five.osf
Encoding: 65577 -1 194
Width: 494
Flags: HW
LayerCount: 2
Fore
SplineSet
185.09375 203.297851562 m 1
 185.09375 203.297851562 207.930664062 248.432617188 292.930664062 248.432617188 c 0
 385.109375 248.432617188 459.30078125 194.426757812 459.30078125 72.158203125 c 0
 459.30078125 -70.162109375 347.698242188 -131.43359375 241.578125 -131.43359375 c 0
 134.08984375 -131.43359375 35 -67.4423828125 35 -67.4423828125 c 1
 83.5576171875 50.6279296875 l 1
 83.5576171875 50.6279296875 148.182617188 0 217.930664062 0 c 0
 270.5625 0 315.279296875 10.9580078125 315.279296875 74.5283203125 c 0
 315.279296875 118.739257812 291.083984375 140.03125 252.930664062 140.03125 c 0
 209.930664062 140.03125 195.041992188 121.1640625 195.041992188 121.1640625 c 0
 185.09375 203.297851562 l 1
93 464.397460938 m 1
 217 464.397460938 l 1
 195.041992188 121.1640625 l 1
 80.2646484375 143.21875 l 1
 93 464.397460938 l 1
93 464.397460938 m 1
 437 464.397460938 l 1
 437 333.397460938 l 1
 174 333.397460938 l 1
 93 464.397460938 l 1
EndSplineSet
Substitution2: "'tnum' Tabular Numbers in Latin lookup 5-1" five.tosf
EndChar

StartChar: six.osf
Encoding: 65578 -1 195
Width: 496
Flags: HW
HStem: -12.5596 138.641<204.4 315.465> 236 121.761<205.627 312.47> 426 21G<409.187 414.814> 453.098 137.462<215.409 395.011>
VStem: 35 135.318<277.842 403.124> 325.58 135.781<139.72 221.319>
LayerCount: 2
Fore
SplineSet
170.318359375 277.841796875 m 1
 170.318359375 277.841796875 178.724609375 357.760742188 282.0390625 357.760742188 c 0
 402 357.760742188 461.361328125 293 461.361328125 174 c 0
 461.361328125 66.140625 390.208007812 -12.5595703125 255.612304688 -12.5595703125 c 0
 112.154296875 -12.5595703125 35 116.400390625 35 284 c 0
 35 471.599609375 112.154296875 590.559570312 272.33203125 590.559570312 c 0
 389.955078125 590.559570312 444.640625 552 444.640625 552 c 1
 409.186523438 426 l 1
 409.186523438 426 347.556640625 453.09765625 279.7421875 453.09765625 c 0
 189.7890625 453.09765625 171.153320312 378.251953125 170.318359375 277.841796875 c 1
259.5078125 126.081054688 m 4
 300.638671875 126.081054688 325.580078125 142.017578125 325.580078125 177 c 4
 325.580078125 210 315 236 259.186523438 236 c 4
 215.427734375 236 194.188476562 218.536132812 194.188476562 179 c 4
 194.188476562 140.8046875 224.336914062 126.081054688 259.5078125 126.081054688 c 4
EndSplineSet
Substitution2: "'salt' Stylistic Alternatives in Latin lookup 3-1" six.ssf
Substitution2: "'tnum' Tabular Numbers in Latin lookup 5-1" six.tosf
EndChar

StartChar: seven.osf
Encoding: 65579 -1 196
Width: 458
Flags: HW
LayerCount: 2
Fore
SplineSet
423 332.397460938 m 5
 35 332.397460938 l 5
 35 464.397460938 l 5
 423 464.397460938 l 5
 423 332.397460938 l 5
97 -122.879882812 m 5
 117 222.120117188 281 332.397460938 281 332.397460938 c 5
 423 332.397460938 l 5
 423 332.397460938 269 239.120117188 249 -122.879882812 c 5
 97 -122.879882812 l 5
EndSplineSet
Substitution2: "'tnum' Tabular Numbers in Latin lookup 5-1" seven.tosf
EndChar

StartChar: eight.osf
Encoding: 65580 -1 197
Width: 501
Flags: HW
LayerCount: 2
Fore
SplineSet
194.532226562 409.65625 m 0
 194.532226562 382.856445312 211.393554688 359.368164062 250.572265625 359.368164062 c 0
 289.749023438 359.368164062 306.611328125 381.220703125 306.611328125 409.65625 c 0
 306.611328125 444.091796875 289.749023438 464.944335938 250.572265625 464.944335938 c 0
 213.393554688 464.944335938 194.532226562 444.091796875 194.532226562 409.65625 c 0
58.337890625 429.65625 m 4
 58.337890625 533.49609375 131.791992188 589.559570312 250.681640625 589.559570312 c 0
 369.571289062 589.559570312 443.025390625 533.49609375 443.025390625 429.65625 c 4
 443.025390625 335.81640625 369.571289062 284.752929688 250.681640625 284.752929688 c 0
 131.791992188 284.752929688 58.337890625 337.452148438 58.337890625 429.65625 c 4
178.780273438 189 m 0
 178.780273438 157 198.181640625 115.90234375 250.572265625 115.90234375 c 0
 302.9609375 115.90234375 321.700195312 155.182617188 321.700195312 189 c 0
 321.700195312 222.817382812 302.9609375 258.09765625 250.572265625 258.09765625 c 0
 198.181640625 258.09765625 178.780273438 222.817382812 178.780273438 189 c 0
35 172 m 0
 35 269.599609375 116.616210938 336.559570312 250.681640625 336.559570312 c 0
 384.747070312 336.559570312 466.36328125 269.599609375 466.36328125 172 c 0
 466.36328125 54.400390625 384.747070312 -12.5595703125 250.681640625 -12.5595703125 c 0
 116.616210938 -12.5595703125 35 56.2177734375 35 172 c 0
EndSplineSet
Substitution2: "'tnum' Tabular Numbers in Latin lookup 5-1" eight.tosf
EndChar

StartChar: nine.osf
Encoding: 65581 -1 198
Width: 496
Flags: HW
HStem: -131.434 137.462<100.959 280.615> 102.127 121.761<183.891 290.735> 333.807 138.641<181.841 292.098>
VStem: 35 135.781<238.569 320.168> 326.043 135.318<56.3833 182.046>
LayerCount: 2
Fore
SplineSet
326.04296875 182.045898438 m 1
 326.04296875 182.045898438 312 102.126953125 214.322265625 102.126953125 c 0
 101.786132812 102.126953125 35 155 35 285.887695312 c 0
 35 393.747070312 106.153320312 472.447265625 240.749023438 472.447265625 c 0
 384.20703125 472.447265625 461.361328125 343.487304688 461.361328125 175.887695312 c 0
 461.361328125 -11.7119140625 383.815429688 -131.43359375 223.637695312 -131.43359375 c 0
 106.014648438 -131.43359375 51.3291015625 -92.8740234375 51.3291015625 -92.8740234375 c 1
 86.783203125 33.1259765625 l 1
 86.783203125 33.1259765625 148.413085938 6.0283203125 216.227539062 6.0283203125 c 0
 306.180664062 6.0283203125 325.208007812 81.6357421875 326.04296875 182.045898438 c 1
237.853515625 333.806640625 m 4
 196.72265625 333.806640625 170.78125 312.87109375 170.78125 282.887695312 c 4
 170.78125 247 184.962890625 223.887695312 237.174804688 223.887695312 c 4
 281 223.887695312 302.172851562 241.3515625 302.172851562 280.887695312 c 4
 302.172851562 319.083007812 273.024414062 333.806640625 237.853515625 333.806640625 c 4
EndSplineSet
Substitution2: "'salt' Stylistic Alternatives in Latin lookup 3-1" nine.ssf
Substitution2: "'tnum' Tabular Numbers in Latin lookup 5-1" nine.tosf
EndChar

StartChar: dotlessi
Encoding: 305 305 199
Width: 210
Flags: HW
HStem: 0 21G<35 175.6> 402.4 20G<35 175.6>
VStem: 35 140.6<0 422.4>
LayerCount: 2
Fore
SplineSet
35 0 m 5
 35 422.400390625 l 5
 175.599609375 422.400390625 l 5
 175.599609375 0 l 5
 35 0 l 5
EndSplineSet
EndChar

StartChar: uni0237
Encoding: 567 567 200
Width: 227
Flags: HW
LayerCount: 2
Fore
SplineSet
44.11328125 422.400390625 m 1
 184.712890625 422.400390625 l 1
 184.712890625 5.376953125 l 2
 184.712890625 -152.702148438 82.8818359375 -215.870117188 -30.3984375 -215.870117188 c 0
 -77.560546875 -215.870117188 -94.2431640625 -209 -94.2431640625 -209 c 1
 -84.482421875 -70.501953125 l 1
 -84.482421875 -70.501953125 -67.5078125 -79.0048828125 -30.3984375 -79.0048828125 c 0
 8.8603515625 -79.0048828125 44.11328125 -67.4658203125 44.11328125 5.376953125 c 2
 44.11328125 422.400390625 l 1
EndSplineSet
EndChar

StartChar: fraction
Encoding: 8260 8260 201
Width: 532
Flags: HW
HStem: 0 21G<103 149.676> 608 20G<382.324 429>
LayerCount: 2
Fore
SplineSet
35 60 m 1
 395 628 l 1
 497 568 l 1
 137 0 l 1
 35 60 l 1
EndSplineSet
EndChar

StartChar: zero.tf
Encoding: 65582 -1 202
Width: 597
Flags: HW
HStem: -12.5596 138.462<224.968 372.81> 502.098 138.462<224.968 372.81>
VStem: 35 136.849<187.008 440.992> 425.929 136.849<187.008 440.992>
LayerCount: 2
Fore
SplineSet
171.848632812 314 m 0
 171.848632812 200.182617188 200.046875 125.90234375 298.888671875 125.90234375 c 0
 397.73046875 125.90234375 425.928710938 200.182617188 425.928710938 314 c 4
 425.928710938 427.817382812 397.73046875 502.09765625 298.888671875 502.09765625 c 0
 200.046875 502.09765625 171.848632812 427.817382812 171.848632812 314 c 0
35 314 m 0
 35 511.599609375 127.2890625 640.559570312 298.888671875 640.559570312 c 0
 470.48828125 640.559570312 562.77734375 511.599609375 562.77734375 314 c 4
 562.77734375 116.400390625 470.48828125 -12.5595703125 298.888671875 -12.5595703125 c 0
 127.2890625 -12.5595703125 35 116.400390625 35 314 c 0
EndSplineSet
EndChar

StartChar: one.tf
Encoding: 65583 -1 203
Width: 567
Flags: HW
LayerCount: 2
Fore
SplineSet
219.888671875 474 m 1
 121.888671875 394 l 1
 47.888671875 506 l 1
 219.888671875 628 l 1
 219.888671875 474 l 1
219.888671875 0 m 1
 219.888671875 628 l 1
 361.888671875 628 l 1
 361.888671875 0 l 1
 219.888671875 0 l 1
35 131 m 5
 532 131 l 5
 532 0 l 5
 35 0 l 5
 35 131 l 5
EndSplineSet
EndChar

StartChar: two.tf
Encoding: 65584 -1 204
Width: 529
Flags: HW
LayerCount: 2
Fore
SplineSet
35 121 m 1
 106 131 l 1
 492 131 l 1
 492 0 l 1
 35 0 l 1
 35 121 l 1
270.888671875 363.90234375 m 0
 337.837890625 392.581054688 357.928710938 416.182617188 357.928710938 450 c 0
 357.928710938 483.817382812 319.73046875 502.09765625 240.888671875 502.09765625 c 0
 159.770507812 502.09765625 89.107421875 460 89.107421875 460 c 1
 45.77734375 592 l 1
 45.77734375 592 130.19140625 640.559570312 240.888671875 640.559570312 c 0
 392.48828125 640.559570312 494.77734375 581.599609375 494.77734375 464 c 0
 494.77734375 326.400390625 393 261 290.888671875 224.440429688 c 0
 187.471679688 187.413085938 180 143 169 101 c 1
 162 30 l 1
 35 121 l 1
 80 290 177.783203125 324.018554688 270.888671875 363.90234375 c 0
EndSplineSet
EndChar

StartChar: three.tf
Encoding: 65585 -1 205
Width: 538
Flags: HW
LayerCount: 2
Fore
SplineSet
229 357 m 1
 458 351 503.22265625 231.743164062 503.22265625 164.143554688 c 0
 503.22265625 46.5439453125 390.93359375 -12.416015625 239.333984375 -12.416015625 c 0
 128.63671875 -12.416015625 35 45 35 45 c 5
 87.552734375 168.143554688 l 5
 87.552734375 168.143554688 158.215820312 126.045898438 239.333984375 126.045898438 c 0
 318.17578125 126.045898438 366.374023438 154.326171875 366.374023438 188.143554688 c 0
 366.374023438 241.9609375 296 267 229 267 c 1
 229 357 l 1
229 317 m 1
 229 387 l 1
 293 387 356.928710938 401.182617188 356.928710938 445 c 0
 356.928710938 478.817382812 318.73046875 502.09765625 239.888671875 502.09765625 c 0
 158.770507812 502.09765625 118.107421875 470 118.107421875 470 c 5
 64.77734375 592 l 5
 64.77734375 592 129.19140625 640.559570312 239.888671875 640.559570312 c 0
 391.48828125 640.559570312 493.77734375 581.599609375 493.77734375 464 c 0
 493.77734375 346.400390625 360 301 229 317 c 1
EndSplineSet
EndChar

StartChar: four.tf
Encoding: 65586 -1 206
Width: 584
Flags: HW
LayerCount: 2
Fore
SplineSet
549 145 m 5
 35 145 l 5
 35 277 l 5
 549 277 l 5
 549 145 l 5
306 446 m 1
 185 277 l 5
 35 277 l 5
 306 628 l 1
 306 446 l 1
306 0 m 1
 306 628 l 1
 448 628 l 1
 448 0 l 1
 306 0 l 1
EndSplineSet
EndChar

StartChar: five.tf
Encoding: 65587 -1 207
Width: 544
Flags: HW
LayerCount: 2
Fore
SplineSet
85.22265625 628.0546875 m 1
 209.22265625 628.0546875 l 1
 163 321 l 1
 48.22265625 343.0546875 l 1
 85.22265625 628.0546875 l 1
85.22265625 628.0546875 m 1
 479.22265625 628.0546875 l 1
 479.22265625 497.0546875 l 1
 166.22265625 497.0546875 l 1
 85.22265625 628.0546875 l 1
101 261 m 1
 48.22265625 343.0546875 l 0
 148 356 l 1
 219 441 509.111328125 442.590820312 509.111328125 212 c 0
 509.111328125 74.400390625 401.7109375 -12.5048828125 250.111328125 -12.5048828125 c 0
 139.4140625 -12.5048828125 35 36.0546875 35 36.0546875 c 1
 78.330078125 168.0546875 l 1
 78.330078125 168.0546875 168.993164062 125.95703125 250.111328125 125.95703125 c 0
 328.953125 125.95703125 367.151367188 164.237304688 367.151367188 218.0546875 c 0
 367.151367188 271.872070312 321 346 101 261 c 1
EndSplineSet
EndChar

StartChar: six.tf
Encoding: 65588 -1 208
Width: 580
Flags: HW
LayerCount: 2
Fore
SplineSet
299.322265625 126.081054688 m 4
 358.173828125 126.081054688 394 156.015625 394 206 c 4
 394 237 372 276 300 276 c 4
 237.390625 276 206 247.536132812 206 208 c 4
 206 149.8046875 249 126.081054688 299.322265625 126.081054688 c 4
171.864257812 317.841796875 m 1
 190.145507812 357.598632812 240.302734375 397.760742188 318 397.760742188 c 0
 473 397.760742188 545 314.1875 545 194 c 0
 545 86 459.889648438 -12.5595703125 298.888671875 -12.5595703125 c 0
 127.2890625 -12.5595703125 35 116.400390625 35 314 c 0
 35 511.599609375 127.2890625 640.559570312 318.888671875 640.559570312 c 0
 459.5859375 640.559570312 530 572 530 572 c 1
 461 455 l 1
 461 455 410.006835938 502.09765625 328.888671875 502.09765625 c 0
 221.290039062 502.09765625 172.862304688 428.251953125 171.864257812 317.841796875 c 1
EndSplineSet
Substitution2: "'salt' Stylistic Alternatives in Latin lookup 3-1" six.stf
EndChar

StartChar: seven.tf
Encoding: 65589 -1 209
Width: 548
Flags: HW
LayerCount: 2
Fore
SplineSet
513 496 m 5
 35 496 l 5
 35 628 l 5
 513 628 l 5
 513 496 l 5
148 0 m 5
 168 345 371 496 371 496 c 5
 513 496 l 5
 513 496 320 362 300 0 c 5
 148 0 l 5
EndSplineSet
EndChar

StartChar: eight.tf
Encoding: 65590 -1 210
Width: 557
Flags: HW
LayerCount: 2
Fore
SplineSet
194.552734375 455.65625 m 0
 194.552734375 428.856445312 219.930664062 404.368164062 278.888671875 404.368164062 c 0
 337.846679688 404.368164062 363.224609375 427.220703125 363.224609375 455.65625 c 0
 363.224609375 489.091796875 337.846679688 515.944335938 278.888671875 515.944335938 c 0
 219.930664062 515.944335938 194.552734375 489.091796875 194.552734375 455.65625 c 0
61.388671875 474.65625 m 0
 61.388671875 578.49609375 144.44921875 640.559570312 278.888671875 640.559570312 c 0
 413.328125 640.559570312 496.388671875 578.49609375 496.388671875 474.65625 c 0
 496.388671875 360.81640625 413.328125 309.752929688 278.888671875 309.752929688 c 0
 144.44921875 309.752929688 61.388671875 362.452148438 61.388671875 474.65625 c 0
170.848632812 202 m 0
 170.848632812 160 200.046875 125.90234375 278.888671875 125.90234375 c 0
 357.73046875 125.90234375 385.928710938 158.182617188 385.928710938 202 c 0
 385.928710938 235.817382812 357.73046875 272.09765625 278.888671875 272.09765625 c 0
 200.046875 272.09765625 170.848632812 235.817382812 170.848632812 202 c 0
35 184 m 0
 35 301.599609375 127.2890625 360.559570312 278.888671875 360.559570312 c 0
 430.48828125 360.559570312 522.77734375 301.599609375 522.77734375 184 c 0
 522.77734375 66.400390625 430.48828125 -12.5595703125 278.888671875 -12.5595703125 c 0
 127.2890625 -12.5595703125 35 68.2177734375 35 184 c 0
EndSplineSet
EndChar

StartChar: nine.tf
Encoding: 65591 -1 211
Width: 580
Flags: HW
HStem: -12.5596 138.462<94.3958 336.87> 230.239 121.842<203.95 343.268> 502 138.56<209.369 343.524>
VStem: 35 147<375.524 473.843> 408.151 136.849<199.571 414.622>
LayerCount: 2
Fore
SplineSet
276.677734375 502 m 4
 217.826171875 502 182 472.065429688 182 422.081054688 c 4
 182 385 201.293945312 352.081054688 276 352.081054688 c 4
 345 352.081054688 370 380.544921875 370 420.081054688 c 4
 370 478.276367188 327 502 276.677734375 502 c 4
408.140625 317.645507812 m 1
 408.140625 317.645507812 376 230.239257812 262 230.239257812 c 0
 114.88671875 230.239257812 35 299 35 434 c 0
 35 541.859375 120.110351562 640.559570312 281.111328125 640.559570312 c 0
 452.7109375 640.559570312 545 511.599609375 545 314 c 0
 545 116.400390625 452.7109375 -12.5595703125 261.111328125 -12.5595703125 c 0
 150.4140625 -12.5595703125 83.326171875 9.4755859375 83.326171875 9.4755859375 c 1
 96.041015625 146.905273438 l 1
 96.041015625 146.905273438 149.993164062 125.90234375 241.111328125 125.90234375 c 0
 379.953125 125.90234375 408.151367188 207 408.151367188 314 c 0
 408.151367188 315.22265625 408.140625 317.645507812 408.140625 317.645507812 c 1
EndSplineSet
Substitution2: "'salt' Stylistic Alternatives in Latin lookup 3-1" nine.stf
EndChar

StartChar: zero.tosf
Encoding: 65592 -1 212
Width: 597
Flags: HW
LayerCount: 2
Fore
SplineSet
171.848632812 235 m 4
 171.848632812 168.182617188 210.046875 125.90234375 298.888671875 125.90234375 c 0
 387.73046875 125.90234375 425.928710938 168.182617188 425.928710938 235 c 4
 425.928710938 302.817382812 385.841796875 333.985351562 297 333.985351562 c 0
 208.158203125 333.985351562 171.848632812 302.817382812 171.848632812 235 c 4
35 235 m 4
 35 386.599609375 125.400390625 472.447265625 297 472.447265625 c 0
 468.599609375 472.447265625 562.77734375 386.599609375 562.77734375 235 c 4
 562.77734375 84.400390625 470.48828125 -12.5595703125 298.888671875 -12.5595703125 c 0
 127.2890625 -12.5595703125 35 84.400390625 35 235 c 4
EndSplineSet
EndChar

StartChar: one.tosf
Encoding: 65593 -1 213
Width: 527
Flags: HW
LayerCount: 2
Fore
SplineSet
35 131 m 1
 492 131 l 5
 492 0 l 5
 35 0 l 1
 35 131 l 1
209.888671875 310.397460938 m 1
 111.888671875 230.397460938 l 1
 37.888671875 342.397460938 l 1
 209.888671875 464.397460938 l 1
 209.888671875 310.397460938 l 1
209.888671875 0 m 1
 209.888671875 464.397460938 l 1
 351.888671875 464.397460938 l 1
 351.888671875 0 l 1
 209.888671875 0 l 1
EndSplineSet
EndChar

StartChar: two.tosf
Encoding: 65594 -1 214
Width: 537
Flags: HW
LayerCount: 2
Fore
SplineSet
35 121 m 5
 106 131 l 5
 502 131 l 1
 502 0 l 1
 35 0 l 5
 35 121 l 5
273.163085938 283.297851562 m 0
 336.833007812 295.989257812 355.8125 302.915039062 355.8125 316.485351562 c 0
 355.8125 330.055664062 367.095703125 341.013671875 258.463867188 341.013671875 c 0
 128.715820312 341.013671875 84.0908203125 290.385742188 84.0908203125 290.385742188 c 5
 35.533203125 408.456054688 l 5
 35.533203125 408.456054688 114.623046875 472.447265625 282.111328125 472.447265625 c 0
 448.231445312 472.447265625 499.833984375 421.17578125 499.833984375 338.85546875 c 0
 499.833984375 242.536132812 445.5 214 357.111328125 191.1640625 c 0
 236.40234375 159.977539062 180 163 169 101 c 5
 162 30 l 5
 35 121 l 5
 82.283203125 250.575195312 163.93359375 261.524414062 273.163085938 283.297851562 c 0
EndSplineSet
EndChar

StartChar: three.tosf
Encoding: 65595 -1 215
Width: 538
Flags: HW
LayerCount: 2
Fore
SplineSet
229 212 m 1
 458 206 503.22265625 133.743164062 503.22265625 46.1435546875 c 0
 503.22265625 -71.4560546875 390.93359375 -132.416015625 239.333984375 -132.416015625 c 0
 128.63671875 -132.416015625 35 -75 35 -75 c 1
 87.552734375 48.1435546875 l 1
 87.552734375 48.1435546875 158.215820312 6.0458984375 239.333984375 6.0458984375 c 0
 318.17578125 6.0458984375 366.374023438 16.326171875 366.374023438 70.1435546875 c 0
 366.374023438 133.9609375 296 142 229 142 c 1
 229 212 l 1
229 172 m 1
 229 262 l 1
 293 262 356.928710938 264.182617188 356.928710938 298 c 0
 356.928710938 321.817382812 319.064453125 333.985351562 240.22265625 333.985351562 c 0
 159.104492188 333.985351562 118.107421875 303 118.107421875 303 c 1
 64.77734375 425 l 1
 64.77734375 425 129.525390625 472.447265625 240.22265625 472.447265625 c 0
 391.822265625 472.447265625 493.77734375 434.599609375 493.77734375 317 c 0
 493.77734375 199.400390625 360 156 229 172 c 1
EndSplineSet
EndChar

StartChar: four.tosf
Encoding: 65596 -1 216
Width: 584
Flags: HW
LayerCount: 2
Fore
SplineSet
549 0 m 1
 35 0 l 1
 35 132 l 1
 549 132 l 1
 549 0 l 1
305 282.397460938 m 1
 185 132 l 1
 35 132 l 1
 305 464.397460938 l 1
 305 282.397460938 l 1
305 -122.879882812 m 5
 305 464.397460938 l 1
 447 464.397460938 l 1
 447 -122.879882812 l 5
 305 -122.879882812 l 5
EndSplineSet
EndChar

StartChar: five.tosf
Encoding: 65597 -1 217
Width: 544
Flags: HW
LayerCount: 2
Fore
SplineSet
80.111328125 464.397460938 m 1
 204.111328125 464.397460938 l 1
 163 161.192382812 l 1
 48.22265625 183.247070312 l 1
 80.111328125 464.397460938 l 1
80.111328125 464.397460938 m 1
 474.111328125 464.397460938 l 1
 474.111328125 333.397460938 l 1
 161.111328125 333.397460938 l 1
 80.111328125 464.397460938 l 1
101 101.192382812 m 1
 48.22265625 183.247070312 l 0
 148 196.192382812 l 1
 219 281.192382812 509.111328125 302.783203125 509.111328125 72.1923828125 c 0
 509.111328125 -65.4072265625 401.7109375 -132.3125 250.111328125 -132.3125 c 0
 139.4140625 -132.3125 35 -83.7529296875 35 -83.7529296875 c 1
 78.330078125 48.2470703125 l 1
 78.330078125 48.2470703125 168.993164062 6.1494140625 250.111328125 6.1494140625 c 0
 328.953125 6.1494140625 367.151367188 24.4296875 367.151367188 78.2470703125 c 0
 367.151367188 132.064453125 321 186.192382812 101 101.192382812 c 1
EndSplineSet
EndChar

StartChar: six.tosf
Encoding: 65598 -1 218
Width: 580
Flags: HW
HStem: -12.5596 138.641<230.609 381.66> 245 121.761<228.046 381.999> 452.098 138.462<229.022 420.937>
VStem: 35 136.864<304.788 391.43> 398 147<144.474 226.743>
LayerCount: 2
Fore
SplineSet
306.322265625 126.081054688 m 4
 365.173828125 126.081054688 398 146.015625 398 186 c 4
 398 217 375 245 303 245 c 4
 240.390625 245 210 227.536132812 210 188 c 4
 210 139.8046875 256 126.081054688 306.322265625 126.081054688 c 4
171.864257812 297.841796875 m 1
 190.14453125 337.598632812 230.302734375 366.760742188 318 366.760742188 c 0
 473 366.760742188 545 305 545 174 c 0
 545 66.140625 459.889648438 -12.5595703125 298.888671875 -12.5595703125 c 0
 127.2890625 -12.5595703125 35 116.400390625 35 314 c 0
 35 471.599609375 127.2890625 590.559570312 318.888671875 590.559570312 c 0
 459.5859375 590.559570312 530 522 530 522 c 1
 461 405 l 1
 461 405 410.006835938 452.09765625 328.888671875 452.09765625 c 0
 221.290039062 452.09765625 172.862304688 408.251953125 171.864257812 297.841796875 c 1
EndSplineSet
Substitution2: "'salt' Stylistic Alternatives in Latin lookup 3-1" six.tssf
EndChar

StartChar: seven.tosf
Encoding: 65599 -1 219
Width: 538
Flags: HW
LayerCount: 2
Fore
SplineSet
503 332.397460938 m 1
 35 332.397460938 l 1
 35 464.397460938 l 1
 503 464.397460938 l 1
 503 332.397460938 l 1
137 -122.879882812 m 1
 157 222.120117188 361 332.397460938 361 332.397460938 c 5
 503 332.397460938 l 1
 503 332.397460938 309 239.120117188 289 -122.879882812 c 1
 137 -122.879882812 l 1
EndSplineSet
EndChar

StartChar: eight.tosf
Encoding: 65600 -1 220
Width: 557
Flags: HW
LayerCount: 2
Fore
SplineSet
194.552734375 409.65625 m 0
 194.552734375 382.856445312 229.930664062 364.368164062 278.888671875 364.368164062 c 0
 327.846679688 364.368164062 363.224609375 381.220703125 363.224609375 409.65625 c 0
 363.224609375 443.091796875 327.846679688 455.944335938 278.888671875 455.944335938 c 0
 229.930664062 455.944335938 194.552734375 443.091796875 194.552734375 409.65625 c 0
61.388671875 424.65625 m 0
 61.388671875 528.49609375 144.44921875 590.559570312 278.888671875 590.559570312 c 0
 413.328125 590.559570312 496.388671875 528.49609375 496.388671875 424.65625 c 0
 496.388671875 330.81640625 413.328125 274.752929688 278.888671875 274.752929688 c 4
 144.44921875 274.752929688 61.388671875 332.452148438 61.388671875 424.65625 c 0
170.848632812 198 m 0
 170.848632812 156 210.046875 135.90234375 278.888671875 135.90234375 c 0
 347.73046875 135.90234375 385.928710938 154.182617188 385.928710938 198 c 0
 385.928710938 231.817382812 347.73046875 252.09765625 278.888671875 252.09765625 c 0
 210.046875 252.09765625 170.848632812 231.817382812 170.848632812 198 c 0
35 184 m 0
 35 281.599609375 127.2890625 345.559570312 278.888671875 345.559570312 c 0
 430.48828125 345.559570312 522.77734375 281.599609375 522.77734375 184 c 0
 522.77734375 66.400390625 430.48828125 -12.5595703125 278.888671875 -12.5595703125 c 0
 127.2890625 -12.5595703125 35 68.2177734375 35 184 c 0
EndSplineSet
EndChar

StartChar: nine.tosf
Encoding: 65601 -1 221
Width: 580
Flags: HW
HStem: -132.4 138.462<151.063 343.057> 91.3984 124.483<196.38 352.256> 334.801 138.641<198.34 349.391>
VStem: 35 147<233.96 316.408> 408.136 136.864<71.1094 156.094>
LayerCount: 2
Fore
SplineSet
408.135742188 163.040039062 m 1
 389.85546875 123.283203125 345 91.3984375 254 91.3984375 c 0
 106.88671875 91.3984375 35 155 35 286.881835938 c 0
 35 394.741210938 120.110351562 473.44140625 281.111328125 473.44140625 c 0
 452.7109375 473.44140625 545 344.481445312 545 146.881835938 c 0
 545 -10.7177734375 444.7109375 -132.400390625 253.111328125 -132.400390625 c 0
 112.4140625 -132.400390625 42 -63.8408203125 42 -63.8408203125 c 1
 111 53.1591796875 l 1
 111 53.1591796875 161.993164062 6.0615234375 243.111328125 6.0615234375 c 0
 350.709960938 6.0615234375 407.137695312 52.6298828125 408.135742188 163.040039062 c 1
273.677734375 334.80078125 m 4
 214.826171875 334.80078125 182 316 182 274.881835938 c 4
 182 243.719726562 202.293945312 215.881835938 277 215.881835938 c 4
 348 215.881835938 370 241.345703125 370 272.881835938 c 4
 370 314.077148438 324 334.80078125 273.677734375 334.80078125 c 4
EndSplineSet
Substitution2: "'salt' Stylistic Alternatives in Latin lookup 3-1" nine.tssf
EndChar

StartChar: e.salt
Encoding: 65602 -1 222
Width: 496
Flags: HW
LayerCount: 2
Fore
SplineSet
461.221679688 169 m 5
 57.2216796875 169 l 1
 57.2216796875 251 l 1
 373.221679688 251 l 5
 461.221679688 169 l 5
179.206054688 211 m 0
 179.284179688 148.311523438 190.915039062 126.817382812 280.111328125 126.817382812 c 0
 355.465820312 126.817382812 402 148 402 148 c 1
 433.404296875 22.552734375 l 1
 433.404296875 22.552734375 377.0546875 -10.0478515625 260.111328125 -10.0478515625 c 0
 136.873046875 -10.0478515625 35.109375 63.0537109375 35 211 c 0
 34.890625 359.079101562 144.831054688 432.247070312 248.111328125 432.247070312 c 0
 353.390625 432.247070312 461.221679688 357.079101562 461.221679688 169 c 5
 317 169 l 5
 327 278 284.370117188 295.381835938 248.111328125 295.381835938 c 0
 213.852539062 295.381835938 179.206054688 273.842773438 179.206054688 211 c 0
EndSplineSet
EndChar

StartChar: Euro
Encoding: 8364 8364 223
Width: 500
Flags: HW
LayerCount: 2
Fore
SplineSet
351.529296875 180.400390625 m 5
 33.529296875 180.400390625 l 5
 33.529296875 292.400390625 l 5
 351.529296875 292.400390625 l 5
 351.529296875 180.400390625 l 5
351.529296875 330.400390625 m 5
 33.529296875 330.400390625 l 5
 33.529296875 442.400390625 l 5
 351.529296875 442.400390625 l 5
 351.529296875 330.400390625 l 5
65.529296875 314 m 0
 65.529296875 511.599609375 147.818359375 640.559570312 319.41796875 640.559570312 c 0
 400.115234375 640.559570312 447.203125 618.524414062 447.203125 618.524414062 c 1
 434.48828125 481.094726562 l 1
 434.48828125 481.094726562 400.537109375 502.09765625 339.41796875 502.09765625 c 0
 220.576171875 502.09765625 202.377929688 427.817382812 202.377929688 314 c 0
 202.377929688 200.182617188 220.576171875 125.90234375 339.41796875 125.90234375 c 0
 400.510742188 125.90234375 438.431640625 146.872070312 438.431640625 146.872070312 c 1
 466.470703125 9.2666015625 l 1
 466.470703125 9.2666015625 399.84375 -12.5595703125 319.41796875 -12.5595703125 c 0
 147.818359375 -12.5595703125 65.529296875 116.400390625 65.529296875 314 c 0
EndSplineSet
EndChar

StartChar: Euro.varAlt01
Encoding: 65603 -1 224
Width: 500
Flags: HW
LayerCount: 2
Fore
SplineSet
351.529296875 173.400390625 m 1
 33.529296875 173.400390625 l 1
 33.529296875 285.400390625 l 1
 351.529296875 285.400390625 l 1
 351.529296875 173.400390625 l 1
351.529296875 337.400390625 m 1
 33.529296875 337.400390625 l 1
 33.529296875 449.400390625 l 1
 351.529296875 449.400390625 l 1
 351.529296875 337.400390625 l 1
204.98046875 253 m 1
 213.091796875 174.373046875 243.41796875 125.90234375 339.41796875 125.90234375 c 0
 400.510742188 125.90234375 438.431640625 146.872070312 438.431640625 146.872070312 c 1
 466.470703125 9.2666015625 l 1
 466.470703125 9.2666015625 399.84375 -12.5595703125 319.41796875 -12.5595703125 c 0
 166.1796875 -12.5595703125 84.162109375 90.2783203125 68.3642578125 253 c 1
 204.98046875 253 l 1
67.9013671875 370 m 1
 82.49609375 535.612304688 164.616210938 640.559570312 319.41796875 640.559570312 c 0
 400.115234375 640.559570312 447.203125 618.524414062 447.203125 618.524414062 c 1
 434.48828125 481.094726562 l 1
 434.48828125 481.094726562 400.537109375 502.09765625 339.41796875 502.09765625 c 0
 241.399414062 502.09765625 211.844726562 451.567382812 204.497070312 370 c 1
 67.9013671875 370 l 1
EndSplineSet
EndChar

StartChar: lira
Encoding: 8356 8356 225
Width: 500
Flags: HW
LayerCount: 2
Fore
SplineSet
378.5 180.400390625 m 5
 40.5 180.400390625 l 5
 40.5 282.400390625 l 5
 378.5 282.400390625 l 5
 378.5 180.400390625 l 5
378.5 320.400390625 m 5
 40.5 320.400390625 l 5
 40.5 422.400390625 l 5
 378.5 422.400390625 l 5
 378.5 320.400390625 l 5
42.5 121 m 1
 113.5 131 l 1
 459.5 131 l 1
 459.5 0 l 1
 42.5 0 l 1
 42.5 121 l 1
285.5 286 m 0
 285.5 117 75.7783203125 76 75.7783203125 76 c 1
 42.5 121 l 1
 133.5 156 167.12109375 214 167.12109375 268 c 0
 167.12109375 363 51.5 375.068359375 51.5 474 c 0
 51.5 581.599609375 143.7890625 640.559570312 275.388671875 640.559570312 c 0
 376.0859375 640.559570312 450.5 592 450.5 592 c 1
 407.169921875 460 l 1
 407.169921875 460 346.506835938 502.09765625 275.388671875 502.09765625 c 0
 226.546875 502.09765625 188.348632812 493.817382812 188.348632812 460 c 0
 188.348632812 416.182617188 285.5 383.186523438 285.5 286 c 0
EndSplineSet
EndChar

StartChar: ampersand.alt
Encoding: 65604 -1 226
Width: 633
Flags: HW
HStem: -10.0479 132.255<182.977 314.717> 502.098 138.462<246.402 428.848>
VStem: 35 144.206<130.106 186.185> 92 136.849<368.796 482.196>
LayerCount: 2
Fore
SplineSet
227.111328125 -10.0478515625 m 0xe0
 132.831054688 -10.0478515625 35 38.1201171875 35 136.200195312 c 0
 35 225.224609375 104.291015625 281.375976562 250.981445312 307.875 c 0
 426.666992188 339.61328125 544.09375 386.422851562 544.09375 386.422851562 c 1
 574.248046875 257.095703125 l 1
 574.248046875 257.095703125 447.76171875 226.669921875 307.81640625 208.439453125 c 0
 220 197 179.206054688 187.940429688 179.206054688 159.200195312 c 0
 179.206054688 130.884765625 206.459960938 122.20703125 241 122.20703125 c 0
 271 122.20703125 317.473632812 132.112304688 340 192 c 1
 438.20703125 150 l 1
 424 111 380.356445312 -10.0478515625 227.111328125 -10.0478515625 c 0xe0
598.000976562 0 m 1
 598.000976562 0 580 -10.0478515625 520.111328125 -10.0478515625 c 0
 408.830078125 -10.0478515625 363.244140625 64.7177734375 285.888671875 142.440429688 c 0
 226.32421875 202.287109375 92 336.400390625 92 454 c 0
 92 571.599609375 184.2890625 640.559570312 315.888671875 640.559570312 c 0
 436.5859375 640.559570312 491 602 491 602 c 1
 447.669921875 470 l 1
 447.669921875 470 407.006835938 502.09765625 315.888671875 502.09765625 c 0
 257.046875 502.09765625 228.848632812 473.817382812 228.848632812 440 c 0xd0
 228.848632812 398.182617188 247.415039062 358.357421875 305.888671875 300.90234375 c 0
 426.452148438 182.439453125 445 96 586.850585938 120 c 1
 598.000976562 0 l 1
EndSplineSet
EndChar

StartChar: IJ
Encoding: 306 306 227
Width: 651
Flags: HW
HStem: 0 132<45 101 243 299> 30 102<101 243> 496 132<45 101 243 299> 496 102<101 243>
VStem: 45 254<0 132 496 628> 101 142<30 598>
LayerCount: 2
Fore
SplineSet
299 220 m 1x88
 45 220 l 1
 45 352 l 1
 299 352 l 1
 299 220 l 1x88
299 496 m 1x28
 45 496 l 1
 45 628 l 1
 299 628 l 1
 299 496 l 1x28
101 250 m 1x54
 101 598 l 1
 243 598 l 1
 243 250 l 1
 101 250 l 1x54
479.928710938 314 m 2
 478.927734375 598 l 1
 616.927734375 598 l 1
 616.776367188 294 l 2
 616.662841787 65.9999801854 464 -12.55859375 298.888671875 -12.55859375 c 0
 135.123024327 -12.55859375 35 80 35 80 c 1
 65 200 l 1
 65 200 146 126.681262077 290.999996924 126.681262077 c 0
 401 126.681262077 480.461365011 173.532965013 479.928710938 314 c 2
616.927734375 496 m 1
 362.927734375 496 l 1
 362.927734375 628 l 1
 616.927734375 628 l 1
 616.927734375 496 l 1
EndSplineSet
EndChar

StartChar: ij
Encoding: 307 307 228
Width: 457
Flags: HW
LayerCount: 2
Fore
SplineSet
35 571.5625 m 0
 35 609.181640625 53.57421875 646.787109375 113.612304688 646.787109375 c 0
 173.651367188 646.787109375 192.2265625 609.181640625 192.2265625 571.5625 c 0
 192.2265625 533.942382812 173.651367188 496.337890625 113.612304688 496.337890625 c 0
 53.57421875 496.337890625 35 533.942382812 35 571.5625 c 0
44.11328125 0 m 1
 44.11328125 422.400390625 l 1
 184.712890625 422.400390625 l 1
 184.712890625 0 l 1
 44.11328125 0 l 1
265 571.5625 m 0
 265 609.181640625 283.57421875 646.787109375 343.612304688 646.787109375 c 0
 403.651367188 646.787109375 422.2265625 609.181640625 422.2265625 571.5625 c 0
 422.2265625 533.942382812 403.651367188 496.337890625 343.612304688 496.337890625 c 0
 283.57421875 496.337890625 265 533.942382812 265 571.5625 c 0
274.11328125 422.400390625 m 1
 414.712890625 422.400390625 l 1
 414.712890625 45.376953125 l 2
 414.712890625 -152.702148438 302.881835938 -215.870117188 149.6015625 -215.870117188 c 0
 72.439453125 -215.870117188 35.7568359375 -209 35.7568359375 -209 c 1
 45.517578125 -70.501953125 l 1
 45.517578125 -70.501953125 82.4921875 -79.0048828125 149.6015625 -79.0048828125 c 0
 228.860351562 -79.0048828125 274.11328125 -67.4658203125 274.11328125 45.376953125 c 2
 274.11328125 422.400390625 l 1
EndSplineSet
EndChar

StartChar: kgreenlandic
Encoding: 312 312 229
Width: 544
Flags: HW
LayerCount: 2
Fore
SplineSet
499 422.400390625 m 5
 125 53 l 4
 65 124 l 5
 317 422.400390625 l 5
 499 422.400390625 l 5
509 0 m 5
 327 0 l 5
 182 226 l 5
 271 279 l 5
 509 0 l 5
35 422.400390625 m 1
 175.599609375 422.400390625 l 1
 175.599609375 0 l 1
 35 0 l 1
 35 422.400390625 l 1
EndSplineSet
EndChar

StartChar: quoteright
Encoding: 8217 8217 230
Width: 247
Flags: HW
LayerCount: 2
Fore
SplineSet
35 545.334960938 m 4
 35 602.954101562 73.57421875 640.559570312 123.611328125 640.559570312 c 4
 173.65234375 640.559570312 212.2265625 602.954101562 212.2265625 545.334960938 c 4
 212.2265625 464.5625 118.833984375 367.75 118.833984375 367.75 c 5
 53.953125 406.38671875 l 5
 106.623046875 454.40234375 l 5
 59.59765625 458.879882812 35 499.322265625 35 545.334960938 c 4
EndSplineSet
EndChar

StartChar: quoteleft
Encoding: 8216 8216 231
Width: 247
Flags: HW
LayerCount: 2
Fore
SplineSet
212.2265625 462.974609375 m 4
 212.2265625 405.35546875 173.65234375 367.75 123.615234375 367.75 c 4
 73.57421875 367.75 35 405.35546875 35 462.974609375 c 4
 35 543.747070312 128.392578125 640.559570312 128.392578125 640.559570312 c 5
 193.2734375 601.922851562 l 5
 140.603515625 553.907226562 l 5
 187.62890625 549.4296875 212.2265625 508.987304688 212.2265625 462.974609375 c 4
EndSplineSet
EndChar

StartChar: quotedblright
Encoding: 8221 8221 232
Width: 469
Flags: HW
LayerCount: 2
Fore
SplineSet
257 545.334960938 m 4
 257 602.954101562 295.57421875 640.559570312 345.611328125 640.559570312 c 4
 395.65234375 640.559570312 434.2265625 602.954101562 434.2265625 545.334960938 c 4
 434.2265625 464.5625 340.833984375 367.75 340.833984375 367.75 c 5
 275.953125 406.38671875 l 5
 328.623046875 454.40234375 l 5
 281.59765625 458.879882812 257 499.322265625 257 545.334960938 c 4
35 545.334960938 m 0
 35 602.954101562 73.57421875 640.559570312 123.611328125 640.559570312 c 0
 173.65234375 640.559570312 212.2265625 602.954101562 212.2265625 545.334960938 c 0
 212.2265625 464.5625 118.833984375 367.75 118.833984375 367.75 c 1
 53.953125 406.38671875 l 1
 106.623046875 454.40234375 l 1
 59.59765625 458.879882812 35 499.322265625 35 545.334960938 c 0
EndSplineSet
EndChar

StartChar: quotedblleft
Encoding: 8220 8220 233
Width: 469
Flags: HW
LayerCount: 2
Fore
SplineSet
212.2265625 462.974609375 m 4
 212.2265625 405.35546875 173.65234375 367.75 123.615234375 367.75 c 4
 73.57421875 367.75 35 405.35546875 35 462.974609375 c 4
 35 543.747070312 128.392578125 640.559570312 128.392578125 640.559570312 c 5
 193.2734375 601.922851562 l 5
 140.603515625 553.907226562 l 5
 187.62890625 549.4296875 212.2265625 508.987304688 212.2265625 462.974609375 c 4
434.2265625 462.974609375 m 0
 434.2265625 405.35546875 395.65234375 367.75 345.615234375 367.75 c 0
 295.57421875 367.75 257 405.35546875 257 462.974609375 c 0
 257 543.747070312 350.392578125 640.559570312 350.392578125 640.559570312 c 1
 415.2734375 601.922851562 l 1
 362.603515625 553.907226562 l 1
 409.62890625 549.4296875 434.2265625 508.987304688 434.2265625 462.974609375 c 0
EndSplineSet
EndChar

StartChar: quotereversed
Encoding: 8219 8219 234
Width: 247
Flags: HW
LayerCount: 2
Fore
SplineSet
35 462.974609375 m 4
 35 508.987304688 59.59765625 549.4296875 106.623046875 553.907226562 c 5
 53.953125 601.922851562 l 5
 118.833984375 640.559570312 l 5
 118.833984375 640.559570312 212.2265625 543.747070312 212.2265625 462.974609375 c 4
 212.2265625 405.35546875 173.65234375 367.75 123.611328125 367.75 c 4
 73.57421875 367.75 35 405.35546875 35 462.974609375 c 4
EndSplineSet
EndChar

StartChar: uni201F
Encoding: 8223 8223 235
Width: 469
Flags: HW
LayerCount: 2
Fore
SplineSet
257 462.974609375 m 4
 257 508.987304688 281.59765625 549.4296875 328.623046875 553.907226562 c 5
 275.953125 601.922851562 l 5
 340.833984375 640.559570312 l 5
 340.833984375 640.559570312 434.2265625 543.747070312 434.2265625 462.974609375 c 4
 434.2265625 405.35546875 395.65234375 367.75 345.611328125 367.75 c 4
 295.57421875 367.75 257 405.35546875 257 462.974609375 c 4
35 462.974609375 m 0
 35 508.987304688 59.59765625 549.4296875 106.623046875 553.907226562 c 1
 53.953125 601.922851562 l 1
 118.833984375 640.559570312 l 1
 118.833984375 640.559570312 212.2265625 543.747070312 212.2265625 462.974609375 c 0
 212.2265625 405.35546875 173.65234375 367.75 123.611328125 367.75 c 0
 73.57421875 367.75 35 405.35546875 35 462.974609375 c 0
EndSplineSet
EndChar

StartChar: uni203D
Encoding: 8253 8253 240
Width: 544
Flags: HW
LayerCount: 2
Fore
SplineSet
205.22265625 230 m 1
 185.22265625 698 l 5
 327.22265625 698 l 5
 307.22265625 230 l 1
 205.22265625 230 l 1
210.22265625 368 m 1
 210.22265625 368 367.151367188 340.182617188 367.151367188 434 c 0
 367.151367188 487.817382812 328.953125 502.09765625 250.111328125 502.09765625 c 0
 168.993164062 502.09765625 78.330078125 460 78.330078125 460 c 1
 35 592 l 1
 35 592 139.4140625 640.559570312 250.111328125 640.559570312 c 0
 401.7109375 640.559570312 509.111328125 563.654296875 509.111328125 446.0546875 c 0
 509.111328125 328.455078125 398.22265625 262 260.22265625 283 c 0
 210.22265625 368 l 1
168.22265625 91.5625 m 0
 168.22265625 149.181640625 206.796875 186.787109375 256.834960938 186.787109375 c 0
 306.874023438 186.787109375 345.44921875 149.181640625 345.44921875 91.5625 c 0
 345.44921875 33.9423828125 306.874023438 -3.662109375 256.834960938 -3.662109375 c 0
 206.796875 -3.662109375 168.22265625 33.9423828125 168.22265625 91.5625 c 0
EndSplineSet
EndChar

StartChar: franc
Encoding: 8355 8355 241
Width: 500
Flags: HW
LayerCount: 2
Fore
SplineSet
331 56 m 5
 32 56 l 5
 32 188 l 5
 331 188 l 5
 331 56 l 5
401 265 m 1
 102 265 l 1
 102 397 l 1
 401 397 l 1
 401 265 l 1
468 496 m 1
 82 496 l 1
 82 628 l 1
 468 628 l 1
 468 496 l 1
82 0 m 1
 82 598 l 1
 224 598 l 1
 224 0 l 1
 82 0 l 1
EndSplineSet
EndChar

StartChar: uni20B9
Encoding: 8377 8377 242
Width: 500
Flags: HW
LayerCount: 2
Fore
SplineSet
447.5 489.538085938 m 1
 52.5 489.538085938 l 1
 52.5 628 l 1
 447.5 628 l 1
 447.5 489.538085938 l 1
444.5 0 m 1
 262.5 0 l 1
 62.5 296 l 0
 62.5 296 l 1
 151.5 349 l 1
 444.5 0 l 1
173.5 489.538085938 m 2
 52.5 489.538085938 l 1
 52.5 528 l 1
 213.5 528 l 6
 334.099609375 528 407.388671875 507.040039062 407.388671875 379.440429688 c 0
 407.388671875 257.840820312 294.099609375 230 173.5 230 c 2
 52.5 230 l 1
 52.5 358.461914062 l 1
 173.5 358.461914062 l 2
 221.341796875 358.461914062 270.540039062 361.623046875 270.540039062 419.440429688 c 0
 270.540039062 483.2578125 221.341796875 489.538085938 173.5 489.538085938 c 2
EndSplineSet
EndChar

StartChar: uni20BA
Encoding: 8378 8378 243
Width: 500
Flags: HW
LayerCount: 2
Fore
SplineSet
271.111328125 280.400390625 m 1
 33.111328125 240.400390625 l 1
 33.111328125 362.400390625 l 1
 271.111328125 402.400390625 l 1
 271.111328125 280.400390625 l 1
271.111328125 440.400390625 m 1
 33.111328125 400.400390625 l 1
 33.111328125 522.400390625 l 1
 271.111328125 562.400390625 l 1
 271.111328125 440.400390625 l 1
466.888671875 274 m 1
 466.8203125 116.400390625 392.7109375 0 221.111328125 0 c 2
 79.111328125 0 l 1
 78.111328125 628 l 1
 216.111328125 628 l 1
 215.959960938 126 l 1
 223 125.90234375 l 2
 325.111328125 125.90234375 330.249023438 200.18359375 330.041015625 274 c 1
 466.888671875 274 l 1
EndSplineSet
EndChar

StartChar: uni20BA.varAlt01
Encoding: 65605 -1 244
Width: 500
Flags: HW
LayerCount: 2
Fore
SplineSet
271.111328125 270.400390625 m 1
 33.111328125 230.400390625 l 1
 33.111328125 342.400390625 l 1
 271.111328125 382.400390625 l 1
 271.111328125 270.400390625 l 1
271.111328125 440.400390625 m 1
 33.111328125 400.400390625 l 1
 33.111328125 502.400390625 l 1
 271.111328125 542.400390625 l 1
 271.111328125 440.400390625 l 1
466.888671875 274 m 1
 466.8203125 116.400390625 392.7109375 0 221.111328125 0 c 2
 79.111328125 0 l 1
 78.58984375 317.51953125 l 1
 216.026367188 347.294921875 l 1
 215.959960938 126 l 1
 223 125.90234375 l 2
 325.111328125 125.90234375 330.249023438 200.18359375 330.041015625 274 c 1
 466.888671875 274 l 1
78.427734375 429.49609375 m 1
 78.111328125 628 l 1
 216.111328125 628 l 1
 216.057617188 459.298828125 l 1
 78.427734375 429.49609375 l 1
EndSplineSet
EndChar

StartChar: b.salt
Encoding: 65606 -1 245
Width: 502
Flags: HW
LayerCount: 2
Fore
SplineSet
35 0 m 5
 35 645.400390625 l 5
 175.599609375 645.400390625 l 5
 175.599609375 0 l 5
 35 0 l 5
282.110351562 -10.0478515625 m 0
 168.830078125 -10.0478515625 137 63.1201171875 137 211.200195312 c 0
 137 359.279296875 168.830078125 432.447265625 282.110351562 432.447265625 c 0
 395.390625 432.447265625 467.221679688 359.279296875 467.221679688 211.200195312 c 0
 467.221679688 63.1201171875 395.390625 -10.0478515625 282.110351562 -10.0478515625 c 0
252.110351562 295.58203125 m 0
 212.8515625 295.58203125 181.205078125 274.04296875 181.205078125 211.200195312 c 0
 181.205078125 148.357421875 212.8515625 126.817382812 252.110351562 126.817382812 c 0
 291.369140625 126.817382812 323.015625 148.357421875 323.015625 211.200195312 c 0
 323.015625 274.04296875 291.369140625 295.58203125 252.110351562 295.58203125 c 0
EndSplineSet
EndChar

StartChar: d.salt
Encoding: 65607 -1 246
Width: 502
Flags: HW
LayerCount: 2
Fore
SplineSet
326.622070312 0 m 1
 326.622070312 645.400390625 l 1
 467.221679688 645.400390625 l 1
 467.221679688 0 l 1
 326.622070312 0 l 1
250.111328125 295.58203125 m 0
 210.852539062 295.58203125 179.206054688 274.04296875 179.206054688 211.200195312 c 0
 179.206054688 148.357421875 210.852539062 126.817382812 250.111328125 126.817382812 c 0
 289.370117188 126.817382812 321.016601562 148.357421875 321.016601562 211.200195312 c 0
 321.016601562 274.04296875 289.370117188 295.58203125 250.111328125 295.58203125 c 0
220.111328125 -10.0478515625 m 0
 106.831054688 -10.0478515625 35 63.1201171875 35 211.200195312 c 0
 35 359.279296875 106.831054688 432.447265625 220.111328125 432.447265625 c 0
 333.391601562 432.447265625 365.221679688 359.279296875 365.221679688 211.200195312 c 0
 365.221679688 63.1201171875 333.391601562 -10.0478515625 220.111328125 -10.0478515625 c 0
EndSplineSet
EndChar

StartChar: p.salt
Encoding: 65608 -1 247
Width: 502
Flags: HW
LayerCount: 2
Fore
SplineSet
282.110351562 -10.0478515625 m 0
 168.830078125 -10.0478515625 137 63.1201171875 137 211.200195312 c 0
 137 359.279296875 168.830078125 432.447265625 282.110351562 432.447265625 c 0
 395.390625 432.447265625 467.221679688 359.279296875 467.221679688 211.200195312 c 0
 467.221679688 63.1201171875 395.390625 -10.0478515625 282.110351562 -10.0478515625 c 0
252.110351562 295.58203125 m 0
 212.8515625 295.58203125 181.205078125 274.04296875 181.205078125 211.200195312 c 0
 181.205078125 148.357421875 212.8515625 126.817382812 252.110351562 126.817382812 c 0
 291.369140625 126.817382812 323.015625 148.357421875 323.015625 211.200195312 c 0
 323.015625 274.04296875 291.369140625 295.58203125 252.110351562 295.58203125 c 0
35 -193 m 5
 35 422.400390625 l 5
 175.599609375 422.400390625 l 5
 175.599609375 -193 l 5
 35 -193 l 5
EndSplineSet
EndChar

StartChar: q.salt
Encoding: 65609 -1 248
Width: 502
Flags: HW
LayerCount: 2
Fore
SplineSet
326.622070312 -193 m 1
 326.622070312 422.400390625 l 1
 467.221679688 422.400390625 l 1
 467.221679688 -193 l 1
 326.622070312 -193 l 1
250.111328125 295.58203125 m 0
 210.852539062 295.58203125 179.206054688 274.04296875 179.206054688 211.200195312 c 0
 179.206054688 148.357421875 210.852539062 126.817382812 250.111328125 126.817382812 c 0
 289.370117188 126.817382812 321.016601562 148.357421875 321.016601562 211.200195312 c 0
 321.016601562 274.04296875 289.370117188 295.58203125 250.111328125 295.58203125 c 0
220.111328125 -10.0478515625 m 0
 106.831054688 -10.0478515625 35 63.1201171875 35 211.200195312 c 0
 35 359.279296875 106.831054688 432.447265625 220.111328125 432.447265625 c 0
 333.391601562 432.447265625 365.221679688 359.279296875 365.221679688 211.200195312 c 0
 365.221679688 63.1201171875 333.391601562 -10.0478515625 220.111328125 -10.0478515625 c 0
EndSplineSet
EndChar

StartChar: six.salt.numr
Encoding: 65610 -1 249
Width: 434
Flags: HW
HStem: 203 118.68<194.17 258.982> 368.32 112.21<197.318 305.885> 529.27 132.73<252.063 337.779>
VStem: 35 157.61<323.437 450.578>
LayerCount: 2
Fore
SplineSet
184.530273438 448.73046875 m 1
 184.530273438 448.73046875 216.259765625 480.530273438 268.58984375 480.530273438 c 0
 343.1796875 480.530273438 399 432 399 349 c 0
 399 274 338 203 223 203 c 0
 101 203 35 284 35 420 c 0
 35 576 200 653 337 662 c 0
 351.76953125 529.26953125 l 1
 197 515 184.530273438 448.73046875 184.530273438 448.73046875 c 1
227.059570312 321.6796875 m 0
 247.73046875 321.6796875 259.389648438 331.219726562 259.389648438 346.58984375 c 0
 259.389648438 356.129882812 252.5 368.3203125 226 368.3203125 c 0
 203.740234375 368.3203125 192.610351562 359.309570312 192.610351562 347.120117188 c 0
 192.610351562 329.099609375 209.040039062 321.6796875 227.059570312 321.6796875 c 0
EndSplineSet
Substitution2: "Single Substitution lookup 24 subtable" six.salt.dnom
Substitution2: "Single Substitution lookup 25 subtable" six.salt.dnom
EndChar

StartChar: nine.salt.numr
Encoding: 65611 -1 250
Width: 434
Flags: HW
HStem: 185 132.73<96.2211 181.937> 366.47 112.21<128.115 236.682> 525.32 118.68<175.018 239.83>
VStem: 241.39 157.61<396.422 523.563>
LayerCount: 2
Fore
SplineSet
249.469726562 398.26953125 m 1
 249.469726562 398.26953125 217.740234375 366.469726562 165.41015625 366.469726562 c 0
 90.8203125 366.469726562 35 415 35 498 c 0
 35 573 96 644 211 644 c 0
 333 644 399 563 399 427 c 0
 399 271 234 194 97 185 c 0
 82.23046875 317.73046875 l 1
 237 332 249.469726562 398.26953125 249.469726562 398.26953125 c 1
206.940429688 525.3203125 m 0
 186.26953125 525.3203125 174.610351562 515.780273438 174.610351562 500.41015625 c 0
 174.610351562 490.870117188 181.5 478.6796875 208 478.6796875 c 0
 230.259765625 478.6796875 241.389648438 487.690429688 241.389648438 499.879882812 c 0
 241.389648438 517.900390625 224.959960938 525.3203125 206.940429688 525.3203125 c 0
EndSplineSet
Substitution2: "Single Substitution lookup 24 subtable" nine.salt.dnom
Substitution2: "Single Substitution lookup 25 subtable" nine.salt.dnom
EndChar

StartChar: six.salt.dnom
Encoding: 65612 -1 251
Width: 434
Flags: HW
LayerCount: 2
Fore
SplineSet
184.530273438 237.729492188 m 5
 184.530273438 237.729492188 216.259765625 269.529296875 268.58984375 269.529296875 c 4
 343.1796875 269.529296875 399 220.999023438 399 137.999023438 c 4
 399 62.9990234375 338 -8.0009765625 223 -8.0009765625 c 4
 101 -8.0009765625 35 72.9990234375 35 208.999023438 c 4
 35 364.999023438 200 441.999023438 337 450.999023438 c 4
 351.76953125 318.268554688 l 5
 197 303.999023438 184.530273438 237.729492188 184.530273438 237.729492188 c 5
227.059570312 110.678710938 m 4
 247.73046875 110.678710938 259.389648438 120.21875 259.389648438 135.588867188 c 4
 259.389648438 145.12890625 252.5 157.319335938 226 157.319335938 c 4
 203.740234375 157.319335938 192.610351562 148.30859375 192.610351562 136.119140625 c 4
 192.610351562 118.098632812 209.040039062 110.678710938 227.059570312 110.678710938 c 4
EndSplineSet
EndChar

StartChar: nine.salt.dnom
Encoding: 65613 -1 252
Width: 434
Flags: HW
HStem: -26 132.73<96.2211 181.937> 155.47 112.21<128.115 236.682> 314.32 118.68<175.018 239.83>
VStem: 241.39 157.61<185.422 312.563>
LayerCount: 2
Fore
SplineSet
249.469726562 187.26953125 m 1
 249.469726562 187.26953125 217.740234375 155.469726562 165.41015625 155.469726562 c 0
 90.8203125 155.469726562 35 204 35 287 c 0
 35 362 96 433 211 433 c 0
 333 433 399 352 399 216 c 0
 399 60 234 -17 97 -26 c 0
 82.23046875 106.73046875 l 1
 237 121 249.469726562 187.26953125 249.469726562 187.26953125 c 1
206.940429688 314.3203125 m 0
 186.26953125 314.3203125 174.610351562 304.780273438 174.610351562 289.41015625 c 0
 174.610351562 279.870117188 181.5 267.6796875 208 267.6796875 c 0
 230.259765625 267.6796875 241.389648438 276.690429688 241.389648438 288.879882812 c 0
 241.389648438 306.900390625 224.959960938 314.3203125 206.940429688 314.3203125 c 0
EndSplineSet
EndChar

StartChar: six.ssf
Encoding: 65614 -1 253
Width: 496
Flags: HW
HStem: -12.5596 138.641<214.151 309.209> 276 121.761<228.614 306.358> 608.387 20G<428.331 429.525>
VStem: 35 135.318<297.842 400.183> 325.58 135.781<143.058 254.142>
LayerCount: 2
Fore
SplineSet
259.5078125 126.081054688 m 0
 300.638671875 126.081054688 325.580078125 152.017578125 325.580078125 196 c 0
 325.580078125 234 315 276 259.186523438 276 c 0
 215.427734375 276 194.188476562 242.536132812 194.188476562 198 c 0
 194.188476562 150.8046875 224.336914062 126.081054688 259.5078125 126.081054688 c 0
279.7421875 473.09765625 m 0
 197.1015625 447.411132812 171.153320312 378.251953125 170.318359375 297.841796875 c 1
 170.318359375 297.841796875 198.724609375 397.921875 302.0390625 397.760742188 c 0
 394.575195312 397.616210938 461.49609375 334.1875 461.361328125 194 c 0
 461.23828125 66.140625 390.208007812 -12.5595703125 255.612304688 -12.5595703125 c 0
 112.154296875 -12.5595703125 35 116.400390625 35 284 c 0
 35 471.599609375 135 567 272.33203125 610.559570312 c 0
 357.546875 637.588867188 428.331054688 628.38671875 428.331054688 628.38671875 c 1
 436.194335938 496.681640625 l 1
 436.194335938 496.681640625 371.416015625 501.591796875 279.7421875 473.09765625 c 0
EndSplineSet
Substitution2: "'tnum' Tabular Numbers in Latin lookup 5-1" six.tssf
EndChar

StartChar: nine.ssf
Encoding: 65615 -1 254
Width: 496
Flags: HW
HStem: 102.127 121.761<183.891 290.735> 333.807 138.641<181.366 291.688>
VStem: 35 135.781<238.569 320.168> 326.043 135.318<74.0543 182.046>
LayerCount: 2
Fore
SplineSet
237.853515625 333.806640625 m 0
 196.72265625 333.806640625 170.78125 312.87109375 170.78125 282.887695312 c 0
 170.78125 247 184.962890625 223.887695312 237.174804688 223.887695312 c 0
 281 223.887695312 302.172851562 241.3515625 302.172851562 280.887695312 c 0
 302.172851562 319.083007812 273.024414062 333.806640625 237.853515625 333.806640625 c 0
226.227539062 0.0283203125 m 0
 293.352539062 25.4345703125 325.208007812 81.6357421875 326.04296875 182.045898438 c 1
 326.04296875 182.045898438 312 102.126953125 204.322265625 102.126953125 c 0
 101.786132812 102.126953125 35 164 35 285.887695312 c 0
 35 393.747070312 106.153320312 472.447265625 240.749023438 472.447265625 c 0
 384.20703125 472.447265625 461.361328125 343.487304688 461.361328125 175.887695312 c 0
 461.361328125 -11.7119140625 362.767578125 -93.931640625 233.637695312 -137.43359375 c 0
 134 -171 67.638671875 -167.260742188 67.638671875 -167.260742188 c 1
 59.775390625 -35.5556640625 l 1
 59.775390625 -35.5556640625 130.48828125 -36.2080078125 226.227539062 0.0283203125 c 0
EndSplineSet
Substitution2: "'tnum' Tabular Numbers in Latin lookup 5-1" nine.tssf
EndChar

StartChar: six.stf
Encoding: 65616 -1 255
Width: 580
Flags: HW
HStem: -12.5596 138.641<230.953 368.631> 276 121.761<240.931 372.483>
VStem: 35 171<156.993 354.324> 394 151<154.157 252.477>
LayerCount: 2
Fore
SplineSet
299.322265625 126.081054688 m 0
 358.173828125 126.081054688 394 156.015625 394 206 c 0
 394 237 372 276 300 276 c 0
 237.390625 276 206 247.536132812 206 208 c 0
 206 149.8046875 249 126.081054688 299.322265625 126.081054688 c 0
482 529 m 1
 482 529 384.877929688 508.833984375 298 471 c 0
 174 417 171.934570312 317.994140625 171.934570312 317.994140625 c 1
 171.934570312 317.994140625 220.415039062 397.760742188 338 397.760742188 c 0
 476 397.760742188 545 321 545 194 c 0
 545 86.140625 459.889648438 -12.5595703125 298.888671875 -12.5595703125 c 0
 127.2890625 -12.5595703125 35 116.400390625 35 294 c 0
 35 426.390625 104 531 233 588 c 0
 346.946289062 638.348632812 450 657 450 657 c 1
 482 529 l 1
EndSplineSet
EndChar

StartChar: nine.stf
Encoding: 65617 -1 256
Width: 580
Flags: HW
HStem: 232.239 119.761<209.087 342.087> 502.098 140.462<209.833 350.744>
VStem: 35 150.961<372.719 475.843> 373.961 171.039<280.881 472.841>
LayerCount: 2
Fore
SplineSet
282.072265625 502.09765625 m 0
 223.220703125 502.09765625 187.39453125 472.163085938 187.39453125 422.178710938 c 0
 187.39453125 385.09765625 206.688476562 352.178710938 281.39453125 352.178710938 c 0
 350.39453125 352.178710938 375.39453125 380.642578125 375.39453125 420.178710938 c 0
 375.39453125 478.374023438 332.39453125 502.09765625 282.072265625 502.09765625 c 0
97.9609375 111 m 1
 97.9609375 111 185.65234375 125.97265625 272 165 c 0
 406.9609375 226 408.06640625 312.0078125 408.06640625 312.0078125 c 1
 408.06640625 312.0078125 378.9609375 232.239257812 252 232.239257812 c 0
 114.88671875 232.239257812 35 307 35 436 c 0
 35 543.859375 120.110351562 642.559570312 281.111328125 642.559570312 c 0
 452.7109375 642.559570312 545 513.599609375 545 336 c 0
 545 203.609375 459.201171875 97.1201171875 327 48 c 0
 213.9609375 6 118.9609375 -8 118.9609375 -8 c 1
 97.9609375 111 l 1
EndSplineSet
EndChar

StartChar: six.tssf
Encoding: 65618 -1 257
Width: 580
Flags: HW
HStem: -12.5596 138.641<235.603 377.957> 265 121.761<230.464 376.049>
VStem: 35 136.864<297.842 366.122> 398 147<146.784 245.931>
LayerCount: 2
Fore
SplineSet
306.322265625 126.081054688 m 0
 365.173828125 126.081054688 398 146.015625 398 196 c 0
 398 227 375 265 303 265 c 0
 240.390625 265 210 237.536132812 210 198 c 0
 210 139.8046875 256 126.081054688 306.322265625 126.081054688 c 0
285 596 m 0
 387 639 480.888671875 647.09765625 480.888671875 647.09765625 c 1
 512.888671875 519.09765625 l 1
 512.888671875 519.09765625 398.551757812 491.243164062 328.888671875 468.09765625 c 0
 242.591796875 439.42578125 172.862304688 378.251953125 171.864257812 297.841796875 c 1
 190.14453125 337.598632812 230.302734375 386.881835938 318 386.760742188 c 0
 465.11328125 386.557617188 545.176757812 314.1875 545 184 c 0
 544.83984375 66.140625 459.889648438 -12.5595703125 298.888671875 -12.5595703125 c 0
 127.2890625 -12.5595703125 35 86.400390625 35 284 c 0
 35 441.599609375 141.224609375 535.388671875 285 596 c 0
EndSplineSet
EndChar

StartChar: nine.tssf
Encoding: 65619 -1 258
Width: 580
Flags: HW
HStem: 91.3984 124.483<196.38 352.256> 334.801 138.641<198.34 349.391>
VStem: 35 147<233.96 316.408> 408.136 136.864<92.9738 163.04>
LayerCount: 2
Fore
SplineSet
273.677734375 334.80078125 m 0
 214.826171875 334.80078125 182 316 182 274.881835938 c 0
 182 243.719726562 202.293945312 215.881835938 277 215.881835938 c 0
 348 215.881835938 370 241.345703125 370 272.881835938 c 0
 370 314.077148438 324 334.80078125 273.677734375 334.80078125 c 0
263.111328125 -130.400390625 m 0
 136.506835938 -164.194335938 85.935546875 -160.89453125 84.5224609375 -161.227539062 c 1
 76.6591796875 -29.5224609375 l 1
 76.6591796875 -29.5224609375 160 -30 243.111328125 -3.9384765625 c 0
 324.461914062 21.5712890625 407.137695312 72.6298828125 408.135742188 163.040039062 c 1
 389.85546875 123.283203125 348 91.3984375 254 91.3984375 c 0
 106.88671875 91.3984375 35 155 35 286.881835938 c 0
 35 394.741210938 120.110351562 473.44140625 281.111328125 473.44140625 c 0
 452.7109375 473.44140625 545 344.481445312 545 176.881835938 c 0
 545 -10.7177734375 393.049804688 -95.7158203125 263.111328125 -130.400390625 c 0
EndSplineSet
EndChar

StartChar: uni1E9E
Encoding: 7838 7838 259
Width: 631
Flags: HW
LayerCount: 2
Fore
SplineSet
372.22265625 282 m 1
 304.22265625 363.206054688 l 0
 409.111328125 467.694335938 l 0
 409.111328125 467.694335938 393 511.866210938 301 511.866210938 c 0
 222.704101562 511.866210938 175.599609375 474.646484375 175.599609375 369.3125 c 6
 175.599609375 0 l 1
 35 0 l 1
 35 379.3125 l 2
 35 567.391601562 136.831054688 640.559570312 290.111328125 640.559570312 c 0
 445.390625 640.559570312 543.221679688 577.391601562 563.221679688 459.3125 c 0
 372.22265625 282 l 1
596.345703125 173.959960938 m 0
 596.345703125 65.49609375 518.880859375 -8.0380859375 394.256835938 -8.0380859375 c 0
 308.702148438 -8.0380859375 261.623046875 13.0419921875 261.623046875 13.0419921875 c 1
 278.74609375 136.400390625 l 1
 278.74609375 136.400390625 315.973632812 121.454101562 368.256835938 121.454101562 c 0
 425.6640625 121.454101562 460.981445312 143.685546875 460.981445312 193.959960938 c 0
 460.981445312 244.234375 425.6640625 266.465820312 388.256835938 266.465820312 c 0
 342.569335938 266.465820312 332.22265625 262 332.22265625 262 c 1
 304.22265625 363.206054688 l 1
 358.256835938 335.958007812 l 0
 484 378 596.345703125 292.423828125 596.345703125 173.959960938 c 0
EndSplineSet
EndChar

StartChar: alpha
Encoding: 945 945 260
Width: 596
Flags: HW
LayerCount: 2
Fore
SplineSet
250.111328125 295.58203125 m 0
 210.852539062 295.58203125 179.206054688 274.04296875 179.206054688 211.200195312 c 0
 179.206054688 148.357421875 210.852539062 126.817382812 250.111328125 126.817382812 c 0
 289.370117188 126.817382812 321.016601562 148.357421875 321.016601562 211.200195312 c 0
 321.016601562 274.04296875 289.370117188 295.58203125 250.111328125 295.58203125 c 0
220.111328125 -10.0478515625 m 0
 106.831054688 -10.0478515625 35 63.1201171875 35 211.200195312 c 0
 35 359.279296875 106.831054688 432.447265625 220.111328125 432.447265625 c 0
 333.391601562 432.447265625 365.221679688 359.279296875 365.221679688 211.200195312 c 0
 365.221679688 63.1201171875 333.391601562 -10.0478515625 220.111328125 -10.0478515625 c 0
548 122 m 1
 561.622070312 20 l 1
 561.622070312 20 537.21875 -10.0458984375 472.111328125 -10.0478515625 c 0
 358.219726562 -10.05078125 340.37890625 106.522460938 321.016601562 211.200195312 c 1
 329.373046875 285.715820312 344.756835938 358.209960938 371.622070312 427.400390625 c 1
 512.221679688 417.400390625 l 1
 481.172851562 345.549804688 466.9921875 277.752929688 455.221679688 211.200195312 c 1
 464.284179688 122.561523438 494.1796875 118.09765625 523 118.09765625 c 0
 537 118.09765625 548 122 548 122 c 1
EndSplineSet
EndChar

StartChar: beta
Encoding: 946 946 261
Width: 566
Flags: HW
LayerCount: 2
Fore
SplineSet
531.345703125 158.959960938 m 0
 531.345703125 50.49609375 433.880859375 -8.0380859375 309.256835938 -8.0380859375 c 0
 203.702148438 -8.0380859375 166.623046875 33.0419921875 166.623046875 33.0419921875 c 1
 183.74609375 156.400390625 l 1
 183.74609375 156.400390625 210.973632812 121.454101562 283.256835938 121.454101562 c 0
 350.6640625 121.454101562 395.981445312 138.685546875 395.981445312 178.959960938 c 0
 395.981445312 219.234375 370.6640625 246.465820312 323.256835938 246.465820312 c 0
 287.569335938 246.465820312 271.76953125 241.075195312 271.76953125 241.075195312 c 1
 264.809570312 335.0234375 l 1
 264.809570312 335.0234375 269 341 323.256835938 335.958007812 c 0
 425.268554688 326.478515625 531.345703125 277.423828125 531.345703125 158.959960938 c 0
335.016601562 439.3125 m 0
 335.016601562 482.155273438 306.370117188 503.694335938 265.111328125 503.694335938 c 0
 225.852539062 503.694335938 190.599609375 482.154296875 190.599609375 419.3125 c 2
 190.599609375 -32 l 2
 190.599609375 -120 175.599609375 -198 175.599609375 -198 c 1
 35 -188 l 1
 35 -188 50 -104 50 -25 c 2
 50 419.3125 l 2
 50 567.389648438 151.831054688 640.559570312 265.111328125 640.559570312 c 0
 380.390625 640.559570312 480.221679688 567.391601562 480.221679688 449.3125 c 0
 480.221679688 336.115234375 389.151367188 307.928710938 268.814453125 280.965820312 c 1
 261.85546875 374.9140625 l 1
 304.381835938 378.130859375 335.016601562 400.188476562 335.016601562 439.3125 c 0
EndSplineSet
EndChar

